<?xml version="1.0" standalone="no"?>
<!DOCTYPE svg PUBLIC "-//W3C//DTD SVG 1.1//EN" "http://www.w3.org/Graphics/SVG/1.1/DTD/svg11.dtd" >
<svg xmlns="http://www.w3.org/2000/svg" xmlns:xlink="http://www.w3.org/1999/xlink" version="1.1">
<metadata>
Created by FontForge 20201107 at Sat Dec 27 15:56:52 2008
 By Webmaster
Copyright (c) Gophmann A.L. (cyr.code page), 2000. All rights reserved.
</metadata>
<defs>
<font id="Campanella" horiz-adv-x="206" >
  <font-face 
    font-family="Campanella"
    font-weight="400"
    font-stretch="normal"
    units-per-em="1000"
    panose-1="2 0 4 0 0 0 0 0 0 0"
    ascent="800"
    descent="-200"
    x-height="326"
    cap-height="819"
    bbox="-91 -360.286 1661 1178"
    underline-thickness="20"
    underline-position="-200"
    unicode-range="U+0020-FB02"
  />
<missing-glyph horiz-adv-x="500" 
d="M63 0v1130h375v-1130h-375zM125 63h250v1005h-250v-1005z" />
    <glyph glyph-name=".notdef" horiz-adv-x="500" 
d="M63 0v1130h375v-1130h-375zM125 63h250v1005h-250v-1005z" />
    <glyph glyph-name="NULL" horiz-adv-x="0" 
 />
    <glyph glyph-name="nonmarkingreturn" horiz-adv-x="205" 
 />
    <glyph glyph-name="space" unicode=" " horiz-adv-x="205" 
 />
    <glyph glyph-name="exclam" unicode="!" horiz-adv-x="204" 
d="M167 748q0 11 -11 -123q-6 -86 -22 -497q-1 -26 -15 -26t-14 16q0 50 6 133q7 103 8 134q5 119 5 209q0 23 -2 70.5t-2 71.5q0 26 1 29q3 18 18 18q28 0 28 -35zM153 23q0 -30 -32 -30t-32 30t32 30t32 -30z" />
    <glyph glyph-name="quotedbl" unicode="&#x22;" horiz-adv-x="197" 
d="M169 664q0 -30 -10.5 -69t-23.5 -59q-3 -4 -7 -4q-5 0 -5 5q0 -1 7 19.5t7 44.5q0 16 -11.5 34.5t-11.5 27.5q0 31 27 31q28 0 28 -30zM91 664q0 -30 -10 -69t-23 -59q-3 -4 -7 -4q-6 0 -6 5q0 -1 7.5 19.5t7.5 44.5q0 16 -11.5 34.5t-11.5 27.5q0 31 27 31t27 -30z" />
    <glyph glyph-name="numbersign" unicode="#" horiz-adv-x="438" 
d="M414 506q0 -24 -28 -24q-31 0 -81 3l-31 -95l99 -1q7 0 7 -6q0 -24 -29 -24q-30 0 -86 4q-36 -121 -80 -253q-5 -8 -16 -8t-11 10q0 12 83 253q-26 1 -44 1q-28 0 -54 -1q-37 -122 -81 -255q-5 -8 -15 -8q-11 0 -11 10q0 12 83 252q-13 0 -43.5 -4.5t-47.5 -4.5
q-11 0 -11 10q0 38 34 38q15 0 39 -3q29 -5 39 -5q15 49 28 92q-13 -1 -47 -5q-30 -4 -47 -4q-12 0 -12 10q0 38 35 38q15 0 40 -4q31 -4 40 -5q10 33 59 218q12 48 32 48q21 0 21 -20q0 -14 -38 -117q-24 -65 -47 -131q42 -2 94 -3q11 37 60 223q12 48 32 48q21 0 21 -20
q0 -14 -38 -119l-48 -132h93q7 0 7 -6zM280 487q-29 2 -49 2q-25 0 -48 -1l-31 -95q44 -2 98 -3q16 52 30 97z" />
    <glyph glyph-name="dollar" unicode="$" horiz-adv-x="310" 
d="M276 224q0 -98 -92 -122q1 -24 1 -47q0 -55 -15 -55q-11 0 -14 29q-1 14 0 69h-8q-54 0 -90 29t-36 80q0 36 21 62.5t41 26.5q13 0 13 -10t-8.5 -10t-19.5 -16q-15 -21 -15 -52q0 -39 26 -65.5t70 -26.5h6v4l1 213q-56 40 -77 69q-36 48 -36 118q0 63 33 122q36 64 85 75
l1 39q1 41 10 41q10 0 10 -35v-44q84 -3 84 -122q0 -57 -24 -109q-26 -58 -66 -70q0 -26 1 -56q50 -37 67 -57q31 -37 31 -80zM235 600q0 99 -52 101q-1 -27 -3 -131q-3 -85 -3 -132q24 16 40 58q18 46 18 104zM162 698q-35 -13 -60 -64t-25 -119q0 -75 80 -138v37
q-27 0 -44 23q-15 19 -15 44q0 26 13 44q11 14 19 14q10 0 10 -8q0 -2 -1 -4l-2 -3q-12 -16 -12 -40q0 -21 9.5 -37t22.5 -16h1q1 140 4 267zM244 208q0 59 -65 109l5 -195q27 11 43.5 35t16.5 51z" />
    <glyph glyph-name="percent" unicode="%" horiz-adv-x="564" 
d="M536 209q0 -92 -32 -158t-79 -66q-48 0 -80 66t-32 158t32 158t80 66q47 0 79 -66t32 -158zM456 762q0 -25 -76 -198q-48 -110 -96 -219l-45 -113q-32 -79 -107 -253q-7 -17 -16 -17q-13 0 -13 14q0 11 70 173q42 98 85 195q32 77 92 232q8 25 29 89q-54 -73 -116 -88v-1
q0 -92 -32 -158t-79 -66q-48 0 -80 66t-32 158t32 158t80 66q44 0 75.5 -58.5t35.5 -143.5q46 13 88 62q24 29 65 96q17 29 24 29q16 0 16 -23zM233 593q-3 108 -42 162q-23 0 -39.5 -24.5t-16.5 -55.5q0 -35 21 -56q24 -26 70 -26h7zM234 573h-2q-60 0 -92 31
q-27 27 -27 69q0 34 19 61.5t50 31.5q-15 15 -30 15q-33 0 -57.5 -60t-24.5 -145q0 -86 24.5 -146.5t57.5 -60.5q32 0 56.5 60t25.5 144zM507 209q0 85 -25 145t-57 60q-33 0 -57.5 -60t-24.5 -145q0 -86 24.5 -146.5t57.5 -60.5q32 0 57 60.5t25 146.5z" />
    <glyph glyph-name="ampersand" unicode="&#x26;" horiz-adv-x="523" 
d="M510 87q0 -15 -11 -15q-18 0 -53 4t-52 5q16 -33 16 -68q0 -68 -53 -117q-56 -52 -140 -52q-70 0 -120 46q-59 55 -59 156q0 78 52 144q34 42 77 67q-112 87 -112 246q0 119 58 209q62 95 152 95q59 0 90 -52q28 -46 28 -119q0 -87 -34 -160q-37 -75 -85 -75
q-31 0 -55 34.5t-24 89.5q0 45 18 79q13 26 20 26q6 0 6 -7q0 6 -9 -23.5t-9 -69.5q0 -46 15 -79t37 -33q36 0 63 67q24 64 24 144q0 70 -21 114q-24 50 -71 50q-58 0 -111 -76q-56 -82 -56 -190q0 -72 20 -130q15 -43 42 -80l34 -44q43 20 90 20q34 0 57 -11.5t23 -30.5
q0 -14 -19 -26.5t-46 -12.5q-60 0 -107 31q-106 -79 -106 -197q0 -80 37 -130q40 -54 109 -54q70 0 115 52q41 47 41 114q0 27 -8 52q-29 0 -58.5 -5t-52.5 -5q-26 0 -26 15q0 25 42 25h1q122 0 218 -9q13 -2 13 -14zM325 249q0 30 -48 30q-37 0 -73 -22q38 -31 84 -31
q37 0 37 23z" />
    <glyph glyph-name="quotesingle" unicode="'" horiz-adv-x="110" 
d="M91 664q0 -30 -10.5 -69t-23.5 -59q-2 -4 -6 -4q-6 0 -6 5q0 -1 7.5 19.5t7.5 44.5q0 16 -11.5 34.5t-11.5 27.5q0 31 27 31t27 -30z" />
    <glyph glyph-name="parenleft" unicode="(" horiz-adv-x="320" 
d="M271 805q0 -2 -29 -37q-62 -76 -98 -177t-36 -200q0 -216 159 -415q3 -4 3 -9q0 -13 -12 -13q-7 0 -35 40q-158 221 -158 397q0 97 48 209q42 97 110 185q27 34 35 34q13 0 13 -14z" />
    <glyph glyph-name="parenright" unicode=")" horiz-adv-x="320" 
d="M261 385q0 -98 -49 -211q-42 -98 -111 -185q-27 -35 -35 -35q-13 0 -13 14q0 2 29 37q63 77 99 178.5t36 201.5q0 217 -161 417q-3 5 -3 9q0 13 12 13q8 0 36 -39q160 -224 160 -400z" />
    <glyph glyph-name="asterisk" unicode="*" horiz-adv-x="273" 
d="M246 526q0 -15 -9 -15q-14 0 -39 4q-28 4 -40 5q47 -62 47 -72q0 -18 -17 -18q-16 0 -55 69q-8 -16 -24 -46q-9 -16 -16 -16q-6 0 -11 7t-5 13q0 10 29 58q-35 -6 -51 -6q-22 0 -22 15q0 25 33 25h41q-24 51 -24 59q0 15 18 15q3 0 6 -4.5t27 -60.5q45 67 54 67
q17 0 17 -13q0 -1 -1 -4q-5 -13 -20 -30q-23 -29 -24 -30q44 -2 76 -8q10 -3 10 -14z" />
    <glyph glyph-name="plus" unicode="+" horiz-adv-x="294" 
d="M254 268q0 -15 -9 -15q-15 0 -42.5 4t-40.5 4v-69q0 -22 -14 -22t-16 13q0 -5 0 26q0 27 1 52l-71 -1q-22 0 -22 15q0 16 39 16q28 0 56 -1q2 44 7 83q1 11 14 11q14 0 14 -9q0 -15 -4 -43.5t-4 -42.5q43 -3 81 -7q11 -2 11 -14z" />
    <glyph glyph-name="comma" unicode="," horiz-adv-x="155" 
d="M116 13q0 -30 -10.5 -69t-23.5 -59q-2 -4 -6 -4q-6 0 -6 5q0 -1 7.5 19.5t7.5 44.5q0 16 -11.5 34.5t-11.5 27.5q0 31 27 31t27 -30z" />
    <glyph glyph-name="uni00AD" unicode="&#xad;" horiz-adv-x="294" 
d="M254 232q0 -14 -9 -14q-15 0 -43 4t-43 4q-16 0 -48.5 -5t-48.5 -5q-22 0 -22 14q0 25 39 25q89 0 164 -9q11 -1 11 -14z" />
    <glyph glyph-name="uni00AD" unicode="&#x2212;" horiz-adv-x="294" 
d="M254 232q0 -14 -9 -14q-15 0 -43 4t-43 4q-16 0 -48.5 -5t-48.5 -5q-22 0 -22 14q0 25 39 25q89 0 164 -9q11 -1 11 -14z" />
    <glyph glyph-name="period" unicode="." horiz-adv-x="153" 
d="M113 12q0 -30 -27 -30t-27 30q0 31 27 31t27 -31z" />
    <glyph glyph-name="slash" unicode="/" horiz-adv-x="385" 
d="M408 762q0 -25 -75 -198q-48 -110 -96 -219l-46 -113q-32 -80 -107 -253q-7 -17 -15 -17q-14 0 -14 14q0 11 70 173q43 98 85 195q32 77 92 232q20 58 39 116q34 93 51 93q16 0 16 -23z" />
    <glyph glyph-name="zero" unicode="0" horiz-adv-x="463" 
d="M437 397q0 -168 -59 -286.5t-142 -118.5q-84 0 -143 118.5t-59 286.5q0 167 59 285.5t143 118.5q83 0 142 -118.5t59 -285.5zM400 396q0 158 -48 270t-116 112t-116 -112t-48 -270t48 -270t116 -112t116 112t48 270z" />
    <glyph glyph-name="one" unicode="1" horiz-adv-x="277" 
d="M256 11q0 -15 -9 -15q-13 0 -41 4.5t-42 4.5q-16 0 -47.5 -5.5t-47.5 -5.5q-22 0 -22 15q0 25 38 25q24 0 48 -1q0 52 4 158.5t4 160.5q0 129 -4 231l-1 28q-3 38 -7 115q-20 -23 -45.5 -41.5t-37.5 -18.5q-13 0 -13 12q0 5 20 15q26 14 42.5 30.5t32.5 51.5q0 30 17 30
q29 0 29 -49q0 -27 -2 -72q-3 -58 -3 -73q-4 -114 -4 -250v-104q0 -40 -2 -112q-2 -77 -2 -113q45 -2 85 -7q10 -2 10 -14z" />
    <glyph glyph-name="two" unicode="2" horiz-adv-x="377" 
d="M341 -5q0 -8 -5 -4q-21 17 -60 32.5t-65 15.5q-41 0 -83.5 -25l-42.5 -25q-11 0 -27.5 10t-16.5 18q0 25 59 111q76 110 110 185q60 131 60 265q0 99 -26 155q-23 51 -58 51q-40 0 -70 -66q-33 -74 -33 -196q0 -128 45 -128q19 0 32 35.5t13 96.5q0 49 -12 86t-12 30
q0 8 9 8q8 0 23 -30q20 -40 20 -100q0 -65 -22 -102.5t-53 -37.5q-39 0 -60 48q-20 43 -20 112q0 125 44 197q39 63 96 63q51 0 87 -53q39 -59 39 -155q0 -124 -64 -264q-42 -91 -119 -200q-64 -92 -64 -99q0 -3 6 -3q-1 0 17.5 13.5t41.5 22.5q32 12 69 12q54 0 103 -36
q39 -29 39 -43z" />
    <glyph glyph-name="three" unicode="3" horiz-adv-x="393" 
d="M366 225q0 -91 -51 -159q-53 -72 -131 -72q-69 0 -109 56q-35 49 -35 120q0 61 27.5 105.5t74.5 44.5q34 0 60 -32q29 -37 29 -99q0 -29 -16 -56q-13 -23 -20 -23q-6 0 -6 9q0 -3 7.5 19.5t7.5 50.5q0 54 -17 85q-16 28 -41 28q-34 0 -54.5 -41t-20.5 -97q0 -63 26 -105
q30 -49 83 -49q65 0 107 67q39 63 39 149q0 141 -97 195q-21 -14 -45 -14q-28 0 -28 20q0 22 22 22q29 0 46 -7q35 24 57 79t22 112q0 63 -27 102q-30 45 -88 45q-66 0 -118 -78q-2 -1 -4 -1q-10 0 -10 8v2q48 88 129 88q82 0 125 -48q38 -42 38 -111q0 -58 -27.5 -115.5
t-73.5 -93.5q119 -64 119 -206z" />
    <glyph glyph-name="four" unicode="4" horiz-adv-x="386" 
d="M365 11q0 -15 -9 -15q-13 0 -41 4.5t-42 4.5q-16 0 -47.5 -5.5t-47.5 -5.5q-22 0 -22 15q0 25 38 25q24 0 48 -1q0 84 -1 183l-196 3q-30 0 -30 47q0 1 38 52q46 59 72 134q30 82 30 186q0 51 -9 106t-9 54q0 5 2 5q11 0 16 -14q29 -79 29 -178t-34 -192
q-27 -76 -63 -132q-30 -46 -30 -42q0 -5 6 -5q-5 0 178 3q-2 125 -4 362q0 29 17 29q30 0 30 -48q0 -49 -5 -164q-5 -120 -5 -165v-13h37q16 0 16 -12q0 -16 -24 -16h-29q-2 -61 -4 -184q45 -2 85 -7q10 -2 10 -14z" />
    <glyph glyph-name="five" unicode="5" horiz-adv-x="402" 
d="M374 799q0 -5 -3 -10q-49 -89 -129 -89q-34 0 -69 14q-24 9 -45.5 24t-20.5 15q-7 0 -7 -7q0 -3 -13 -167t-13 -166q0 -4 7 -4q-7 0 36.5 20t88.5 20q74 0 119 -69q41 -62 41 -151q0 -94 -46 -161q-50 -74 -136 -74q-69 0 -109 56q-35 49 -35 120q0 61 27.5 105.5
t74.5 44.5q34 0 60 -32q29 -37 29 -99q0 -29 -16 -56q-13 -23 -20 -23q-6 0 -6 9q0 -3 7.5 19.5t7.5 50.5q0 54 -17 85q-16 28 -41 28q-34 0 -54.5 -41t-20.5 -97q0 -63 26 -105q30 -49 83 -49q68 0 110 72q37 64 37 153q0 81 -28 134q-32 61 -90 61q-47 0 -86.5 -28.5
t-41.5 -28.5q-28 0 -28 34q0 5 13 189t13 190q0 17 30 17q5 0 61 -34.5t95 -34.5q57 0 93 67q4 7 9 7q7 0 7 -9z" />
    <glyph glyph-name="six" unicode="6" horiz-adv-x="412" 
d="M380 213q0 -91 -41 -153q-46 -70 -127 -70q-72 0 -120 77q-59 93 -59 273q0 219 84 352q72 114 159 114q47 0 71 -38q22 -33 22 -88q0 -70 -31 -130q-33 -63 -76 -63q-31 0 -49 27.5t-18 72.5q0 34 17 60q13 20 19 20q5 0 5 -5q0 4 -7 -18.5t-7 -52.5q0 -89 39 -89
q32 0 56 58q23 55 23 118q0 115 -71 115q-68 0 -125 -114q-67 -133 -67 -343q0 -39 3 -75q15 70 55 116q44 50 100 50q67 0 108 -67q37 -61 37 -147zM345 214q0 78 -29 133q-32 60 -85 60q-59 0 -100 -72q-37 -64 -42 -145q17 -90 54 -138q33 -40 72 -40q62 0 98 63
q32 57 32 139z" />
    <glyph glyph-name="seven" unicode="7" horiz-adv-x="416" 
d="M411 779q0 -7 -5 -12q-61 -57 -118 -147q-71 -110 -109 -231t-59 -276q-15 -118 -19 -118q-32 0 -32 22q0 37 13 117q21 125 63 245q36 101 100 209q56 95 108 155q-54 -35 -157 -35q-48 0 -107 27q-53 24 -53 34q0 9 7 17t16 8q7 0 68.5 -28.5t112.5 -28.5q52 0 105 28
t54 28q12 0 12 -14z" />
    <glyph glyph-name="eight" unicode="8" horiz-adv-x="406" 
d="M374 151q0 -78 -49 -122q-46 -40 -120 -40q-72 0 -119 38q-50 39 -50 104q0 66 53 127q36 41 88 71q-125 98 -125 252q0 102 53 166q48 59 110 59q57 0 94 -52q41 -58 41 -163q0 -79 -34.5 -147.5t-90.5 -107.5q89 -69 102 -82q47 -48 47 -103zM318 597q0 95 -31 148
q-28 47 -71 47q-49 0 -85 -57q-40 -62 -40 -160q0 -132 118 -227q109 95 109 249zM341 130q0 62 -46 109q-12 12 -101 77q-124 -77 -124 -184q0 -54 37 -90.5t100 -36.5q60 0 97 35.5t37 89.5z" />
    <glyph glyph-name="nine" unicode="9" horiz-adv-x="412" 
d="M379 456q0 -233 -54 -352q-52 -114 -149 -114q-68 0 -105 51q-27 37 -27 76q0 19 13 19q15 0 15 -17q0 -40 25 -74q31 -41 86 -41q71 0 111 114q41 119 41 343q0 38 -2 74q-16 -69 -56 -115q-43 -51 -100 -51q-67 0 -108 67q-37 61 -37 148q0 91 41 152q46 70 127 70
q72 0 121 -77q58 -93 58 -273zM324 606q-17 90 -55 138q-33 41 -71 41q-63 0 -98 -64q-32 -56 -32 -138q0 -79 29 -134q32 -60 84 -60q59 0 101 72q36 64 42 145z" />
    <glyph glyph-name="colon" unicode=":" horiz-adv-x="157" 
d="M119 323q0 -30 -27 -30t-27 30q0 31 27 31t27 -31zM119 12q0 -30 -27 -30t-27 30q0 31 27 31t27 -31z" />
    <glyph glyph-name="semicolon" unicode=";" horiz-adv-x="159" 
d="M119 323q0 -30 -27 -30t-27 30q0 31 27 31t27 -31zM121 13q0 -30 -10.5 -69t-23.5 -59q-3 -4 -6 -4q-6 0 -6 5q0 -1 7.5 19.5t7.5 44.5q0 16 -11.5 34.5t-11.5 27.5q0 31 27 31t27 -30z" />
    <glyph glyph-name="less" unicode="&#x3c;" horiz-adv-x="500" 
d="M427 177l-371 151v41l371 154v-32l-332 -142l332 -139v-33z" />
    <glyph glyph-name="equal" unicode="=" horiz-adv-x="294" 
d="M257 315q0 -14 -9 -14q-14 0 -42.5 4t-42.5 4q-17 0 -49 -5t-49 -5q-22 0 -22 14q0 26 39 26q90 0 164 -10q11 -1 11 -14zM257 232q0 -14 -9 -14q-14 0 -42.5 4t-42.5 4q-17 0 -49 -5t-49 -5q-22 0 -22 14q0 25 39 25q90 0 164 -9q11 -1 11 -14z" />
    <glyph glyph-name="greater" unicode="&#x3e;" horiz-adv-x="500" 
d="M445 328l-371 -153v31l332 142l-332 140v33l371 -152v-41z" />
    <glyph glyph-name="question" unicode="?" horiz-adv-x="431" 
d="M398 619q0 -82 -65 -173q-61 -73 -122 -145q-65 -82 -65 -144q0 -27 18 -49.5l18 -22.5q0 -9 -12 -9q-19 0 -34 28q-12 23 -12 45q0 67 61 153q57 76 114 151q61 94 61 181q0 55 -26 93q-29 44 -82 44q-66 0 -107 -61q-36 -54 -36 -123q0 -80 39 -80q20 0 30 32
q8 23 8 50q0 36 -21 72q1 6 8 6q15 0 27 -35q9 -28 9 -47q0 -33 -14 -61q-19 -34 -49 -34q-36 0 -54 38q-14 30 -14 70q0 78 46 132q49 58 125 58q69 0 111 -50q38 -48 38 -119zM199 15q0 -13 -10.5 -21.5t-24.5 -8.5q-13 0 -23.5 8.5t-10.5 21.5t11 21t23 8q13 0 24 -8
t11 -21z" />
    <glyph glyph-name="at" unicode="@" horiz-adv-x="932" 
d="M914 379q0 -120 -64 -216q-69 -103 -170 -103q-88 0 -98 106q-66 -105 -151 -105q-54 0 -91 41q-41 45 -41 119q0 96 76.5 184t158.5 88q80 0 107 -98l27 87h64l-84 -294q-6 -30 -6 -51q0 -55 45 -55q63 0 126 66q82 84 82 227q0 138 -90 224q-94 89 -254 89
q-178 0 -297 -112q-130 -122 -130 -330q0 -146 95 -245q108 -113 303 -113q170 0 304 100l16 -15q-68 -49 -126 -72q-90 -36 -201 -36q-179 0 -302 92q-143 107 -143 299q0 181 128 313q136 139 342 139q190 0 290 -107q84 -90 84 -222zM619 357q1 47 -21 79q-26 37 -75 37
q-62 0 -116 -116q-47 -99 -47 -165q0 -41 17 -72q21 -37 60 -37q77 0 133 102q47 86 49 172z" />
    <glyph glyph-name="A" unicode="A" horiz-adv-x="628" 
d="M703 -73q0 -15 -21 -15q-107 0 -177 265q-35 5 -77 5q-27 0 -50 -5q-97 -323 -231 -323q-66 0 -103 71q-33 65 -33 165q0 109 48 210q53 109 122 109q40 0 62 -39q19 -36 19 -93q0 -77 -32 -142q-33 -68 -79 -68q-7 0 -7 7q0 8 8 8q30 0 54 48q27 53 27 138
q0 127 -49 127t-91 -92t-42 -208q0 -218 83 -218q46 0 99 73q57 78 104 216q-48 -19 -45 -19q-21 0 -21 14q0 22 76 35q62 195 87 452q4 34 4 84v39q-1 34 -1 53q0 22 6.5 39.5t15.5 17.5q8 0 14.5 -17t6.5 -34q0 -29 -7.5 -89.5t-7.5 -99.5q0 -91 18.5 -221.5t44.5 -228.5
q21 -4 54 -16q46 -17 46 -26q0 -7 -9 -7q-11 0 -32 10q-28 13 -33 14l-20 6q66 -233 161 -233q8 0 8 -12zM500 197q-42 170 -51 325q-27 -188 -65 -322q23 2 48 2q34 0 68 -5z" />
    <glyph glyph-name="B" unicode="B" horiz-adv-x="528" 
d="M506 185q0 -121 -62 -220q-65 -103 -152 -103q-17 0 -32 4q0 -50 -14 -50t-14 59v1q-32 17 -49 52q-15 29 -15 60q0 11 7 11q6 0 6 -10q0 -51 52 -85q7 274 7 319q0 197 -6 342q-3 65 -6 129q0 2 -1 10v13q0 38 17 38q30 0 30 -57q0 -111 -13 -807q16 -4 32 -4
q74 0 127 98q50 94 50 208q0 161 -99 211q-21 -18 -45 -18q-28 0 -28 24q0 26 22 26q29 0 47 -8q57 49 57 160q0 97 -38 153q-35 51 -91 51q-107 0 -179 -155q-64 -137 -64 -291q0 -72 18.5 -117t53.5 -45q25 0 42.5 39t17.5 93q0 49 -12.5 86t-12.5 30q0 8 9 8t24 -30
q19 -40 19 -100q0 -68 -28 -106q-25 -33 -60 -33q-52 0 -80 56q-26 52 -26 138q0 158 73 292q83 151 208 151q71 0 117 -55q49 -59 49 -160q0 -108 -75 -178q117 -67 117 -230z" />
    <glyph glyph-name="C" unicode="C" horiz-adv-x="383" 
d="M378 182q0 -78 -28 -178q-47 -172 -148 -172q-78 0 -128 103q-58 117 -58 335q0 251 65 396q60 132 152 132q52 0 85 -69q37 -76 37 -209q0 -153 -44 -280q-49 -141 -121 -141q-34 0 -59 34q-29 38 -29 105q0 61 20 101q15 30 24 30q8 0 8 -9q0 7 -12 -29.5t-12 -86.5
q0 -54 17 -92.5t42 -38.5q50 0 90 117q41 124 41 301q0 129 -19 186q-19 61 -65 61q-70 0 -124 -136q-58 -149 -58 -379q0 -401 146 -401q100 0 161 303q6 29 12 29q5 0 5 -12z" />
    <glyph glyph-name="D" unicode="D" horiz-adv-x="518" 
d="M506 362q0 -196 -60 -342q-64 -158 -164 -158q-16 0 -31 4v-14q0 -22 -1 -26q-2 -10 -13 -10t-13 12q-2 6 -1 34v14q-32 17 -50 52q-14 29 -14 60q0 11 7 11q5 0 5 -10q0 -51 52 -85q8 274 8 319q0 197 -7 342q-3 65 -6 129v21q0 40 17 40q29 0 29 -57q0 16 -4 -135
q-5 -145 -5 -338v-112q0 -16 -4 -222q16 -4 33 -4q78 0 131 157q49 147 49 338q0 207 -60 316q-52 95 -134 95q-86 0 -154 -95q-71 -101 -71 -244q0 -60 18.5 -99t51.5 -39q25 0 42 39t17 93q0 49 -12 86t-12 30q0 9 8 9q9 0 24 -30q20 -41 20 -101q0 -67 -29 -106
q-25 -33 -59 -33q-49 0 -77 49q-27 46 -27 118q0 145 80 244q76 94 174 94q101 0 166 -103q76 -120 76 -343z" />
    <glyph glyph-name="E" unicode="E" horiz-adv-x="372" 
d="M365 26q0 -81 -45.5 -131.5t-127.5 -50.5q-68 0 -120 50q-59 57 -59 152q0 84 65 147q47 47 96 60q-145 81 -145 256q0 123 70 214q66 84 141 84q59 0 91 -52q28 -46 28 -119q0 -87 -35.5 -161t-84.5 -74q-31 0 -55 34.5t-24 89.5q0 45 18 79q13 26 20 26t7 -7
q0 6 -9 -23.5t-9 -69.5q0 -46 15 -79t36 -33q37 0 63 67q24 64 24 144q0 70 -21 114q-24 50 -70 50q-59 0 -112 -76q-56 -82 -56 -190q0 -110 60 -185q53 -66 109 -66q17 0 32 2t18 2q17 0 17 -15q0 -7 -9 -16t-18 -9h-13q-10 1 -19 1q-85 0 -139 -60q-50 -56 -50 -135
q0 -77 42 -130.5t104 -53.5t97 47t35 118q0 51 -19 89q-16 32 -28 32q-6 0 -6 7q0 8 9 8q21 0 48 -42q29 -46 29 -95z" />
    <glyph glyph-name="F" unicode="F" horiz-adv-x="468" 
d="M491 293q0 -9 -9 -9q-2 0 -26.5 21.5t-62.5 26.5q-29 -243 -95 -368q-57 -108 -127 -108q-64 0 -110 84q-47 88 -47 215q0 118 40 190q36 65 85 65q40 0 67 -48q30 -53 30 -148q0 -44 -13 -83q-11 -35 -19 -35q-7 0 -7 13q0 -4 9 29.5t9 76.5q0 80 -21 127q-20 42 -50 42
q-37 0 -64 -61q-30 -68 -30 -182q0 -116 33.5 -183.5t82.5 -67.5q63 0 117 106q62 121 84 337q-27 -2 -55 -22.5t-27 -20.5q-13 0 -13 23q0 14 30 28.5t67 15.5q12 127 12 291q0 45 -2 105q-24 -33 -58 -59q-54 -43 -107 -43q-72 0 -131 51q-42 36 -65 84q-3 4 -3 8
q0 13 11 13q3 0 4 -3q27 -56 74 -87q43 -28 92 -28q56 0 106.5 34t74.5 91q14 32 21 32q29 0 29 -16q0 -6 -16 -31q3 -42 3 -78q0 -202 -18 -366q58 -9 93 -56q2 -3 2 -6z" />
    <glyph glyph-name="G" unicode="G" horiz-adv-x="408" 
d="M386 -52q0 -72 -53 -114t-136 -42q-59 0 -96 28q-42 32 -42 90q0 22 10 49q8 21 15 27q4 4 10 4q8 0 8 -6v-2q-23 -30 -23 -71q0 -43 38 -71q35 -26 84 -26q58 0 98 36q46 42 46 117q0 45 -24 166q-49 -68 -121 -68q-91 0 -141 101q-45 90 -45 229q0 159 55 278
q60 130 155 130q55 0 90 -54q39 -59 39 -163q0 -116 -44 -216q-49 -111 -120 -111q-34 0 -60 30q-29 32 -29 84q0 45 20 76q15 23 24 23q8 0 8 -7q0 6 -12 -22t-12 -66q0 -41 17 -70.5t42 -29.5q51 0 90 90q41 94 41 228q0 95 -25 145q-22 46 -59 46q-78 0 -132 -136
q-51 -126 -51 -281q0 -121 35 -197q39 -84 112 -84q70 0 117 75q-7 42 -7 67q0 53 13.5 92.5t31.5 39.5q23 0 23 -56q0 -79 -41 -151q3 -13 32 -107q19 -62 19 -100zM359 306q0 15 -7 15q-9 0 -17.5 -27t-8.5 -63q0 -20 3 -43q30 62 30 118z" />
    <glyph glyph-name="H" unicode="H" horiz-adv-x="505" 
d="M525 773q0 -8 -9 -16.5t-12 -15.5q-14 -28 -30 -122q-23 -134 -25 -298q37 -17 48 -51q1 -2 1 -4q0 -7 -4 -7q-7 0 -10 8q-9 22 -35 34q0 -357 45 -436q2 -4 2 -8q0 -7 -8 -7q-5 0 -8 5q-66 131 -66 453v1h-4q-51 1 -98 -68q-9 -159 -36.5 -277t-53.5 -118t-26 78
q0 150 74 289q3 80 3 163q0 191 -37 303q-33 101 -81 101q-44 0 -74 -85q-33 -94 -33 -253q0 -107 21 -177q24 -78 66 -78q25 0 42 39t17 93q0 49 -12 86t-12 30q0 8 9 8q8 0 23 -30q20 -40 20 -100q0 -68 -29 -106q-25 -33 -59 -33q-58 0 -94 84q-33 79 -33 192
q0 161 47 261q42 91 100 91q63 0 109 -109q53 -125 53 -338q0 -38 -2 -77q45 53 91 53q5 0 9 -1q2 197 33 344q26 126 48 126q30 0 30 -27zM267 153q-52 -129 -52 -252q0 -20 9 -20q28 0 43 272z" />
    <glyph glyph-name="I" unicode="I" horiz-adv-x="355" 
d="M349 432q0 -205 -54 -348q-63 -166 -176 -166q-40 0 -65.5 24t-25.5 50q0 15 19 15q14 0 14 -13q0 -24 15 -41q18 -21 50 -21q90 0 139 164q43 141 43 342q0 152 -30 248q-33 107 -93 107q-56 0 -89 -80q-31 -74 -31 -186q0 -96 30 -160q27 -58 61 -58q26 0 44 36
q21 41 21 114q0 45 -13 83t-33 52q-4 3 -4 7q0 7 7 7q3 0 7 -2q30 -17 47.5 -58.5t17.5 -89.5q0 -76 -30 -121q-27 -40 -65 -40q-48 0 -88 61q-44 68 -44 168q0 121 45.5 201t113.5 80q80 0 126 -114q41 -103 41 -261z" />
    <glyph glyph-name="J" unicode="J" horiz-adv-x="331" 
d="M325 113q0 -5 -4 -5q-3 0 -5 2q-18 15 -43 21q-69 -289 -214 -289q-37 0 -59 24t-22 58q0 88 93 159q85 66 170 66h7q28 133 28 274q0 155 -28 259q-30 111 -80 111q-56 0 -89 -94q-30 -87 -30 -217q0 -112 29 -187q27 -68 61 -68q27 0 45 42q21 48 21 134q0 51 -13 96
t-34 61q-4 3 -4 8q0 9 8 9q3 0 6 -2q31 -21 48.5 -69.5t17.5 -104.5q0 -89 -30 -142q-27 -47 -65 -47q-48 0 -86 72q-42 79 -42 197q0 147 43 237.5t111 90.5q69 0 108 -106q35 -96 35 -249q0 -164 -32 -309q12 -3 30.5 -13t18.5 -19zM245 134v0q-79 0 -156 -68
q-79 -71 -79 -150q0 -26 17 -41.5t39 -15.5q60 0 109 80q43 72 70 195z" />
    <glyph glyph-name="K" unicode="K" horiz-adv-x="515" 
d="M574 -160l-1 -6q-24 -7 -45 -7q-79 0 -100 100q-9 92 -19 184q-16 99 -82 99q-5 0 -18 -2q-11 -139 -45 -271q-5 -25 -20 -72q-3 -8 -9 -8q-9 0 -9 12q0 4 2 12q45 139 45 495q0 116 -19 226q-31 178 -99 178q-107 0 -107 -338q0 -79 14 -146q22 -109 73 -109q31 0 47 54
q12 38 12 78q0 42 -9 78q-8 18 -15 38q0 8 9 8q1 0 7 -5q36 -39 36 -125q0 -50 -19 -89q-24 -50 -69 -50q-69 0 -103 111q-24 77 -24 165q0 125 28 220q39 132 119 132q90 0 133 -189q29 -125 29 -258q0 -59 -4 -117l7 -1q109 16 143 246q15 100 15 308q0 17 11 17
q8 0 18 -8.5t10 -15.5q0 -151 -30 -302q-42 -212 -124 -258q67 -23 84 -123q9 -85 17 -170q15 -86 80 -86q13 0 27 4q4 -4 4 -9z" />
    <glyph glyph-name="L" unicode="L" horiz-adv-x="340" 
d="M393 -68q0 -2 -1 -5q-7 -21 -29 -43q-33 -32 -76 -32q-40 0 -87 47q-36 43 -72 85q-12 -116 -62 -116q-23 0 -39 23t-16 60q0 39 18 63.5t43 24.5q13 0 27 -7q-2 52 -14 158q-11 94 -11 165q0 214 46 338q40 107 96 107q46 0 76 -71q34 -78 34 -206q0 -100 -29 -157
q-25 -49 -61 -49q-30 0 -52 37.5t-22 102.5q0 60 20 100q14 30 23 30t9 -8q0 7 -12.5 -30t-12.5 -86q0 -61 13.5 -97t31.5 -36q22 0 37 44q18 50 18 137q0 128 -23 204q-21 69 -51 69q-38 0 -67 -103q-31 -116 -31 -305q0 -69 8 -171.5t8 -132.5q0 -34 -2 -63q39 -38 78 -75
q51 -43 95 -43q26 0 50 15q20 13 26 27q2 5 8 5q5 0 5 -6zM99 -12v24q-13 9 -25 9q-34 0 -34 -72q0 -26 9 -44.5t21 -18.5q29 0 29 102z" />
    <glyph glyph-name="M" unicode="M" horiz-adv-x="672" 
d="M833 -46q0 -33 -21 -66q-28 -42 -73 -42q-70 0 -108 103q-30 83 -30 195q0 26 1 71v60q0 36 -2 36q-1 0 -25.5 -159.5t-36.5 -159.5q-20 0 -38 265q-26 -156 -86 -265q-74 -134 -172 -134q-94 0 -158 98q-68 104 -68 276q0 130 57 216q55 81 132 81q57 0 94.5 -54
t37.5 -143q0 -46 -12 -83q-10 -33 -19 -33q-8 0 -8 13q0 -4 10 27t10 72q0 76 -30 126t-78 50q-61 0 -104 -74q-47 -82 -47 -220q0 -136 39 -223q43 -94 118 -94q116 0 199 166q77 154 77 340q0 82 -6 170.5t-6 145.5q0 209 32 209q27 0 27 -137q0 -194 -24 -427
q17 -281 23 -281q5 0 33.5 169.5t28.5 193.5q0 44 14 205q16 178 26 178q15 0 15 -77q0 -32 -3 -70q-9 -73 -18 -147q-13 -121 -13 -255q0 -178 31 -287q33 -112 87 -112q30 0 51 23q14 15 24 42q8 22 9 22q10 0 10 -10z" />
    <glyph glyph-name="N" unicode="N" horiz-adv-x="704" 
d="M867 748q0 -10 -11 -10q-9 0 -9 8q0 40 -21 66.5t-50 26.5q-50 0 -82 -62q-37 -73 -37 -214q0 -74 12 -222t12 -203q0 -146 -51 -146q-36 0 -78 129q-39 120 -46 227q-28 -210 -94 -342q-74 -148 -175 -148q-94 0 -158 98q-68 104 -68 276q0 130 57 216q55 81 132 81
q57 0 94.5 -54t37.5 -143q0 -46 -12 -83q-10 -33 -19 -33q-8 0 -8 13q0 -4 10 27t10 72q0 76 -30 126t-78 50q-61 0 -104 -74q-47 -82 -47 -220q0 -136 39 -223q43 -94 118 -94q120 0 199 181q77 178 77 447q0 56 -3 117.5t-3 68.5q0 137 26 137q27 0 27 -137
q0 -107 -13 -234q7 -119 38 -266q39 -179 78 -179q22 0 22 65q0 41 -19.5 206.5t-19.5 258.5q0 151 49 232q41 67 101 67q40 0 68.5 -31t28.5 -78z" />
    <glyph glyph-name="O" unicode="O" horiz-adv-x="418" 
d="M409 355q0 -195 -48 -339q-53 -156 -136 -156q-102 0 -160 149q-50 128 -50 303q0 125 27 201q3 8 10 8q4 0 4 -6q0 -2 -1 -5.5t-2 -6.5q-8 -58 -8 -142q0 -177 35 -303q45 -157 131 -157q75 0 122 151q44 137 44 324q0 169 -38 279q-41 124 -116 124q-48 0 -80 -64
q-35 -70 -35 -191q0 -129 30 -229q34 -108 84 -108q25 0 42 39t17 93q0 49 -12 86t-12 30q0 8 9 8t23 -30q20 -40 20 -100q0 -68 -28 -106q-25 -33 -60 -33q-66 0 -108 107q-38 98 -38 231q0 121 35 198q39 88 111 88q92 0 143 -137q45 -121 45 -306z" />
    <glyph glyph-name="P" unicode="P" horiz-adv-x="561" 
d="M557 509q0 -125 -61 -221q-65 -101 -161 -101q-23 0 -44 7q-2 -339 -77 -339q-12 0 -23 7t-11 13q0 13 15 13q5 0 8.5 -6.5t6.5 -6.5q44 0 44 237q0 41 -1 105q-41 38 -41 95q0 12 7 12q5 0 5 -11q0 -34 28 -64q-2 129 -2 182q0 334 74 334q10 0 10 -10t-16 -10
q-30 0 -30 -198q0 -46 2 -154.5t2 -167.5v-5q21 -9 45 -9q75 0 129 100q51 95 51 214q0 128 -63 201q-57 65 -143 65q-103 0 -179 -87q-84 -96 -84 -253q0 -59 18 -97t52 -38q25 0 42 39t17 93q0 49 -12 86t-12 30q0 9 8 9q9 0 24 -30q20 -41 20 -101q0 -67 -29 -106
q-25 -33 -60 -33q-48 0 -75 48q-26 45 -26 116q0 158 92 253q83 86 199 86q104 0 174 -73q77 -81 77 -224z" />
    <glyph glyph-name="Q" unicode="Q" horiz-adv-x="440" 
d="M440 355q0 -281 -99 -423l84 -138q0 -12 -10 -12q-3 0 -7 4l-84 123q-46 -52 -98 -52q-91 0 -139 94q-35 66 -35 136q0 13 11 13q4 0 7 -11q16 -68 52 -131q50 -85 105 -85q45 0 83 56q-9 14 -19 27q-26 29 -72 91q-5 7 -5 15q0 18 23 18q15 0 24 -15q17 -30 65 -108
q70 135 70 419q0 198 -50 309q-45 97 -112 97q-69 0 -120 -97q-56 -107 -56 -275q0 -125 30 -209q33 -92 88 -92q25 0 42.5 39t17.5 93q0 49 -12.5 86t-12.5 30q0 8 9 8t23 -29q20 -41 20 -101q0 -67 -28 -106q-25 -33 -60 -33q-73 0 -118 93q-42 87 -42 213q0 177 69 291
q65 106 152 106q85 0 140 -106q64 -120 64 -338z" />
    <glyph glyph-name="R" unicode="R" horiz-adv-x="456" 
d="M538 -108q0 -6 -6 -6q-85 0 -133 50q-37 40 -58 120q-15 70 -30 139q-24 -8 -51 -8q-12 0 -23 2q-1 -41 -3 -154q-1 -97 -1 -155q0 -18 -14 -18q-11 0 -11 14q0 57 2 160q2 112 2 160q-63 26 -63 91q0 27 16 49.5t42 22.5h1h4q-1 91 -4 168q-8 212 -8 196q0 32 17 32
q29 0 29 -57q0 -33 -2 -85q-3 -71 -4 -85q-2 -80 -3 -173q55 -18 91 -117q50 39 74 135q17 69 17 152q0 135 -54 210q-48 67 -122 67q-80 0 -138 -75q-65 -82 -65 -212q0 -127 53 -127q26 0 40 56q9 40 9 79q0 45 -8 78q-1 2 -6.5 19.5t-5.5 18.5q0 6 4 6h1q38 -24 38 -128
q0 -48 -14 -86q-20 -53 -59 -53q-45 0 -69 56q-18 43 -18 94q0 128 77 211q70 77 165 77q91 0 150 -74q67 -82 67 -233q0 -85 -29 -166q-35 -96 -97 -134l42 -140q26 -80 56 -119q39 -50 96 -50q6 0 6 -8zM304 223q-26 100 -67 117v-126q8 -2 17 -2q27 0 50 11zM212 229v115
q-46 -1 -46 -49q0 -51 46 -73v7z" />
    <glyph glyph-name="S" unicode="S" horiz-adv-x="406" 
d="M393 49q0 -89 -61 -141q-55 -46 -134 -46q-83 0 -136 42q-56 45 -56 120q0 52 33 93q29 37 57 37q12 0 12 -8t-8 -8q-15 0 -35 -28q-24 -35 -24 -85q0 -63 43 -104t116 -41q65 0 111 43.5t46 101.5q0 88 -82 156q-77 60 -153 119q-83 84 -83 209q0 104 60 199
q64 101 147 101q132 0 132 -183q0 -97 -44 -181q-49 -93 -120 -93q-34 0 -60 26q-29 28 -29 71q0 38 20 63q15 19 24 19q8 0 8 -5q0 4 -12 -19t-12 -54q0 -34 17 -58.5t42 -24.5q51 0 90 74q41 78 41 189q0 159 -93 159q-68 0 -119 -83q-54 -86 -54 -208q0 -100 82 -179
l152 -120q82 -71 82 -153z" />
    <glyph glyph-name="T" unicode="T" horiz-adv-x="452" 
d="M426 830q0 -8 -15 -31q11 -108 11 -205q0 -236 -30 -420q-54 -318 -185 -318q-77 0 -126 105q-44 94 -44 219q0 109 36 173q33 58 79 58q44 0 74 -52q33 -57 33 -155q0 -20 -7 -59q-9 -49 -21 -49q-7 0 -7 13q0 4 7 34.5t7 49.5q0 91 -24 144q-21 48 -53 48
q-34 0 -58 -55q-27 -60 -27 -163q0 -111 32 -195q36 -97 96 -97q114 0 160 287q25 160 25 374q0 101 -8 217q-69 -102 -168 -102q-56 0 -111.5 39.5t-83.5 95.5q-2 5 -2 8q0 12 10 13l4 -3q27 -51 70 -82q47 -33 101 -33q59 0 107 35q44 33 69 90q13 32 22 32q27 0 27 -16z
" />
    <glyph glyph-name="U" unicode="U" horiz-adv-x="508" 
d="M599 -53q0 -26 -17 -52q-22 -33 -58 -33q-72 0 -89 172q-29 -187 -107 -187q-51 0 -76 73q-20 57 -20 141q0 110 18.5 255.5t18.5 275.5q0 98 -28 154q-25 51 -64 51q-50 0 -87 -79q-42 -89 -42 -236q0 -112 30 -187q27 -68 61 -68q26 0 44 42q21 48 21 134q0 51 -13 96
t-33 61q-4 3 -4 8q0 9 7 9q3 0 7 -2q30 -21 47.5 -69.5t17.5 -104.5q0 -89 -30 -142q-27 -47 -65 -47q-47 0 -85 72q-42 79 -42 197q0 155 52 249q47 83 111 83q53 0 88 -60q39 -67 39 -182q0 -105 -17 -265t-17 -269q0 -57 15 -106q18 -61 50 -61q69 0 99 287q0 77 -6 312
q-5 208 -5 296q0 38 22 38q18 0 18 -57q0 -126 -2 -196v-349q0 -155 20 -239q17 -76 46 -76q24 0 40 18q11 12 19 33l7 18q9 0 9 -8z" />
    <glyph glyph-name="V" unicode="V" horiz-adv-x="508" 
d="M591 794q0 -1 -15 -4q-20 -4 -36 -15q-24 -18 -42 -53q-53 -101 -53 -336v-82v-81q0 -182 -11 -251q-18 -109 -75 -109q-84 0 -84 214q0 56 2.5 179t2.5 184q0 176 -19 262q-24 111 -84 111q-50 0 -87 -79q-42 -89 -42 -236q0 -112 30 -187q27 -68 61 -68q26 0 44 42
q21 48 21 134q0 51 -13 96t-33 61q-4 3 -4 8q0 9 7 9q3 0 7 -2q30 -21 47.5 -69.5t17.5 -105.5q0 -88 -30 -141q-27 -47 -65 -47q-47 0 -85 72q-42 79 -42 197q0 155 52 249q47 83 111 83q83 0 116 -119q25 -92 25 -289q0 -58 -3 -182t-3 -186q0 -167 50 -167q63 0 63 244
q0 47 -4.5 152t-4.5 156q0 367 165 367q13 0 13 -11z" />
    <glyph glyph-name="W" unicode="W" horiz-adv-x="660" 
d="M717 821q0 -6 -8 -6q-56 0 -82 -77q-30 -87 -30 -287q0 -60 2 -167t2 -151q0 -146 -17 -205q-16 -52 -52 -52q-47 0 -68 93q-13 57 -20 192l-3 1q-8 -130 -20 -192q-19 -100 -57 -100q-39 0 -55 77q-14 66 -14 207q0 37 3.5 119t3.5 124q0 198 -21 294q-28 129 -100 129
q-50 0 -87 -79q-42 -89 -42 -236q0 -112 30 -187q27 -68 61 -68q26 0 44 42q21 48 21 134q0 51 -13 96t-33 61q-4 3 -4 8q0 9 7 9q3 0 7 -2q30 -21 47.5 -69.5t17.5 -104.5q0 -89 -30 -142q-27 -47 -65 -47q-47 0 -85 72q-42 79 -42 197q0 155 52 249q47 83 111 83
q90 0 126 -131q28 -100 28 -296q0 -353 5 -428q4 -88 27 -88q37 0 57 210q13 149 13 308q0 56 -3 117t-3 67v16q0 90 20 90q17 0 17 -106q0 -119 -7 -234q5 -137 20 -264q25 -200 62 -200q15 0 25.5 33t10.5 88q0 41 -5 186t-5 242q0 385 137 385q14 0 14 -10z" />
    <glyph glyph-name="X" unicode="X" horiz-adv-x="498" 
d="M618 -110q0 -13 -10 -24t-23 -11q-81 0 -139 120q-43 90 -82 275q-138 -396 -211 -396q-14 0 -23.5 11t-9.5 24q0 10 13 10q10 0 11 -10.5t9 -10.5q32 0 87 139q29 74 108 312q-51 259 -70 322q-43 146 -102 146q-50 0 -87 -79q-42 -89 -42 -236q0 -112 30 -187
q27 -68 61 -68q26 0 44 42q21 48 21 134q0 51 -13 96t-33 61q-4 3 -4 8q0 9 7 9q3 0 7 -2q30 -21 47.5 -69.5t17.5 -104.5q0 -89 -30 -142q-27 -47 -65 -47q-47 0 -85 72q-42 79 -42 197q0 155 52 249q47 83 111 83q72 0 123 -124q37 -88 77 -284q67 199 110 292
q60 129 103 129q17 0 17 -11q0 -13 -12 -13q-1 0 -4.5 1t-5.5 1q-25 0 -80 -149q-8 -21 -112 -329q46 -227 76 -313q50 -140 120 -140q8 0 9 14t11 14q13 0 13 -11z" />
    <glyph glyph-name="Y" unicode="Y" horiz-adv-x="529" 
d="M500 -25q0 -74 -54.5 -128.5t-135.5 -54.5q-59 0 -96 28q-42 32 -42 90q0 22 11 49q8 21 15 27q4 4 10 4q8 0 8 -6v-2q-23 -30 -23 -71q0 -43 36.5 -70t85.5 -27q144 0 144 175q0 76 -16 239q-33 -158 -117 -158q-80 0 -80 154q0 57 14 194t14 198q0 187 -86 187
q-56 0 -97 -83q-44 -91 -44 -238q0 -112 29 -187q27 -68 61 -68q26 0 45 42q21 48 21 134q0 51 -13.5 96t-33.5 61q-4 3 -4 8q0 9 7 9q3 0 7 -2q31 -21 48.5 -69.5t17.5 -104.5q0 -89 -31 -142q-26 -47 -64 -47q-48 0 -86 72q-42 79 -42 197q0 154 55 249q49 87 119 87
q126 0 126 -246q0 -67 -12 -199t-12 -178q0 -107 45 -107q41 0 73 76q29 70 30 144v28q0 66 -7.5 184t-7.5 174q0 29 22 29q18 0 18 -43v-76q-1 -50 -1 -75q0 -108 21.5 -270.5t21.5 -282.5z" />
    <glyph glyph-name="Z" unicode="Z" horiz-adv-x="355" 
d="M366 71q0 -5 -4 -5q-3 0 -5 2q-20 17 -45 22q4 -20 4 -43q0 -95 -61 -169q-64 -78 -155 -78q-37 0 -59 24t-22 59q0 80 84 149q78 65 164 74q-14 51 -51 84q-48 -31 -108 -31q-26 0 -45.5 12.5t-19.5 26.5q0 20 23 31.5t58 11.5q46 0 89 -21q44 48 68 136q23 81 23 173
q0 110 -31 184q-33 80 -89 80t-89 -80q-30 -74 -30 -186q0 -96 30 -160q27 -58 61 -58q26 0 44 36q21 41 21 114q0 45 -13 83t-34 52q-3 3 -3 7q0 7 7 7q3 0 6 -2q31 -17 48.5 -58.5t17.5 -89.5q0 -76 -30 -121q-27 -40 -65 -40q-48 0 -88 61q-44 68 -44 168q0 121 45 201
t113 80q75 0 121 -94q43 -86 43 -209q0 -91 -26 -168q-28 -84 -82 -130q55 -37 72 -101q14 -2 33 -12q24 -11 24 -22zM196 204q-35 23 -73 23q-48 0 -48 -31q0 -23 37 -23q47 0 84 31zM275 45q0 25 -4 47q-77 -8 -148.5 -78.5t-71.5 -138.5q0 -27 17 -44t39 -17q73 0 122 74
q46 68 46 157z" />
    <glyph glyph-name="bracketleft" unicode="[" horiz-adv-x="255" 
d="M192 -125h-144v863h144v-21h-57q-25 0 -34 -9.5t-9 -35.5v-729q0 -47 41 -47h59v-21z" />
    <glyph glyph-name="backslash" unicode="\" horiz-adv-x="169" 
d="M611 -73q0 1 -2 -7q-5 -29 -46 -68q-61 -58 -155 -58q-165 0 -242 116q-64 95 -64 259q0 80 16 169l-2 -1q-16 -38 -38 -136.5t-22 -126.5q0 -15 -1 -43v-28q0 -15 -9 -15q-13 0 -13 19v89q-1 70 -1 101q0 209 25 209q10 0 10 -51q0 -14 -7 -76q-6 -66 -7 -96l2 1
q10 57 36 138q33 103 56 103q5 0 12.5 -7t7.5 -14q0 11 -17.5 -72.5t-17.5 -189.5q0 -161 76 -246q73 -82 204 -82q87 0 140 50q35 32 43 66q3 8 9 8q7 0 7 -11z" />
    <glyph glyph-name="bracketright" unicode="]" horiz-adv-x="254" 
d="M202 -150h-144v21h59q41 0 41 47v729q0 26 -9 35.5t-34 9.5h-57v21h144v-863z" />
    <glyph glyph-name="asciicircum" unicode="^" horiz-adv-x="665" 
d="M632 522h-68l-231 220l-232 -220h-65l258 277h80z" />
    <glyph glyph-name="underscore" unicode="_" horiz-adv-x="384" 
d="M385 -73h-385v35h385v-35z" />
    <glyph glyph-name="grave" unicode="`" horiz-adv-x="149" 
d="M128 676q0 -8 -7 -8q-9 0 -51 46.5t-42 59.5q0 16 15 16q13 0 49 -52t36 -62z" />
    <glyph glyph-name="a" unicode="a" 
d="M260 157q0 -27 -24 -83q-28 -66 -55 -66q-40 0 -45 70h-2q-45 -96 -82 -96q-39 0 -39 79q0 73 47 139q44 63 91 68q3 32 3 38q0 51 -32 51q-18 0 -34 -23t-16 -53q0 -22 -13 -22q-15 0 -15 22q0 27 24.5 58.5t53.5 31.5q57 0 57 -81q0 -32 -7 -97.5t-7 -93.5
q0 -54 18 -54q19 0 39 45q18 38 20 64q1 11 9 11q9 0 9 -8zM150 249q-40 -6 -75 -60t-35 -111q0 -43 25 -43q22 0 52 52.5t30 87.5q0 30 3 74z" />
    <glyph glyph-name="b" unicode="b" horiz-adv-x="259" 
d="M310 151q0 -43 -25 -79q-28 -38 -70 -38q-11 0 -22 2q-23 -44 -69 -44q-44 0 -67 56q5 -50 5 -49q0 -11 -5 -11q-22 0 -22 19l1 296q0 238 4 313q7 141 31 141q9 0 9 -52q0 -67 -11.5 -219.5t-11.5 -187.5q0 -15 -1 -67t-1 -86q0 -41 15 -80q21 -51 57 -51q29 0 44 30
q-44 21 -70 78q-24 54 -24 116q0 61 22.5 104.5t57.5 43.5q29 0 51 -50q24 -53 24 -135q0 -87 -30 -148q7 -1 13 -1q56 0 75 82q6 25 11 25q9 0 9 -8zM204 192q0 64 -15.5 109.5t-39.5 45.5q-22 0 -37.5 -30.5t-15.5 -75.5q0 -60 22 -108q22 -52 62 -72q24 55 24 131z" />
    <glyph glyph-name="c" unicode="c" horiz-adv-x="228" 
d="M275 132q0 -47 -40.5 -90t-87.5 -43q-64 0 -97 40q-28 35 -28 93q0 71 37.5 133.5t85.5 62.5q27 0 44 -26q14 -24 14 -59q0 -34 -15.5 -59t-43.5 -25q-9 0 -9 7t10 7q14 0 23 23t9 53q0 65 -34 65q-35 0 -61.5 -56.5t-26.5 -120.5q0 -120 87 -120q48 0 81 41q26 30 36 72
q3 15 10 15q6 0 6 -13z" />
    <glyph glyph-name="d" unicode="d" horiz-adv-x="261" 
d="M313 157q0 -38 -29 -94q-32 -63 -65 -63q-47 0 -62 106q-1 -7 -2 -11q-27 -85 -70 -85q-55 0 -55 111q0 92 36 183t73 91q9 0 19 -11q18 231 29 231q15 0 15 -20q0 2 -5 -49q-6 -60 -9 -135q-5 -109 -5 -247q0 -134 41 -134q24 0 51 56q21 42 21 68q0 11 9 11q8 0 8 -8z
M155 339q-5 30 -21 30q-23 0 -46 -66q-24 -71 -24 -160q0 -87 34 -87q19 0 36 36.5t17 74.5v15v16q0 68 4 141z" />
    <glyph glyph-name="e" unicode="e" horiz-adv-x="190" 
d="M237 132q0 -43 -37.5 -88t-80.5 -45q-48 0 -75 32q-25 28 -25 71q0 35 21.5 65t56.5 41q-15 14 -29 39q-24 43 -24 88q0 27 14.5 42.5t36.5 15.5q27 0 47 -25q17 -21 17 -38q0 -11 -10 -11q-1 0 -10 22t-32 22q-31 0 -31 -45q0 -36 18.5 -72.5t41.5 -36.5q15 0 15 -12
q0 -11 -22 -11q-39 0 -62.5 -29.5t-23.5 -65.5q0 -66 61 -66q42 0 77 36q31 32 39 69q4 15 11 15q6 0 6 -13z" />
    <glyph glyph-name="f" unicode="f" horiz-adv-x="139" 
d="M192 151q0 1 -1 -4q-9 -40 -17 -59q-18 -42 -52 -54v-1q0 -82 -14.5 -153t-33.5 -71q-33 0 -37 245q-36 39 -36 111q0 76 35 106v32q0 161 18 330q15 155 29 155q10 0 10 -51q0 -79 -16 -228q-15 -155 -16 -229q58 0 61 -225q36 19 52 95q2 12 9 12q9 0 9 -11zM99 49
q0 68 -5 112q-9 88 -34 92q-1 -39 -1 -47q0 -72 2 -148q14 -10 32 -10q3 0 6 1zM36 89v149q-14 -25 -14 -71t14 -78zM99 29h-7q-17 0 -31 6q6 -168 16 -168q8 0 15 47.5t7 114.5z" />
    <glyph glyph-name="g" unicode="g" horiz-adv-x="198" 
d="M194 339q0 -1 -9.5 -79.5t-9.5 -118.5q0 -48 3 -103.5t3 -88.5q0 -123 -37 -186q-30 -54 -79 -54q-44 0 -76 35q-34 39 -34 102q0 65 16 65q6 0 6 -7q0 2 -2.5 -12.5t-2.5 -38.5q0 -55 26 -90t60 -35q42 0 69 61q32 74 32 220q0 70 -6 86q-5 -25 -22 -51q-22 -34 -47 -34
q-55 0 -55 111q0 92 35.5 183t73.5 91q13 0 24 -16q2 7 4.5 14.5t11.5 7.5q10 0 13 -12t3 -50zM155 330q-2 39 -22 39q-24 0 -46 -66q-24 -71 -24 -160q0 -87 33 -87q27 0 43 58q16 53 16 132q0 88 0 84z" />
    <glyph glyph-name="h" unicode="h" horiz-adv-x="177" 
d="M222 120q0 2 -1 -6q-4 -23 -26 -63q-28 -51 -53 -51q-20 0 -31 52q-9 41 -9 88q0 13 1 22h-3q-8 -26 -21 -110q-10 -64 -19 -64q-6 0 -16 6t-10 13q0 -13 0 90q1 103 1 206q0 202 13 370q15 195 40 195q10 0 10 -51q0 -68 -21.5 -276t-21.5 -243q0 -17 -1 -89t-1 -105
q0 -23 1 -29l2 1q54 317 92 317q12 0 12 -11q0 10 -19 -75.5t-19 -157.5q0 -117 24 -117q17 0 38 38q17 29 23 53q2 9 9 9q6 0 6 -12z" />
    <glyph glyph-name="i" unicode="i" horiz-adv-x="123" 
d="M194 551q-1 -13 -101 -76q24 -27 49 -65l-1 -1q-9 1 -55 45q-4 -40 -7 -68q-7 -56 -12 -60q-6 15 -2 132q-24 -14 -41 -23q-33 -17 -43 -17h-1q1 11 80 62q-89 91 -90 108l2 1q16 -1 95 -86q13 238 30 252q4 -10 4 -50q0 -57 -11 -206q84 52 103 53zM175 157
q0 -31 -27 -90q-30 -67 -59 -67q-56 0 -56 129q0 31 8 90q10 76 24 76q9 0 9 -10q0 -1 -7 -50q-9 -56 -9 -108q0 -82 41 -82q19 0 40 45q19 41 19 64q0 11 9 11q8 0 8 -8z" />
    <glyph glyph-name="j" unicode="j" horiz-adv-x="88" 
d="M78 488q0 -44 -25 -44t-25 44t25 44t25 -44zM69 312q0 -15 -5.5 -76.5t-5.5 -94.5q0 -48 3.5 -103.5t3.5 -88.5q0 -137 -127 -137q-29 0 -29 17q0 10 8 18t18 8q6 0 13 -4.5t13 -4.5q49 0 67 42q15 34 15 121q0 52 -4.5 131t-4.5 106q0 144 19 144q16 0 16 -78z" />
    <glyph glyph-name="k" unicode="k" horiz-adv-x="189" 
d="M243 157q0 -26 -26 -87q-30 -70 -56 -70q-34 0 -67 67q-31 62 -31 113q0 10 17.5 32.5t35.5 45.5q32 44 32 69t-20 25q-31 0 -54 -60q-21 -53 -21 -104v-73q-1 -44 -1 -65q0 -13 3.5 -30t3.5 -21q0 -11 -5 -11q-22 0 -22 19l1 413q0 282 31 282q13 0 13 -51
q0 -26 -11 -167q-12 -144 -12 -186v-13q29 86 82 86q20 0 33.5 -15t13.5 -38q0 -34 -35 -76q-8 -10 -42 -43q-21 -20 -21 -31q0 -34 25.5 -83t47.5 -49t45 49q20 42 22 69q1 11 8 11q10 0 10 -8z" />
    <glyph glyph-name="l" unicode="l" horiz-adv-x="141" 
d="M193 157q0 -31 -26 -90q-31 -67 -60 -67q-33 0 -58 62q-29 72 -29 195q0 181 38 372q38 188 71 188q24 0 24 -85q0 -90 -24 -231q-30 -180 -78 -275q5 -86 23.5 -133.5t42.5 -47.5q20 0 41 45q19 41 19 64q0 11 9 11q7 0 7 -8zM131 746q0 28 -7 29q-13 1 -36 -113
q-26 -126 -37 -278q-3 -43 -3 -83q0 -18 1 -36q31 75 56.5 221.5t25.5 259.5z" />
    <glyph glyph-name="m" unicode="m" horiz-adv-x="256" 
d="M305 139q0 -27 -28 -79q-29 -56 -53 -56q-48 0 -48 138q0 35 4 85l-2 1q-10 -20 -36 -105q-2 -7 -17 -76q-9 -43 -18 -43q-11 0 -11 13q0 4 6 63.5t6 76.5q0 8 1 35.5t1 40.5q0 24 -3 24q-10 0 -32 -58q-22 -61 -22 -97q0 -23 1 -50t1 -49q0 -15 -9 -15q-13 0 -13 19v89
q-1 70 -1 101q0 209 25 209q10 0 10 -51q0 -29 -6 -82q-7 -56 -8 -82l3 1q36 136 57 136q17 0 17 -48q0 -71 -8 -158h2q14 63 38 146q33 119 45 119q14 0 14 -13q0 1 -10.5 -65t-10.5 -130q0 -131 31 -131q34 0 58 90q3 13 10 13q6 0 6 -12z" />
    <glyph glyph-name="n" unicode="n" horiz-adv-x="192" 
d="M237 120q0 2 -1 -6q-4 -22 -27 -62q-29 -52 -54 -52q-49 0 -49 186q0 73 15 162l-2 -1q-18 -43 -40 -135q-23 -96 -23 -138q0 -15 -1 -43v-28q0 -15 -9 -15q-13 0 -13 19v89q-1 70 -1 101q0 209 25 209q10 0 10 -51q0 -14 -7 -76q-6 -66 -7 -96l2 1q10 57 36 138
q33 103 56 103q5 0 12.5 -7t7.5 -14q0 13 -17.5 -86t-17.5 -216q0 -74 27 -74q17 0 39 39q16 31 22 56q3 9 8 9q9 0 9 -12z" />
    <glyph glyph-name="o" unicode="o" horiz-adv-x="254" 
d="M302 137q0 -42 -32 -82q-34 -44 -74 -44q-8 0 -16 2q-24 -22 -55 -22q-43 0 -71 48.5t-28 129.5q0 74 30 126t73 52t73 -52t30 -126q0 -78 -33 -131q58 1 87 98q3 10 10 10q6 0 6 -9zM204 181q0 50 -15 93q-28 -5 -51 -29q-31 -33 -31 -87q0 -38 18.5 -71.5t46.5 -44.5
q32 56 32 139zM184 288q-18 42 -48 42q-39 0 -62 -66q-18 -52 -18 -109q0 -51 15 -94q19 -55 53 -55q18 0 34 16q-29 17 -48.5 53t-19.5 78q0 59 33 97q27 33 61 38z" />
    <glyph glyph-name="p" unicode="p" horiz-adv-x="218" 
d="M270 149q-10 -47 -21 -69q-24 -46 -72 -46q-23 0 -44 14q-16 -9 -33 -9q-29 0 -48 26v-22q-1 -91 1 -150q2 -65 2 -76q0 -23 -14 -23t-14 22q0 6 4 73q3 62 2 157v291v8v7q0 29 16 29t16 -16q0 -4 -1 -12t-1 -11v-8q25 47 63 47q30 0 52 -43q24 -47 24 -118
q0 -108 -53 -159q12 -9 29 -9q53 0 72 82q5 25 11 25q11 0 9 -10zM173 213q0 55 -17 94.5t-45 39.5q-21 0 -37 -25t-16 -64q0 -127 74 -186q41 44 41 141zM116 60q-42 35 -62 103q0 -7 -1 -49q14 -56 51 -56q6 0 12 2z" />
    <glyph glyph-name="q" unicode="q" horiz-adv-x="198" 
d="M253 -216q0 -11 -17 -11q-61 0 -77 55q-8 29 -8 127q0 14 3.5 43t3.5 44q0 30 -5 53q-5 -25 -22 -51q-22 -34 -47 -34q-55 0 -55 111q0 92 35.5 183t73.5 91q13 0 24 -16q2 7 4.5 14.5t11.5 7.5q10 0 13 -12t3 -50q0 -60 -8 -180.5t-8 -180.5q0 -186 65 -186q10 0 10 -8z
M156 305q0 13 -1 25q-2 39 -22 39q-24 0 -46 -66q-24 -71 -24 -160q0 -87 33 -87q27 0 43 58q16 54 16 132v1v29q1 19 1 29z" />
    <glyph glyph-name="r" unicode="r" horiz-adv-x="157" 
d="M211 157q0 -26 -26 -87q-30 -70 -56 -70q-43 0 -43 92q0 53 14 128q-4 -1 -8 -1q-12 0 -19 2.5t-8 2.5q-3 0 -3 -3q0 -45 -15.5 -99.5t-25.5 -54.5q-5 0 -8 3.5t-1 7.5q32 54 32 163q0 25 -2.5 49.5t-2.5 36.5q0 94 25 94q13 0 13 -66q0 -16 -6 -49t-6 -34q0 -19 17 -19
q13 0 25.5 14.5t13.5 14.5q9 0 9 -10q0 7 -12.5 -43t-12.5 -102q0 -82 28 -82q19 0 40 45q18 38 20 64q1 11 9 11q9 0 9 -8z" />
    <glyph glyph-name="s" unicode="s" horiz-adv-x="207" 
d="M193 39q0 -38 -18 -60t-44 -22q-36 0 -68.5 43t-32.5 94q0 65 16 65q6 0 6 -7q0 2 -2.5 -12.5t-2.5 -38.5q0 -46 26 -85.5t57 -39.5q32 0 32 43q0 32 -61 141.5t-61 151.5q0 35 17 54.5t43 19.5q34 0 58 -36q23 -32 23 -68q0 -26 -16 -26q-21 0 -21 30q0 83 -45 83
q-34 0 -34 -45q0 -34 64 -133.5t64 -151.5z" />
    <glyph glyph-name="t" unicode="t" horiz-adv-x="168" 
d="M212 126q0 -29 -34 -94q-39 -71 -70 -71q-35 0 -55 70q-17 65 -17 167q0 77 10 170q-47 -15 -47 -48q0 -9 -9 -9q-8 0 -8 9q0 50 67 73q10 84 24 151q14 63 20 63t6 -6q0 -13 -7 -70q-8 -73 -13 -131q16 3 32 3q58 0 58 -22q0 -17 -10 -17q-2 0 -8 2q-31 9 -70 8h-4
q-6 -100 -6 -210q0 -169 41 -169q21 0 50 51q22 39 32 71q5 17 13 17q5 0 5 -8z" />
    <glyph glyph-name="u" unicode="u" horiz-adv-x="205" 
d="M258 157q0 -28 -25 -87q-28 -70 -57 -70q-35 0 -44 94q-12 -84 -48 -84q-55 0 -55 152q0 69 12 133t26 64q11 0 11 -19q0 -5 -12.5 -66t-12.5 -138q0 -80 34 -80q32 0 44 93q5 40 10 81q9 65 22 65q9 0 9 -10q0 -2 -7 -50q-9 -56 -9 -111q0 -92 24 -92q17 0 39 51
q20 45 22 71q1 11 7 11q10 0 10 -8z" />
    <glyph glyph-name="v" unicode="v" horiz-adv-x="217" 
d="M214 276q0 -99 -35 -196q-33 -88 -55 -88q-33 0 -65 192q-6 -42 -18 -79.5t-21 -37.5t-9 8q0 -4 16 59.5t16 106.5q0 47 -8.5 84.5t-8.5 47.5t9 21t18 11q13 0 13 -56q0 -98 23 -214q22 -111 37 -111q17 0 37 88.5t20 174.5q0 95 -28 126q-3 3 -3 6q0 6 5 6q2 0 5 -3
q52 -54 52 -146z" />
    <glyph glyph-name="w" unicode="w" horiz-adv-x="326" 
d="M329 276q0 -100 -33 -196q-31 -88 -54 -88q-15 0 -32.5 54.5t-24.5 126.5q-12 -67 -32 -124t-33 -57q-28 0 -61 192q-6 -42 -18 -79.5t-21 -37.5t-9 8q0 -4 16 59.5t16 106.5q0 47 -8 84.5t-8 47.5t9 21t17 11q13 0 13 -56q0 -101 18.5 -213t33.5 -112q13 0 28 77
q15 82 15 169q0 10 -1 27.5t-1 26.5t8 20.5t15 11.5q11 0 11 -56q0 -78 17.5 -177t33.5 -99q18 0 37 85q18 82 18 146q0 119 -30 158q-3 3 -3 6q0 5 6 5q3 0 5 -2q52 -64 52 -146z" />
    <glyph glyph-name="x" unicode="x" horiz-adv-x="241" 
d="M295 157q0 -28 -25 -84q-30 -66 -60 -66q-45 0 -82 102q-43 -120 -48 -141q-7 -24 -16 -24q-8 0 -8 8q0 10 63 185q-48 152 -51 152q-7 0 -9 -61q-1 -35 -2 -51q-3 -30 -9 -50q-4 -12 -12 -12q-6 0 -6 8q0 12 5 51t5 56q2 64 6 87q6 39 24 39q26 0 68 -165q53 147 67 181
q4 11 12 11q7 0 7 -8q0 -3 -78 -218q32 -129 64 -129q20 0 44 53q21 46 23 73q1 11 8 11q10 0 10 -8z" />
    <glyph glyph-name="y" unicode="y" horiz-adv-x="179" 
d="M186 454q0 -27 -17 -145t-17 -168q0 -48 5 -103.5t5 -88.5q0 -195 -125 -195q-29 0 -29 17q0 10 8 18t18 8q6 0 13 -5t13 -5q58 0 74 86q6 32 6 136q0 70 -6 86q-3 -21 -15 -47q-17 -38 -36 -38q-20 0 -34 30q-18 39 -18 112v17q0 146 22 146q12 0 12 -63q0 -20 -6.5 -64
t-6.5 -52q0 -80 34 -80q24 0 37 58q13 52 13 132q0 98 7 180q10 106 27 106q16 0 16 -78z" />
    <glyph glyph-name="z" unicode="z" horiz-adv-x="222" 
d="M273 151q0 -7 -1 -11q-17 -86 -81 -134q2 -15 2 -32q0 -73 -30 -129q-34 -63 -88 -63q-43 0 -43 50q0 77 125 173q-11 68 -56 68q-28 -51 -45 -51q-10 0 -10 12q0 33 42 55l105 190q-10 -3 -22 -3q-30 0 -50.5 4t-24.5 4q-23 0 -33 -64q-15 -93 -18.5 -102t-12.5 -9
q-6 0 -6 6q0 2 1 6q9 23 15 82q7 63 13 84q12 39 36 39q18 0 42.5 -6.5t45.5 -6.5q11 0 25.5 5.5t16.5 5.5q9 0 9 -9q0 -22 -120 -225q59 0 77 -63q57 46 69 119q3 20 11 20q6 0 6 -15zM160 -33q0 8 -1 16q-111 -85 -111 -153q0 -33 29 -33q35 0 60 56q23 52 23 114z" />
    <glyph glyph-name="braceleft" unicode="{" horiz-adv-x="152" 
d="M627 -111q0 1 -2 -7q-5 -30 -46 -68q-61 -58 -155 -58q-145 0 -237 123q-84 112 -84 261v22h-2q-9 -26 -22 -110q-10 -64 -19 -64q-6 0 -16 6t-10 13q0 -13 1 90v206q0 202 13 370q16 195 40 195q10 0 10 -51q0 -68 -21 -276t-21 -243q0 -17 -1 -89t-1 -105v-29l3 1
q54 317 91 317q13 0 13 -11q0 10 -19.5 -75.5t-19.5 -157.5q0 -173 97 -274q86 -88 209 -88q87 0 141 44q35 29 43 61q2 8 8 8q7 0 7 -11z" />
    <glyph glyph-name="bar" unicode="|" horiz-adv-x="123" 
d="M113 411q0 -16 -8 -34q-10 -21 -25 -21q-19 0 -19 32q0 17 8 34q10 22 24 22q20 0 20 -33zM175 157q0 -31 -26 -90q-31 -67 -60 -67q-56 0 -56 129q0 31 8 90q10 76 24 76q9 0 9 -10q0 -1 -7 -50q-8 -56 -8 -108q0 -82 40 -82q20 0 41 45q19 41 19 64q0 11 9 11q7 0 7 -8
z" />
    <glyph glyph-name="braceright" unicode="}" horiz-adv-x="234" 
d="M684 -73q0 1 -1 -7q-6 -30 -46 -68q-61 -58 -155 -58q-145 0 -227 97q-79 93 -79 251q0 35 4 85l-2 1q-10 -20 -36 -105q-2 -7 -17 -76q-9 -43 -18 -43q-11 0 -11 13q0 4 6 63.5t6 76.5q0 8 1 35.5t1 40.5q0 24 -3 24q-10 0 -32 -58q-22 -61 -22 -97q0 -23 1 -50t1 -49
q0 -15 -9 -15q-13 0 -13 19v89q-1 70 -1 101q0 209 25 209q10 0 10 -51q0 -29 -6 -82q-7 -56 -8 -82l3 1q36 136 57 136q17 0 17 -48q0 -71 -8 -158h2q14 63 38 146q33 119 45 119q14 0 14 -13q0 1 -10.5 -65t-10.5 -130q0 -178 78 -273q75 -92 208 -92q86 0 140 50
q34 32 43 66q2 8 8 8q7 0 7 -11z" />
    <glyph glyph-name="asciitilde" unicode="~" horiz-adv-x="647" 
d="M625 752q-17 -43 -52 -71q-44 -36 -104 -36q-47 0 -142 30.5t-140 30.5q-74 0 -125 -77l-27 15q37 62 74.5 88.5t90.5 26.5q48 0 139 -30t139 -30q74 0 122 69z" />
    <glyph glyph-name="Adieresis" unicode="&#xc4;" horiz-adv-x="628" 
d="M703 -73q0 -15 -21 -15q-107 0 -177 265q-35 5 -77 5q-27 0 -50 -5q-97 -323 -231 -323q-66 0 -103 71q-33 65 -33 165q0 109 48 210q53 109 122 109q40 0 62 -39q19 -36 19 -93q0 -77 -32 -142q-33 -68 -79 -68q-7 0 -7 7q0 8 8 8q30 0 54 48q27 53 27 138
q0 127 -49 127t-91 -92t-42 -208q0 -218 83 -218q46 0 99 73q57 78 104 216q-48 -19 -45 -19q-21 0 -21 14q0 22 76 35q62 195 87 452q4 34 4 84v39q-1 34 -1 53q0 22 6.5 39.5t15.5 17.5q8 0 14.5 -17t6.5 -34q0 -29 -7.5 -89.5t-7.5 -99.5q0 -91 18.5 -221.5t44.5 -228.5
q21 -4 54 -16q46 -17 46 -26q0 -7 -9 -7q-11 0 -32 10q-28 13 -33 14l-20 6q66 -233 161 -233q8 0 8 -12zM500 197q-42 170 -51 325q-27 -188 -65 -322q23 2 48 2q34 0 68 -5zM530 953q0 -26 -26 -26t-26 26t26 26t26 -26zM441 953q0 -26 -26 -26t-26 26t26 26t26 -26z" />
    <glyph glyph-name="Aring" unicode="&#xc5;" horiz-adv-x="628" 
d="M703 -73q0 -15 -21 -15q-107 0 -177 265q-35 5 -77 5q-27 0 -50 -5q-97 -323 -231 -323q-66 0 -103 71q-33 65 -33 165q0 109 48 210q53 109 122 109q40 0 62 -39q19 -36 19 -93q0 -77 -32 -142q-33 -68 -79 -68q-7 0 -7 7q0 8 8 8q30 0 54 48q27 53 27 138
q0 127 -49 127t-91 -92t-42 -208q0 -218 83 -218q46 0 99 73q57 78 104 216q-48 -19 -45 -19q-21 0 -21 14q0 22 76 35q62 195 87 452q4 34 4 84v39q-1 34 -1 53q0 22 6.5 39.5t15.5 17.5q8 0 14.5 -17t6.5 -34q0 -29 -7.5 -89.5t-7.5 -99.5q0 -91 18.5 -221.5t44.5 -228.5
q21 -4 54 -16q46 -17 46 -26q0 -7 -9 -7q-11 0 -32 10q-28 13 -33 14l-20 6q66 -233 161 -233q8 0 8 -12zM500 197q-42 170 -51 325q-27 -188 -65 -322q23 2 48 2q34 0 68 -5zM542 1002q0 -34 -24 -58t-58 -24t-58 24t-24 58t24 58t58 24t58 -24t24 -58zM514 1002
q0 22 -16 38t-39 16t-39 -16t-16 -38q0 -23 16 -39t39 -16t39 16t16 39z" />
    <glyph glyph-name="Ccedilla" unicode="&#xc7;" horiz-adv-x="383" 
d="M378 182q0 -77 -27 -176q-46 -171 -145 -174q-9 -36 -9 -37q15 5 19 5q48 0 48 -45q0 -25 -18 -45t-47 -20q-24 0 -41 15t-17 42q0 11 7 11q5 0 5 -9q0 -29 42 -29q19 0 31 11t12 27q0 24 -27 24q-5 0 -13.5 -5t-12.5 -5q-9 0 -9 6q0 4 13 55q-74 9 -120 112
q-53 117 -53 325q0 251 65 396q60 132 152 132q52 0 85 -69q37 -76 37 -209q0 -153 -44 -280q-49 -141 -121 -141q-34 0 -59 34q-29 38 -29 105q0 61 20 101q15 30 24 30q8 0 8 -9q0 7 -12 -29.5t-12 -86.5q0 -54 17 -92.5t42 -38.5q50 0 90 117q41 124 41 301
q0 129 -19 186q-19 61 -65 61q-70 0 -124 -136q-58 -149 -58 -379q0 -401 146 -401q100 0 161 303q6 29 12 29q5 0 5 -12z" />
    <glyph glyph-name="Eacute" unicode="&#xc9;" horiz-adv-x="372" 
d="M365 26q0 -81 -45.5 -131.5t-127.5 -50.5q-68 0 -120 50q-59 57 -59 152q0 84 65 147q47 47 96 60q-145 81 -145 256q0 123 70 214q66 84 141 84q59 0 91 -52q28 -46 28 -119q0 -87 -35.5 -161t-84.5 -74q-31 0 -55 34.5t-24 89.5q0 45 18 79q13 26 20 26t7 -7
q0 6 -9 -23.5t-9 -69.5q0 -46 15 -79t36 -33q37 0 63 67q24 64 24 144q0 70 -21 114q-24 50 -70 50q-59 0 -112 -76q-56 -82 -56 -190q0 -110 60 -185q53 -66 109 -66q17 0 32 2t18 2q17 0 17 -15q0 -7 -9 -16t-18 -9h-13q-10 1 -19 1q-85 0 -139 -60q-50 -56 -50 -135
q0 -77 42 -130.5t104 -53.5t97 47t35 118q0 51 -19 89q-16 32 -28 32q-6 0 -6 7q0 8 9 8q21 0 48 -42q29 -46 29 -95zM319 958q0 -12 -42 -59t-50 -47t-8 8q0 10 36 62t50 52t14 -16z" />
    <glyph glyph-name="Ntilde" unicode="&#xd1;" horiz-adv-x="704" 
d="M867 748q0 -10 -11 -10q-9 0 -9 8q0 40 -21 66.5t-50 26.5q-50 0 -82 -62q-37 -73 -37 -214q0 -74 12 -222t12 -203q0 -146 -51 -146q-36 0 -78 129q-39 120 -46 227q-28 -210 -94 -342q-74 -148 -175 -148q-94 0 -158 98q-68 104 -68 276q0 130 57 216q55 81 132 81
q57 0 94.5 -54t37.5 -143q0 -46 -12 -83q-10 -33 -19 -33q-8 0 -8 13q0 -4 10 27t10 72q0 76 -30 126t-78 50q-61 0 -104 -74q-47 -82 -47 -220q0 -136 39 -223q43 -94 118 -94q120 0 199 181q77 178 77 447q0 56 -3 117.5t-3 68.5q0 137 26 137q27 0 27 -137
q0 -107 -13 -234q7 -119 38 -266q39 -179 78 -179q22 0 22 65q0 41 -19.5 206.5t-19.5 258.5q0 151 49 232q41 67 101 67q40 0 68.5 -31t28.5 -78zM690 955q0 -19 -13 -33t-32 -14q-14 0 -39 14.5t-39 14.5q-19 0 -29 -13l-10 -14q-3 1 -3 9q0 18 15 33t33 15
q19 0 45.5 -13.5t34.5 -13.5q12 0 22.5 12l10.5 12q4 0 4 -9z" />
    <glyph glyph-name="Odieresis" unicode="&#xd6;" horiz-adv-x="418" 
d="M409 355q0 -195 -48 -339q-53 -156 -136 -156q-102 0 -160 149q-50 128 -50 303q0 125 27 201q3 8 10 8q4 0 4 -6q0 -2 -1 -5.5t-2 -6.5q-8 -58 -8 -142q0 -177 35 -303q45 -157 131 -157q75 0 122 151q44 137 44 324q0 169 -38 279q-41 124 -116 124q-48 0 -80 -64
q-35 -70 -35 -191q0 -129 30 -229q34 -108 84 -108q25 0 42 39t17 93q0 49 -12 86t-12 30q0 8 9 8t23 -30q20 -40 20 -100q0 -68 -28 -106q-25 -33 -60 -33q-66 0 -108 107q-38 98 -38 231q0 121 35 198q39 88 111 88q92 0 143 -137q45 -121 45 -306zM294 890q0 -26 -26 -26
q-25 0 -25 26t25 26q26 0 26 -26zM205 890q0 -26 -26 -26t-26 26t26 26t26 -26z" />
    <glyph glyph-name="Udieresis" unicode="&#xdc;" horiz-adv-x="508" 
d="M599 -53q0 -26 -17 -52q-22 -33 -58 -33q-72 0 -89 172q-29 -187 -107 -187q-51 0 -76 73q-20 57 -20 141q0 110 18.5 255.5t18.5 275.5q0 98 -28 154q-25 51 -64 51q-50 0 -87 -79q-42 -89 -42 -236q0 -112 30 -187q27 -68 61 -68q26 0 44 42q21 48 21 134q0 51 -13 96
t-33 61q-4 3 -4 8q0 9 7 9q3 0 7 -2q30 -21 47.5 -69.5t17.5 -104.5q0 -89 -30 -142q-27 -47 -65 -47q-47 0 -85 72q-42 79 -42 197q0 155 52 249q47 83 111 83q53 0 88 -60q39 -67 39 -182q0 -105 -17 -265t-17 -269q0 -57 15 -106q18 -61 50 -61q69 0 99 287q0 77 -6 312
q-5 208 -5 296q0 38 22 38q18 0 18 -57q0 -126 -2 -196v-349q0 -155 20 -239q17 -76 46 -76q24 0 40 18q11 12 19 33l7 18q9 0 9 -8zM411 866q0 -26 -26 -26t-26 26t26 26t26 -26zM322 866q0 -26 -26 -26t-26 26t26 26t26 -26z" />
    <glyph glyph-name="aacute" unicode="&#xe1;" 
d="M260 157q0 -27 -24 -83q-28 -66 -55 -66q-40 0 -45 70h-2q-45 -96 -82 -96q-39 0 -39 79q0 73 47 139q44 63 91 68q3 32 3 38q0 51 -32 51q-18 0 -34 -23t-16 -53q0 -22 -13 -22q-15 0 -15 22q0 27 24.5 58.5t53.5 31.5q57 0 57 -81q0 -32 -7 -97.5t-7 -93.5
q0 -54 18 -54q19 0 39 45q18 38 20 64q1 11 9 11q9 0 9 -8zM150 249q-40 -6 -75 -60t-35 -111q0 -43 25 -43q22 0 52 52.5t30 87.5q0 30 3 74zM206 506q0 -12 -42 -58.5t-50 -46.5t-8 8q0 9 36 61t49 52q15 0 15 -16z" />
    <glyph glyph-name="agrave" unicode="&#xe0;" 
d="M260 157q0 -27 -24 -83q-28 -66 -55 -66q-40 0 -45 70h-2q-45 -96 -82 -96q-39 0 -39 79q0 73 47 139q44 63 91 68q3 32 3 38q0 51 -32 51q-18 0 -34 -23t-16 -53q0 -22 -13 -22q-15 0 -15 22q0 27 24.5 58.5t53.5 31.5q57 0 57 -81q0 -32 -7 -97.5t-7 -93.5
q0 -54 18 -54q19 0 39 45q18 38 20 64q1 11 9 11q9 0 9 -8zM150 249q-40 -6 -75 -60t-35 -111q0 -43 25 -43q22 0 52 52.5t30 87.5q0 30 3 74zM143 409q0 -8 -8 -8t-50 46.5t-42 58.5q0 16 14 16t50 -52t36 -61z" />
    <glyph glyph-name="acircumflex" unicode="&#xe2;" 
d="M260 157q0 -27 -24 -83q-28 -66 -55 -66q-40 0 -45 70h-2q-45 -96 -82 -96q-39 0 -39 79q0 73 47 139q44 63 91 68q3 32 3 38q0 51 -32 51q-18 0 -34 -23t-16 -53q0 -22 -13 -22q-15 0 -15 22q0 27 24.5 58.5t53.5 31.5q57 0 57 -81q0 -32 -7 -97.5t-7 -93.5
q0 -54 18 -54q19 0 39 45q18 38 20 64q1 11 9 11q9 0 9 -8zM150 249q-40 -6 -75 -60t-35 -111q0 -43 25 -43q22 0 52 52.5t30 87.5q0 30 3 74zM206 403q0 -8 -7 -8q-6 0 -33.5 28t-45.5 52q-18 -24 -45.5 -52t-33.5 -28q-7 0 -7 8t30 52.5t47 57.5q5 3 9 3q5 0 9 -3
q17 -13 47 -57.5t30 -52.5z" />
    <glyph glyph-name="adieresis" unicode="&#xe4;" 
d="M260 157q0 -27 -24 -83q-28 -66 -55 -66q-40 0 -45 70h-2q-45 -96 -82 -96q-39 0 -39 79q0 73 47 139q44 63 91 68q3 32 3 38q0 51 -32 51q-18 0 -34 -23t-16 -53q0 -22 -13 -22q-15 0 -15 22q0 27 24.5 58.5t53.5 31.5q57 0 57 -81q0 -32 -7 -97.5t-7 -93.5
q0 -54 18 -54q19 0 39 45q18 38 20 64q1 11 9 11q9 0 9 -8zM150 249q-40 -6 -75 -60t-35 -111q0 -43 25 -43q22 0 52 52.5t30 87.5q0 30 3 74zM185 432q0 -26 -25 -26q-26 0 -26 26t26 26q25 0 25 -26zM96 432q0 -26 -26 -26q-25 0 -25 26t25 26q26 0 26 -26z" />
    <glyph glyph-name="atilde" unicode="&#xe3;" 
d="M260 157q0 -27 -24 -83q-28 -66 -55 -66q-40 0 -45 70h-2q-45 -96 -82 -96q-39 0 -39 79q0 73 47 139q44 63 91 68q3 32 3 38q0 51 -32 51q-18 0 -34 -23t-16 -53q0 -22 -13 -22q-15 0 -15 22q0 27 24.5 58.5t53.5 31.5q57 0 57 -81q0 -32 -7 -97.5t-7 -93.5
q0 -54 18 -54q19 0 39 45q18 38 20 64q1 11 9 11q9 0 9 -8zM150 249q-40 -6 -75 -60t-35 -111q0 -43 25 -43q22 0 52 52.5t30 87.5q0 30 3 74zM206 449q0 -19 -13 -33t-32 -14q-14 0 -39 14.5t-39 14.5q-19 0 -30 -14q-4 -7 -9 -14q-3 2 -3 10q0 18 14.5 33t33.5 15
t45.5 -13.5t34.5 -13.5q12 0 22.5 11.5l10.5 11.5q4 0 4 -8z" />
    <glyph glyph-name="aring" unicode="&#xe5;" 
d="M260 157q0 -27 -24 -83q-28 -66 -55 -66q-40 0 -45 70h-2q-45 -96 -82 -96q-39 0 -39 79q0 73 47 139q44 63 91 68q3 32 3 38q0 51 -32 51q-18 0 -34 -23t-16 -53q0 -22 -13 -22q-15 0 -15 22q0 27 24.5 58.5t53.5 31.5q57 0 57 -81q0 -32 -7 -97.5t-7 -93.5
q0 -54 18 -54q19 0 39 45q18 38 20 64q1 11 9 11q9 0 9 -8zM150 249q-40 -6 -75 -60t-35 -111q0 -43 25 -43q22 0 52 52.5t30 87.5q0 30 3 74zM203 508q0 -34 -24 -58t-58 -24t-58 24t-24 58t24 58t58 24t58 -24t24 -58zM175 508q0 23 -16 39t-39 16q-22 0 -38 -16t-16 -39
q0 -22 16 -38t38 -16q23 0 39 16t16 38z" />
    <glyph glyph-name="ccedilla" unicode="&#xe7;" horiz-adv-x="228" 
d="M275 132q0 -47 -40.5 -90t-87.5 -43h-5q-10 -44 -10 -45q15 6 18 6q48 0 48 -45q0 -25 -18 -45t-47 -20q-24 0 -41 15t-17 42q0 11 8 11q4 0 4 -10q0 -29 42 -29q19 0 31 11.5t12 26.5q0 25 -26 25q-6 0 -14.5 -5t-12.5 -5q-8 0 -8 6q0 3 14 63q-103 13 -103 131
q0 71 37.5 133.5t85.5 62.5q27 0 44 -26q14 -24 14 -59q0 -34 -15.5 -59t-43.5 -25q-9 0 -9 7t10 7q14 0 23 23t9 53q0 65 -34 65q-35 0 -61.5 -56.5t-26.5 -120.5q0 -120 87 -120q48 0 81 41q26 30 36 72q3 15 10 15q6 0 6 -13z" />
    <glyph glyph-name="eacute" unicode="&#xe9;" horiz-adv-x="190" 
d="M237 132q0 -43 -37.5 -88t-80.5 -45q-48 0 -75 32q-25 28 -25 71q0 35 21.5 65t56.5 41q-15 14 -29 39q-24 43 -24 88q0 27 14.5 42.5t36.5 15.5q27 0 47 -25q17 -21 17 -38q0 -11 -10 -11q-1 0 -10 22t-32 22q-31 0 -31 -45q0 -36 18.5 -72.5t41.5 -36.5q15 0 15 -12
q0 -11 -22 -11q-39 0 -62.5 -29.5t-23.5 -65.5q0 -66 61 -66q42 0 77 36q31 32 39 69q4 15 11 15q6 0 6 -13zM191 535q0 -12 -42 -58.5t-50 -46.5t-8 8q0 10 36 61.5t50 51.5t14 -16z" />
    <glyph glyph-name="egrave" unicode="&#xe8;" horiz-adv-x="190" 
d="M237 132q0 -43 -37.5 -88t-80.5 -45q-48 0 -75 32q-25 28 -25 71q0 35 21.5 65t56.5 41q-15 14 -29 39q-24 43 -24 88q0 27 14.5 42.5t36.5 15.5q27 0 47 -25q17 -21 17 -38q0 -11 -10 -11q-1 0 -10 22t-32 22q-31 0 -31 -45q0 -36 18.5 -72.5t41.5 -36.5q15 0 15 -12
q0 -11 -22 -11q-39 0 -62.5 -29.5t-23.5 -65.5q0 -66 61 -66q42 0 77 36q31 32 39 69q4 15 11 15q6 0 6 -13zM130 442q0 -8 -7 -8q-8 0 -50.5 46.5t-42.5 58.5q0 16 15 16q13 0 49 -51.5t36 -61.5z" />
    <glyph glyph-name="ecircumflex" unicode="&#xea;" horiz-adv-x="190" 
d="M237 132q0 -43 -37.5 -88t-80.5 -45q-48 0 -75 32q-25 28 -25 71q0 35 21.5 65t56.5 41q-15 14 -29 39q-24 43 -24 88q0 27 14.5 42.5t36.5 15.5q27 0 47 -25q17 -21 17 -38q0 -11 -10 -11q-1 0 -10 22t-32 22q-31 0 -31 -45q0 -36 18.5 -72.5t41.5 -36.5q15 0 15 -12
q0 -11 -22 -11q-39 0 -62.5 -29.5t-23.5 -65.5q0 -66 61 -66q42 0 77 36q31 32 39 69q4 15 11 15q6 0 6 -13zM192 420q0 -8 -7 -8q-6 0 -33.5 28.5t-45.5 52.5q-18 -24 -45.5 -52.5t-33.5 -28.5q-7 0 -7 8q0 9 30 53.5t47 56.5q5 4 9 4q5 0 9 -4q17 -12 47 -56.5t30 -53.5z
" />
    <glyph glyph-name="edieresis" unicode="&#xeb;" horiz-adv-x="190" 
d="M237 132q0 -43 -37.5 -88t-80.5 -45q-48 0 -75 32q-25 28 -25 71q0 35 21.5 65t56.5 41q-15 14 -29 39q-24 43 -24 88q0 27 14.5 42.5t36.5 15.5q27 0 47 -25q17 -21 17 -38q0 -11 -10 -11q-1 0 -10 22t-32 22q-31 0 -31 -45q0 -36 18.5 -72.5t41.5 -36.5q15 0 15 -12
q0 -11 -22 -11q-39 0 -62.5 -29.5t-23.5 -65.5q0 -66 61 -66q42 0 77 36q31 32 39 69q4 15 11 15q6 0 6 -13zM165 456q0 -26 -25 -26q-26 0 -26 26t26 26q25 0 25 -26zM76 456q0 -26 -26 -26q-25 0 -25 26t25 26q26 0 26 -26z" />
    <glyph glyph-name="iacute" unicode="&#xed;" horiz-adv-x="123" 
d="M175 157q0 -31 -26 -90q-31 -67 -60 -67q-56 0 -56 129q0 31 8 90q10 76 24 76q9 0 9 -10q0 -1 -7 -50q-8 -56 -8 -108q0 -82 40 -82q20 0 41 45q19 41 19 64q0 11 9 11q7 0 7 -8zM162 443q0 -13 -42.5 -59.5t-50.5 -46.5q-7 0 -7 8q0 10 36 61.5t49 51.5q15 0 15 -15z
" />
    <glyph glyph-name="igrave" unicode="&#xec;" horiz-adv-x="123" 
d="M175 157q0 -31 -26 -90q-31 -67 -60 -67q-56 0 -56 129q0 31 8 90q10 76 24 76q9 0 9 -10q0 -1 -7 -50q-8 -56 -8 -108q0 -82 40 -82q20 0 41 45q19 41 19 64q0 11 9 11q7 0 7 -8zM102 345q0 -8 -8 -8t-50 46.5t-42 59.5q0 15 14 15t50 -51.5t36 -61.5z" />
    <glyph glyph-name="icircumflex" unicode="&#xee;" horiz-adv-x="123" 
d="M175 157q0 -31 -26 -90q-31 -67 -60 -67q-56 0 -56 129q0 31 8 90q10 76 24 76q9 0 9 -10q0 -1 -7 -50q-8 -56 -8 -108q0 -82 40 -82q20 0 41 45q19 41 19 64q0 11 9 11q7 0 7 -8zM155 307q0 -8 -7 -8q-6 0 -33.5 28t-45.5 52q-18 -24 -45.5 -52t-32.5 -28q-8 0 -8 8
t30 52.5t47 56.5q5 4 9 4q5 0 9 -4q17 -12 47 -56.5t30 -52.5z" />
    <glyph glyph-name="idieresis" unicode="&#xef;" horiz-adv-x="123" 
d="M175 157q0 -31 -26 -90q-31 -67 -60 -67q-56 0 -56 129q0 31 8 90q10 76 24 76q9 0 9 -10q0 -1 -7 -50q-8 -56 -8 -108q0 -82 40 -82q20 0 41 45q19 41 19 64q0 11 9 11q7 0 7 -8zM137 363q0 -26 -26 -26t-26 26t26 26t26 -26zM48 363q0 -26 -26 -26t-26 26t26 26t26 -26
z" />
    <glyph glyph-name="ntilde" unicode="&#xf1;" horiz-adv-x="192" 
d="M237 120q0 2 -1 -6q-4 -22 -27 -62q-29 -52 -54 -52q-49 0 -49 186q0 73 15 162l-2 -1q-18 -43 -40 -135q-23 -96 -23 -138q0 -15 -1 -43v-28q0 -15 -9 -15q-13 0 -13 19v89q-1 70 -1 101q0 209 25 209q10 0 10 -51q0 -14 -7 -76q-6 -66 -7 -96l2 1q10 57 36 138
q33 103 56 103q5 0 12.5 -7t7.5 -14q0 13 -17.5 -86t-17.5 -216q0 -74 27 -74q17 0 39 39q16 31 22 56q3 9 8 9q9 0 9 -12zM191 509q0 -19 -13 -33t-32 -14q-14 0 -39.5 14.5t-38.5 14.5q-19 0 -30 -14l-10 -14q-2 2 -2 10q0 18 14.5 33t33.5 15t45.5 -13.5t34.5 -13.5
q12 0 22.5 11.5t9.5 11.5q5 0 5 -8z" />
    <glyph glyph-name="oacute" unicode="&#xf3;" horiz-adv-x="254" 
d="M302 137q0 -42 -32 -82q-34 -44 -74 -44q-8 0 -16 2q-24 -22 -55 -22q-43 0 -71 48.5t-28 129.5q0 74 30 126t73 52t73 -52t30 -126q0 -78 -33 -131q58 1 87 98q3 10 10 10q6 0 6 -9zM204 181q0 50 -15 93q-28 -5 -51 -29q-31 -33 -31 -87q0 -38 18.5 -71.5t46.5 -44.5
q32 56 32 139zM184 288q-18 42 -48 42q-39 0 -62 -66q-18 -52 -18 -109q0 -51 15 -94q19 -55 53 -55q18 0 34 16q-29 17 -48.5 53t-19.5 78q0 59 33 97q27 33 61 38zM226 485q0 -12 -42.5 -58.5t-50.5 -46.5q-7 0 -7 8q0 9 36 61t49 52q15 0 15 -16z" />
    <glyph glyph-name="ograve" unicode="&#xf2;" horiz-adv-x="254" 
d="M302 137q0 -42 -32 -82q-34 -44 -74 -44q-8 0 -16 2q-24 -22 -55 -22q-43 0 -71 48.5t-28 129.5q0 74 30 126t73 52t73 -52t30 -126q0 -78 -33 -131q58 1 87 98q3 10 10 10q6 0 6 -9zM204 181q0 50 -15 93q-28 -5 -51 -29q-31 -33 -31 -87q0 -38 18.5 -71.5t46.5 -44.5
q32 56 32 139zM184 288q-18 42 -48 42q-39 0 -62 -66q-18 -52 -18 -109q0 -51 15 -94q19 -55 53 -55q18 0 34 16q-29 17 -48.5 53t-19.5 78q0 59 33 97q27 33 61 38zM153 389q0 -8 -7 -8q-8 0 -50 46.5t-42 58.5q0 16 14 16q13 0 49 -52t36 -61z" />
    <glyph glyph-name="ocircumflex" unicode="&#xf4;" horiz-adv-x="254" 
d="M302 137q0 -42 -32 -82q-34 -44 -74 -44q-8 0 -16 2q-24 -22 -55 -22q-43 0 -71 48.5t-28 129.5q0 74 30 126t73 52t73 -52t30 -126q0 -78 -33 -131q58 1 87 98q3 10 10 10q6 0 6 -9zM204 181q0 50 -15 93q-28 -5 -51 -29q-31 -33 -31 -87q0 -38 18.5 -71.5t46.5 -44.5
q32 56 32 139zM184 288q-18 42 -48 42q-39 0 -62 -66q-18 -52 -18 -109q0 -51 15 -94q19 -55 53 -55q18 0 34 16q-29 17 -48.5 53t-19.5 78q0 59 33 97q27 33 61 38zM224 375q0 -8 -8 -8q-6 0 -33.5 28t-45.5 52q-17 -24 -45 -52t-33 -28q-8 0 -8 8t30 52.5t48 57.5q5 3 8 3
q5 0 9 -3q18 -13 48 -57.5t30 -52.5z" />
    <glyph glyph-name="odieresis" unicode="&#xf6;" horiz-adv-x="254" 
d="M302 137q0 -42 -32 -82q-34 -44 -74 -44q-8 0 -16 2q-24 -22 -55 -22q-43 0 -71 48.5t-28 129.5q0 74 30 126t73 52t73 -52t30 -126q0 -78 -33 -131q58 1 87 98q3 10 10 10q6 0 6 -9zM204 181q0 50 -15 93q-28 -5 -51 -29q-31 -33 -31 -87q0 -38 18.5 -71.5t46.5 -44.5
q32 56 32 139zM184 288q-18 42 -48 42q-39 0 -62 -66q-18 -52 -18 -109q0 -51 15 -94q19 -55 53 -55q18 0 34 16q-29 17 -48.5 53t-19.5 78q0 59 33 97q27 33 61 38zM210 410q0 -26 -26 -26t-26 26q0 25 26 25t26 -25zM121 410q0 -26 -26 -26t-26 26q0 25 26 25t26 -25z" />
    <glyph glyph-name="otilde" unicode="&#xf5;" horiz-adv-x="254" 
d="M302 137q0 -42 -32 -82q-34 -44 -74 -44q-8 0 -16 2q-24 -22 -55 -22q-43 0 -71 48.5t-28 129.5q0 74 30 126t73 52t73 -52t30 -126q0 -78 -33 -131q58 1 87 98q3 10 10 10q6 0 6 -9zM204 181q0 50 -15 93q-28 -5 -51 -29q-31 -33 -31 -87q0 -38 18.5 -71.5t46.5 -44.5
q32 56 32 139zM184 288q-18 42 -48 42q-39 0 -62 -66q-18 -52 -18 -109q0 -51 15 -94q19 -55 53 -55q18 0 34 16q-29 17 -48.5 53t-19.5 78q0 59 33 97q27 33 61 38zM221 431q0 -19 -13 -33t-32 -14q-14 0 -39.5 14.5t-38.5 14.5q-19 0 -30 -13q-5 -7 -9 -14q-3 1 -3 9
q0 18 14.5 33t33.5 15t45.5 -13.5t34.5 -13.5q12 0 22.5 11.5t9.5 11.5q5 0 5 -8z" />
    <glyph glyph-name="uacute" unicode="&#xfa;" horiz-adv-x="205" 
d="M258 157q0 -28 -25 -87q-28 -70 -57 -70q-35 0 -44 94q-12 -84 -48 -84q-55 0 -55 152q0 69 12 133t26 64q11 0 11 -19q0 -5 -12.5 -66t-12.5 -138q0 -80 34 -80q32 0 44 93q5 40 10 81q9 65 22 65q9 0 9 -10q0 -2 -7 -50q-9 -56 -9 -111q0 -92 24 -92q17 0 39 51
q20 45 22 71q1 11 7 11q10 0 10 -8zM223 468q0 -13 -42.5 -59.5t-50.5 -46.5q-7 0 -7 8q0 10 36 62t49 52q15 0 15 -16z" />
    <glyph glyph-name="ugrave" unicode="&#xf9;" horiz-adv-x="205" 
d="M258 157q0 -28 -25 -87q-28 -70 -57 -70q-35 0 -44 94q-12 -84 -48 -84q-55 0 -55 152q0 69 12 133t26 64q11 0 11 -19q0 -5 -12.5 -66t-12.5 -138q0 -80 34 -80q32 0 44 93q5 40 10 81q9 65 22 65q9 0 9 -10q0 -2 -7 -50q-9 -56 -9 -111q0 -92 24 -92q17 0 39 51
q20 45 22 71q1 11 7 11q10 0 10 -8zM142 383q0 -8 -8 -8t-50 46.5t-42 58.5q0 16 14 16t50 -51.5t36 -61.5z" />
    <glyph glyph-name="ucircumflex" unicode="&#xfb;" horiz-adv-x="205" 
d="M258 157q0 -28 -25 -87q-28 -70 -57 -70q-35 0 -44 94q-12 -84 -48 -84q-55 0 -55 152q0 69 12 133t26 64q11 0 11 -19q0 -5 -12.5 -66t-12.5 -138q0 -80 34 -80q32 0 44 93q5 40 10 81q9 65 22 65q9 0 9 -10q0 -2 -7 -50q-9 -56 -9 -111q0 -92 24 -92q17 0 39 51
q20 45 22 71q1 11 7 11q10 0 10 -8zM216 399q0 -8 -7 -8q-6 0 -33.5 28t-45.5 53q-18 -25 -45.5 -53t-32.5 -28q-8 0 -8 8t30 53t47 57q5 3 9 3q5 0 9 -3q17 -12 47 -57t30 -53z" />
    <glyph glyph-name="udieresis" unicode="&#xfc;" horiz-adv-x="205" 
d="M258 157q0 -28 -25 -87q-28 -70 -57 -70q-35 0 -44 94q-12 -84 -48 -84q-55 0 -55 152q0 69 12 133t26 64q11 0 11 -19q0 -5 -12.5 -66t-12.5 -138q0 -80 34 -80q32 0 44 93q5 40 10 81q9 65 22 65q9 0 9 -10q0 -2 -7 -50q-9 -56 -9 -111q0 -92 24 -92q17 0 39 51
q20 45 22 71q1 11 7 11q10 0 10 -8zM198 426q0 -25 -26 -25t-26 25q0 26 26 26t26 -26zM109 426q0 -25 -26 -25t-26 25q0 26 26 26t26 -26z" />
    <glyph glyph-name="dagger" unicode="&#x2020;" horiz-adv-x="245" 
d="M230 622q0 -12 -10 -12q-14 0 -41 3t-41 3q-2 -40 -13 -329q-1 -21 -13 -21t-12 14q0 38 5 101q5 77 6 100q3 75 3 134l-70 -7q-23 0 -23 13q0 20 39 20q28 0 55 -1q0 17 -1.5 53t-1.5 53q0 38 15 38q23 0 23 -28q0 13 -8 -93l-2 -23q41 -2 78 -6q12 -1 12 -12z" />
    <glyph glyph-name="degree" unicode="&#xb0;" horiz-adv-x="384" 
d="M353 645q0 -67 -48 -115t-116 -48q-67 0 -115 48t-48 115q0 68 48 116t115 48q68 0 116 -48t48 -116zM324 646q0 56 -39.5 95.5t-95.5 39.5t-95.5 -39.5t-39.5 -95.5q0 -57 39.5 -96.5t95.5 -39.5t95.5 39.5t39.5 96.5z" />
    <glyph glyph-name="cent" unicode="&#xa2;" horiz-adv-x="432" 
d="M401 327q0 -51 -27 -115q-47 -112 -148 -112q0 -89 -14 -89q-17 0 -21 25q-1 12 -1 68q-66 15 -106 81q-45 74 -45 199q0 138 49 228q41 77 106 104l2 52q1 43 14 43q14 0 14 -36v-50q13 3 27 3q43 0 72 -26.5t29 -71.5q0 -41 -22 -70q-25 -31 -68 -31q-14 0 -14 9
q0 8 15 8q52 0 52 91q0 32 -15.5 55t-43.5 23q-15 0 -33 -8q0 -22 -4 -135q-3 -82 -3 -135q0 -65 5 -161q5 -101 5 -157q98 3 158 197q6 19 12 19q5 0 5 -8zM194 689q-49 -39 -81 -114q-36 -86 -36 -196q0 -226 113 -256q0 426 4 566z" />
    <glyph glyph-name="sterling" unicode="&#xa3;" horiz-adv-x="417" 
d="M405 72q0 -2 -1 -4q-7 -18 -29 -36q-33 -27 -75 -27q-41 0 -88 40l-71 71q-13 -98 -63 -98q-23 0 -39 19.5t-16 50.5q0 33 18 53.5t43 20.5q13 0 27 -6q-2 39 -16 145q-27 -5 -43 -5q-22 0 -22 15q0 25 39 25h22q-5 46 -5 91q0 180 46 283q40 91 96 91q46 0 76 -60
q34 -65 34 -173q0 -84 -29 -131q-25 -42 -61 -42q-30 0 -52 31.5t-22 85.5q0 51 20 85q14 25 23 25t9 -7q0 6 -12.5 -25t-12.5 -73q0 -51 13.5 -80.5t32.5 -29.5q21 0 36 36q18 42 18 115q0 107 -23 171q-21 59 -51 59q-38 0 -67 -88q-31 -97 -31 -255q0 -49 5 -110
q53 -2 99 -8q11 -2 11 -14q0 -15 -9 -15q-14 0 -42.5 4.5t-42.5 4.5q-7 0 -14 -1q9 -92 9 -116q0 -29 -2 -53l78 -64q51 -36 96 -36q25 0 49 13q20 11 26 23q3 4 8 4t5 -5zM111 119v20q-13 8 -25 8q-34 0 -34 -61q0 -22 9.5 -37.5t20.5 -15.5q29 0 29 86z" />
    <glyph glyph-name="section" unicode="&#xa7;" horiz-adv-x="398" 
d="M372 375q0 -47 -32 -80q-39 -40 -113 -40q97 -75 97 -144q0 -49 -36 -82q-43 -41 -123 -41q-65 0 -101 32q-30 27 -30 68q0 19 10 35q12 20 35 20q47 0 47 -44q0 -16 -14.5 -35.5t-14.5 -23.5q0 -10 21 -21t52 -11q38 0 63 15q31 19 31 55q0 30 -16.5 56t-69.5 72l-88 77
q-86 75 -86 140q0 46 33 80q39 41 110 41q-51 44 -70 70q-26 36 -26 75q0 58 44 93q41 33 102 33q49 0 89 -29t40 -71q0 -24 -14.5 -39.5t-38.5 -15.5q-17 0 -30 11t-13 25q0 15 16.5 31t16.5 36q0 12 -22 21t-47 9q-82 0 -82 -69q0 -32 12 -53q18 -33 76 -80l88 -72
q84 -69 84 -144zM315 357q-4 42 -63 100q-38 38 -79 66q-51 0 -81 -18t-30 -49q0 -30 60 -99q55 -62 84 -79q39 0 68 15q41 21 41 64z" />
    <glyph glyph-name="bullet" unicode="&#x2022;" horiz-adv-x="350" 
d="M280 258q0 -43 -31 -74t-74 -31t-74 31t-31 74q0 44 31 74.5t74 30.5t74 -30.5t31 -74.5z" />
    <glyph glyph-name="paragraph" unicode="&#xb6;" horiz-adv-x="500" 
d="M459 688h-63v-688h-39v688h-91v-688h-41v383q-87 1 -135.5 45.5t-48.5 124.5q0 68 43 114q51 56 148 56h227v-35z" />
    <glyph glyph-name="germandbls" unicode="&#xdf;" horiz-adv-x="247" 
d="M253 39q0 -38 -18 -60t-44 -22q-36 0 -68.5 43t-32.5 94q0 65 16 65q6 0 6 -7q0 2 -3 -12.5t-3 -38.5q0 -46 26.5 -85.5t57.5 -39.5q32 0 32 43q0 32 -61 141.5t-61 151.5q0 61 46.5 159.5t46.5 156.5q0 45 -18.5 71.5t-46.5 26.5q-85 0 -85 -262q0 -111 16.5 -293
t16.5 -198q0 -195 -124 -195q-30 0 -30 17q0 10 8 18t18 8q7 0 13.5 -4.5t12.5 -4.5q49 0 64 54q11 40 11 167q0 18 -16 177t-16 258q0 278 112 278q42 0 68.5 -39.5t26.5 -100.5q0 -59 -52 -152.5t-52 -129.5q0 -34 66.5 -133.5t66.5 -151.5z" />
    <glyph glyph-name="registered" unicode="&#xae;" horiz-adv-x="625" 
d="M604 509q0 -117 -82.5 -199.5t-199.5 -82.5t-199.5 82.5t-82.5 199.5t82.5 199.5t199.5 82.5t199.5 -82.5t82.5 -199.5zM582 509q0 108 -76 184t-184 76q-107 0 -183.5 -76t-76.5 -184t76.5 -184t183.5 -76q108 0 184 76t76 184zM443 310q0 -7 -6 -7q-56 0 -79 48
q-7 14 -24 94q-10 -3 -21 -3h-7q0 -16 -1 -69q-1 -43 -1 -69q0 -12 -10 -12q-8 0 -8 10q0 26 1 73q1 51 1 72q-29 14 -29 45q0 35 29 36q-1 25 -3 82q-3 53 -3 82q0 19 11 19q17 0 17 -30q0 -28 -2 -78q-2 -54 -2 -78q24 -9 40 -50q36 33 36 126q0 61 -24 95q-21 29 -53 29
q-34 0 -60 -33q-29 -37 -29 -96q0 -54 21 -54q19 0 19 58q0 21 -4 35q0 1 -3 9l-1 6q-1 2 -1 4q0 6 5 6h2q19 -13 19 -63q0 -22 -7 -41q-10 -26 -29 -26q-23 0 -34 27q-9 20 -9 45q0 61 35 100q33 36 78 36q43 0 71 -35q31 -39 31 -109q0 -39 -13 -76q-15 -45 -43 -64
q8 -31 29 -91q20 -46 55 -46q6 0 6 -7zM329 464q-10 37 -23 46v-49h4q10 0 19 3zM288 467v47q-14 -2 -14 -19q0 -18 14 -28z" />
    <glyph glyph-name="copyright" unicode="&#xa9;" horiz-adv-x="904" 
d="M844 400q0 -166 -117 -283t-283 -117q-165 0 -282.5 117t-117.5 283t117.5 283t282.5 117q166 0 283 -117t117 -283zM821 400q0 156 -110 266t-266 110t-266 -110t-110 -266t110 -266t266 -110t266 110t110 266zM570 319q0 -51 -21 -117q-37 -114 -116 -114
q-62 0 -102 68q-44 78 -44 221q0 166 50 263q47 91 119 91q44 0 70.5 -50t26.5 -140q0 -101 -35 -187q-38 -97 -95 -97q-27 0 -47 26q-23 28 -23 73q0 40 16 67q12 21 20 21t8 -8q0 -1 -1 -3l-2 -3q-15 -29 -15 -70q0 -35 12.5 -59.5t31.5 -24.5q37 0 67 76q32 81 32 196
q0 84 -14.5 122t-48.5 38q-53 0 -94 -88q-45 -97 -45 -248q0 -260 111 -260q76 0 122 197q5 20 12 20q5 0 5 -10z" />
    <glyph glyph-name="trademark" unicode="&#x2122;" horiz-adv-x="743" 
d="M736 315q0 -23 -16 -42.5t-39 -19.5q-81 0 -78 226l-8 -56q-8 -55 -18 -81q-3 -9 -6 -9q-4 0 -9 27q-7 37 -12 95q-16 -72 -44 -122q-41 -74 -96 -74q-65 0 -99 76q-27 58 -27 132q0 58 24 106q30 60 82 60q38 0 59 -39q17 -31 17 -72q0 -14 -5 -37q-7 -30 -15 -30t-8 10
q0 4 5 23t5 31q0 33 -11 59q-15 34 -44 34q-42 0 -64 -62q-15 -44 -15 -95q0 -58 15 -103q21 -67 67 -67q70 0 113 107q34 84 34 166q0 29 -3.5 86.5t-3.5 86.5q0 118 22 118q18 0 18 -79q0 -74 -7 -160t-7 -73q0 -1 9 -150q4 3 17.5 91.5t13.5 102.5q0 76 10 162
q7 51 15 51q12 0 12 -45q0 -43 -9.5 -129t-9.5 -129q0 -63 10 -120q15 -95 51 -95q22 0 33.5 24t12.5 24q9 0 9 -9zM264 792q0 -5 -8 -18q6 -58 6 -110q0 -127 -18 -232q-31 -174 -101 -174q-48 0 -75 70q-20 52 -20 111q0 43 13 79q18 51 53 51q33 0 50 -45q11 -32 11 -72
q0 -11 -6 -35q-6 -29 -13 -29q-9 0 -9 13q0 7 4 22t4 23q0 31 -7 59q-10 40 -29 40q-22 0 -33 -46q-8 -32 -8 -67q0 -45 13 -90q17 -63 50 -63q94 0 94 353q0 49 -4 105q-37 -47 -85 -47q-30 0 -63 23.5t-44 52.5q-2 5 -2 6q0 12 11 12l5 -3q32 -61 87 -61q34 0 58 22
q15 14 30 41q12 23 17 23q19 0 19 -14z" />
    <glyph glyph-name="acute" unicode="&#xb4;" horiz-adv-x="149" 
d="M129 774q0 -13 -42 -59.5t-50 -46.5t-8 8q0 10 36 62t50 52t14 -16z" />
    <glyph glyph-name="dieresis" unicode="&#xa8;" horiz-adv-x="190" 
d="M165 747q0 -26 -25 -26q-26 0 -26 26t26 26q25 0 25 -26zM76 747q0 -26 -26 -26q-25 0 -25 26t25 26q26 0 26 -26z" />
    <glyph glyph-name="AE" unicode="&#xc6;" horiz-adv-x="905" 
d="M898 26q0 -81 -46 -131.5t-127 -50.5q-72 0 -120 58q-37 45 -64 133q-18 71 -37 142q-35 5 -77 5q-27 0 -50 -5q-96 -323 -231 -323q-66 0 -102 71q-34 65 -34 165q0 109 48 210q53 109 122 109q40 0 62 -39q19 -36 19 -93q0 -77 -32 -142q-33 -68 -79 -68q-7 0 -7 7
q0 8 8 8q30 0 54 48q27 53 27 138q0 127 -49 127t-91 -92t-42 -208q0 -218 83 -218q46 0 99 73q58 78 104 216q-48 -19 -45 -19q-21 0 -21 14q0 22 76 35q62 195 87 452q4 34 4 84v39v53q0 22 6.5 39.5t14.5 17.5t14.5 -17t6.5 -34q0 -29 -7.5 -89.5t-7.5 -99.5
q0 -91 18.5 -221.5t44.5 -228.5q43 -9 64 -20q51 64 116 82q-146 81 -146 256q0 123 71 214q66 84 140 84q60 0 91 -52q28 -46 28 -119q0 -87 -34 -160q-37 -75 -86 -75q-30 0 -54 34.5t-24 89.5q0 45 17 79q14 26 21 26q6 0 6 -7q0 6 -9 -23.5t-9 -69.5q0 -46 15 -79
t36 -33q37 0 63 67q25 64 25 144q0 70 -21 114q-25 50 -71 50q-59 0 -111 -76q-56 -82 -56 -190q0 -110 60 -185q52 -66 109 -66q17 0 31.5 2t17.5 2q17 0 17 -15q0 -7 -9 -16t-17 -9h-14q-10 1 -19 1q-85 0 -138 -60q-50 -56 -50 -135q0 -77 42 -130.5t103 -53.5
q63 0 98 47t35 118q0 51 -20 89q-16 32 -28 32q-6 0 -6 7q0 8 10 8q21 0 48 -42q29 -46 29 -95zM499 197q-42 170 -51 325q-27 -188 -65 -322q24 2 48 2q34 0 68 -5zM580 156q-14 8 -47 16l20 -73q9 30 27 57z" />
    <glyph glyph-name="Oslash" unicode="&#xd8;" horiz-adv-x="418" 
d="M462 815q0 -13 -12 -13q-2 0 -5.5 1t-4.5 1q-25 0 -79 -136q48 -123 48 -313q0 -195 -48 -339q-53 -156 -136 -156q-78 0 -131 89q-49 -95 -83 -95q-13 0 -23 11t-10 24q0 10 13 10q10 0 11.5 -10.5t9.5 -10.5q25 0 69 95q-66 132 -66 339q0 125 27 201q3 8 10 8
q4 0 4 -6q0 -2 -1 -5.5t-2 -6.5q-8 -58 -8 -142q0 -221 51 -351q28 66 70 186q-42 38 -68 130q-23 85 -23 186q0 121 35 198q39 88 111 88q79 0 128 -102q59 130 96 130q17 0 17 -11zM336 665q-42 114 -113 114q-48 0 -80 -64q-35 -70 -35 -191q0 -93 17 -176
q18 -88 49 -130q41 117 81 235q48 135 81 212zM281 319q0 51 -12 88q-25 -71 -74 -211q13 -9 27 -9q25 0 42 39t17 93zM377 376q0 148 -30 254q-24 -63 -70 -197q32 -41 32 -120q0 -68 -28 -106q-25 -33 -60 -33q-16 0 -32 7q-46 -126 -80 -200q41 -80 102 -80q75 0 122 151
q44 137 44 324z" />
    <glyph glyph-name="ordfeminine" unicode="&#xaa;" horiz-adv-x="263" 
d="M260 577q0 -26 -24 -83q-28 -65 -55 -65q-40 0 -45 69l-2 1q-45 -97 -82 -97q-39 0 -39 80q0 73 47 138q44 64 91 68q3 32 3 39q0 50 -32 50q-18 0 -34 -22.5t-16 -53.5q0 -21 -13 -21q-15 0 -15 21q0 27 24 57q25 34 54 34q57 0 57 -82q0 -32 -7 -97.5t-7 -93.5
q0 -54 18 -54q19 0 39 45q18 39 20 65q1 10 9 10q9 0 9 -8zM232 353q0 -11 -9 -11q-14 0 -42.5 3t-42.5 3q-16 0 -48.5 -3.5t-48.5 -3.5q-23 0 -23 11q0 18 40 18q89 0 164 -7q10 -1 10 -10zM150 669q-40 -6 -75 -60t-35 -111q0 -43 25 -43q22 0 52 53t30 87q0 30 3 74z" />
    <glyph glyph-name="ordmasculine" unicode="&#xba;" horiz-adv-x="311" 
d="M307 582q0 -41 -33.5 -83t-73.5 -42q-8 0 -16 2q-24 -23 -54 -23q-44 0 -72 49t-28 129q0 74 30.5 126.5t72.5 52.5q43 0 73.5 -52.5t30.5 -126.5q0 -78 -33 -130q57 1 86 97q3 11 10 11t7 -10zM242 392q0 -11 -9 -11q-14 0 -42.5 3t-42.5 3q-17 0 -49 -3.5t-49 -3.5
q-22 0 -22 11q0 18 39 18q90 0 164 -7q11 -1 11 -10zM208 627q0 50 -14 93q-29 -6 -52 -29q-31 -33 -31 -87q0 -39 18.5 -72t47.5 -44q31 56 31 139zM188 733q-18 42 -48 42q-38 0 -62 -65q-18 -53 -18 -109q0 -51 15 -94q19 -55 53 -55q19 0 34 16q-29 16 -48.5 52.5
t-19.5 78.5q0 58 33 97q27 32 61 37z" />
    <glyph glyph-name="ae" unicode="&#xe6;" horiz-adv-x="304" 
d="M351 132q0 -43 -37.5 -88t-81.5 -45q-81 0 -97 79h-1q-45 -96 -82 -96q-39 0 -39 79q0 73 46 139q45 63 92 68q2 32 2 38q0 51 -31 51q-18 0 -34.5 -23t-16.5 -53q0 -22 -12 -22q-15 0 -15 22q0 27 24.5 58.5t53.5 31.5q23 0 38 -16q11 38 49 38q27 0 47 -25
q16 -21 16 -38q0 -11 -9 -11q-1 0 -10 22t-32 22q-31 0 -31 -45q0 -36 18.5 -72.5t40.5 -36.5q15 0 15 -12q0 -11 -21 -11q-39 0 -62.5 -29.5t-23.5 -65.5q0 -66 60 -66q43 0 78 36q31 32 39 69q4 15 10 15q7 0 7 -13zM211 208q-18 16 -33 46q-3 -25 -7 -68q16 15 40 22z
M150 249q-40 -6 -75 -60t-35 -111q0 -43 25 -43q24 0 53 52t29 88q0 30 3 74z" />
    <glyph glyph-name="oslash" unicode="&#xf8;" horiz-adv-x="254" 
d="M303 137q0 -42 -32 -82q-35 -44 -75 -44q-8 0 -16 2q-23 -22 -54 -22q-33 0 -58 29q-22 -29 -41 -29q-8 0 -14.5 9t-6.5 18q0 6 8 6q6 0 7 -7t6 -7q14 0 30 25q-31 49 -31 134q0 74 30.5 126t73.5 52q30 0 55 -28q28 46 51 46q11 0 11 -7q0 -8 -8 -8q-1 0 -3 1h-4
q-14 0 -37 -45q38 -53 38 -137q0 -78 -33 -131q57 1 86 98q4 10 10 10q7 0 7 -9zM156 260q-49 -33 -49 -102q0 -8 1 -16q16 40 48 118zM205 181q0 50 -15 93q-5 -1 -10 -3q-21 -54 -65 -161q18 -52 58 -68q32 56 32 139zM176 303q-16 27 -40 27q-38 0 -61 -66
q-19 -52 -19 -109q0 -52 16 -96q10 21 24 53q-6 20 -6 41q0 50 25 87q21 30 51 42q5 12 10 21zM158 22q-34 20 -54 64q-12 -28 -24 -47q18 -33 44 -33q19 0 34 16z" />
    <glyph glyph-name="questiondown" unicode="&#xbf;" horiz-adv-x="396" 
d="M298 755q0 -12 -11 -20.5t-23 -8.5q-13 0 -24 8.5t-11 20.5q0 13 10.5 21.5t24.5 8.5q13 0 23.5 -8.5t10.5 -21.5zM350 173q0 -78 -46 -133q-49 -58 -125 -58q-69 0 -111 51q-38 47 -38 118q0 83 65 173l122 146q65 82 65 143q0 28 -18 50.5t-18 21.5q0 9 12 9
q19 0 34 -27q12 -24 12 -46q0 -67 -61 -153q-57 -75 -114 -151q-61 -94 -61 -181q0 -54 26 -92q29 -44 82 -44q66 0 107 61q36 54 36 123q0 80 -39 80q-20 0 -30 -32q-8 -23 -8 -50q0 -36 21 -73q-1 -5 -8 -5q-15 0 -27 34q-9 28 -9 47q0 34 14 62q19 33 49 33q36 0 54 -38
q14 -29 14 -69z" />
    <glyph glyph-name="exclamdown" unicode="&#xa1;" horiz-adv-x="173" 
d="M127 753q0 -30 -32 -30t-32 30t32 30t32 -30zM111 659q0 -51 -6 -134q-7 -103 -8 -134q-5 -118 -5 -209q0 -23 1.5 -70.5t1.5 -70.5v-30q-3 -18 -18 -18q-28 0 -28 35q0 -11 11 123q6 86 22 498q1 25 15 25t14 -15z" />
    <glyph glyph-name="guillemotleft" unicode="&#xab;" horiz-adv-x="369" 
d="M318 433q0 -10 -111 -130q21 -23 64.5 -80t43.5 -63q0 -10 -11 -10q-8 0 -75.5 71.5t-67.5 81.5t69 75t76 65q12 0 12 -10zM218 433q0 -10 -111 -130q21 -23 64.5 -80t43.5 -63q0 -10 -11 -10q-8 0 -75.5 71.5t-67.5 81.5t69 75t76 65q12 0 12 -10z" />
    <glyph glyph-name="guillemotright" unicode="&#xbb;" horiz-adv-x="410" 
d="M363 289q0 -10 -69 -75t-77 -65q-11 0 -11 10q0 7 110 130q-21 24 -64 80.5t-43 62.5q0 10 11 10q8 0 75.5 -71.5t67.5 -81.5zM255 289q0 -10 -69 -75t-77 -65q-11 0 -11 10q0 7 110 130q-21 24 -64 80.5t-43 62.5q0 10 11 10q8 0 75.5 -71.5t67.5 -81.5z" />
    <glyph glyph-name="ellipsis" unicode="&#x2026;" horiz-adv-x="344" 
d="M303 12q0 -30 -27 -30t-27 30q0 31 27 31t27 -31zM203 12q0 -30 -27 -30t-27 30q0 31 27 31t27 -31zM104 12q0 -30 -27 -30t-27 30q0 31 27 31t27 -31z" />
    <glyph glyph-name="nonbreakingspace" unicode="&#xa0;" horiz-adv-x="225" 
 />
    <glyph glyph-name="Agrave" unicode="&#xc0;" horiz-adv-x="628" 
d="M703 -73q0 -15 -21 -15q-107 0 -177 265q-35 5 -77 5q-27 0 -50 -5q-97 -323 -231 -323q-66 0 -103 71q-33 65 -33 165q0 109 48 210q53 109 122 109q40 0 62 -39q19 -36 19 -93q0 -77 -32 -142q-33 -68 -79 -68q-7 0 -7 7q0 8 8 8q30 0 54 48q27 53 27 138
q0 127 -49 127t-91 -92t-42 -208q0 -218 83 -218q46 0 99 73q57 78 104 216q-48 -19 -45 -19q-21 0 -21 14q0 22 76 35q62 195 87 452q4 34 4 84v39q-1 34 -1 53q0 22 6.5 39.5t15.5 17.5q8 0 14.5 -17t6.5 -34q0 -29 -7.5 -89.5t-7.5 -99.5q0 -91 18.5 -221.5t44.5 -228.5
q21 -4 54 -16q46 -17 46 -26q0 -7 -9 -7q-11 0 -32 10q-28 13 -33 14l-20 6q66 -233 161 -233q8 0 8 -12zM500 197q-42 170 -51 325q-27 -188 -65 -322q23 2 48 2q34 0 68 -5zM493 940q0 -8 -8 -8t-50 46.5t-42 58.5q0 16 14 16t50 -51.5t36 -61.5z" />
    <glyph glyph-name="Atilde" unicode="&#xc3;" horiz-adv-x="628" 
d="M703 -73q0 -15 -21 -15q-107 0 -177 265q-35 5 -77 5q-27 0 -50 -5q-97 -323 -231 -323q-66 0 -103 71q-33 65 -33 165q0 109 48 210q53 109 122 109q40 0 62 -39q19 -36 19 -93q0 -77 -32 -142q-33 -68 -79 -68q-7 0 -7 7q0 8 8 8q30 0 54 48q27 53 27 138
q0 127 -49 127t-91 -92t-42 -208q0 -218 83 -218q46 0 99 73q57 78 104 216q-48 -19 -45 -19q-21 0 -21 14q0 22 76 35q62 195 87 452q4 34 4 84v39q-1 34 -1 53q0 22 6.5 39.5t15.5 17.5q8 0 14.5 -17t6.5 -34q0 -29 -7.5 -89.5t-7.5 -99.5q0 -91 18.5 -221.5t44.5 -228.5
q21 -4 54 -16q46 -17 46 -26q0 -7 -9 -7q-11 0 -32 10q-28 13 -33 14l-20 6q66 -233 161 -233q8 0 8 -12zM500 197q-42 170 -51 325q-27 -188 -65 -322q23 2 48 2q34 0 68 -5zM540 965q0 -19 -13 -33t-32 -14q-14 0 -39 14.5t-39 14.5q-19 0 -30 -13q-5 -7 -9 -14q-3 1 -3 9
q0 18 14.5 33t33.5 15t45.5 -13.5t34.5 -13.5q12 0 22.5 11.5t9.5 11.5q5 0 5 -8z" />
    <glyph glyph-name="Otilde" unicode="&#xd5;" horiz-adv-x="418" 
d="M409 355q0 -195 -48 -339q-53 -156 -136 -156q-102 0 -160 149q-50 128 -50 303q0 125 27 201q3 8 10 8q4 0 4 -6q0 -2 -1 -5.5t-2 -6.5q-8 -58 -8 -142q0 -177 35 -303q45 -157 131 -157q75 0 122 151q44 137 44 324q0 169 -38 279q-41 124 -116 124q-48 0 -80 -64
q-35 -70 -35 -191q0 -129 30 -229q34 -108 84 -108q25 0 42 39t17 93q0 49 -12 86t-12 30q0 8 9 8t23 -30q20 -40 20 -100q0 -68 -28 -106q-25 -33 -60 -33q-66 0 -108 107q-38 98 -38 231q0 121 35 198q39 88 111 88q92 0 143 -137q45 -121 45 -306zM308 890q0 -20 -13 -34
t-33 -14q-14 0 -39 14.5t-39 14.5q-18 0 -29 -13l-10 -14q-2 2 -2 9q0 19 14.5 33.5t33.5 14.5t45.5 -13.5t34.5 -13.5q12 0 22.5 12t9.5 12q5 0 5 -8z" />
    <glyph glyph-name="OE" unicode="&#x152;" horiz-adv-x="702" 
d="M695 26q0 -81 -44 -131q-47 -51 -129 -51q-57 0 -105 37q-53 42 -68 113q-52 -134 -128 -134q-102 0 -160 149q-50 128 -50 303q0 125 27 201q3 8 9 8q5 0 5 -6q0 -2 -1.5 -5.5t-1.5 -6.5q-9 -58 -9 -142q0 -177 36 -303q45 -157 130 -157q76 0 123 151q43 137 43 324v35
q-13 44 -13 98q0 18 2 36q-36 234 -143 234q-48 0 -79 -64q-35 -70 -35 -191q0 -129 30 -229q33 -108 84 -108q25 0 42 39t17 93q0 49 -12 86t-12 30q0 8 8 8q9 0 24 -30q20 -40 20 -100q0 -68 -29 -106q-25 -33 -59 -33q-67 0 -108 107q-38 98 -38 231q0 121 34 198
q40 88 112 88q107 0 157 -183q26 84 83 138t113 54q59 0 91 -52q28 -46 28 -119q0 -87 -35.5 -161t-84.5 -74q-31 0 -55 34.5t-24 89.5q0 45 18 79q14 26 20 26q7 0 7 -7q0 6 -9 -23.5t-9 -69.5q0 -46 15 -79t36 -33q37 0 63 67q25 64 25 144q0 70 -22 114q-24 50 -70 50
q-59 0 -111 -76q-57 -82 -57 -190q0 -110 60 -185q53 -66 110 -66q17 0 31.5 2t17.5 2q17 0 17 -15q0 -7 -9 -16t-17 -9h-14q-10 1 -19 1q-85 0 -139 -60q-50 -56 -50 -135q0 -77 42 -130.5t104 -53.5t99 48q34 46 34 117q0 51 -20 89q-16 32 -28 32q-6 0 -6 7q0 8 10 8
q21 0 47 -42q29 -46 29 -95zM504 253q-28 16 -45 29q-32 25 -54 58q-1 -84 -12 -164q50 60 111 77z" />
    <glyph glyph-name="oe" unicode="&#x153;" horiz-adv-x="372" 
d="M419 132q0 -43 -37.5 -88t-80.5 -45q-67 0 -91 57q-31 -65 -84 -65q-44 0 -72 48.5t-28 129.5q0 74 30.5 126t73.5 52q41 0 70.5 -49t32.5 -119q19 21 46 29q-15 14 -29 39q-24 43 -24 88q0 27 14.5 42.5t36.5 15.5q27 0 47 -25q17 -21 17 -38q0 -11 -10 -11q-1 0 -10 22
t-32 22q-31 0 -31 -45q0 -36 18.5 -72.5t41.5 -36.5q15 0 15 -12q0 -11 -22 -11q-39 0 -62.5 -29.5t-23.5 -65.5q0 -66 61 -66q42 0 77 36q31 32 39 69q4 15 11 15q6 0 6 -13zM205 167q0 65 -18 112q-20 51 -51 51q-38 0 -61 -66q-19 -52 -19 -109q0 -51 15 -94
q19 -55 53 -55q40 0 62 50q19 44 19 111z" />
    <glyph glyph-name="endash" unicode="&#x2013;" horiz-adv-x="355" 
d="M315 232q0 -14 -11 -14q-19 0 -55 4t-55 4q-21 0 -62.5 -5t-62.5 -5q-28 0 -28 14q0 25 50 25q115 0 210 -9q14 -1 14 -14z" />
    <glyph glyph-name="emdash" unicode="&#x2014;" horiz-adv-x="557" 
d="M511 232q0 -14 -19 -14q-32 0 -94 4t-94 4q-36 0 -107 -5t-107 -5q-49 0 -49 14q0 25 86 25q197 0 361 -9q23 -1 23 -14z" />
    <glyph glyph-name="quotedblleft" unicode="&#x201c;" horiz-adv-x="183" 
d="M154 562q0 -30 -27 -30t-27 30t10.5 69t23.5 59q3 4 6 4q6 0 6 -5q0 1 -7.5 -19.5t-7.5 -44.5q0 -16 11.5 -34.5t11.5 -28.5zM77 562q0 -30 -27 -30t-27 30t10.5 69t23.5 59q2 4 6 4q6 0 6 -5q0 1 -7.5 -19.5t-7.5 -44.5q0 -16 11.5 -34.5t11.5 -28.5z" />
    <glyph glyph-name="quotedblright" unicode="&#x201d;" horiz-adv-x="197" 
d="M169 664q0 -30 -10.5 -69t-23.5 -59q-3 -4 -7 -4q-5 0 -5 5q0 -1 7 19.5t7 44.5q0 16 -11.5 34.5t-11.5 27.5q0 31 27 31q28 0 28 -30zM91 664q0 -30 -10 -69t-23 -59q-3 -4 -7 -4q-6 0 -6 5q0 -1 7.5 19.5t7.5 44.5q0 16 -11.5 34.5t-11.5 27.5q0 31 27 31t27 -30z" />
    <glyph glyph-name="quoteleft" unicode="&#x2018;" horiz-adv-x="107" 
d="M77 562q0 -30 -27 -30t-27 30t10.5 69t23.5 59q2 4 6 4q6 0 6 -5q0 1 -7.5 -19.5t-7.5 -44.5q0 -16 11.5 -34.5t11.5 -28.5z" />
    <glyph glyph-name="quoteright" unicode="&#x2019;" horiz-adv-x="110" 
d="M91 664q0 -30 -10.5 -69t-23.5 -59q-2 -4 -6 -4q-6 0 -6 5q0 -1 7.5 19.5t7.5 44.5q0 16 -11.5 34.5t-11.5 27.5q0 31 27 31t27 -30z" />
    <glyph glyph-name="ydieresis" unicode="&#xff;" horiz-adv-x="183" 
d="M186 454q0 -27 -17 -145t-17 -168q0 -48 5 -103.5t5 -88.5q0 -195 -125 -195q-29 0 -29 17q0 10 8 18t18 8q6 0 13 -5t13 -5q58 0 74 86q6 32 6 136q0 70 -6 86q-3 -21 -15 -47q-17 -38 -36 -38q-20 0 -34 30q-18 39 -18 112v17q0 146 22 146q12 0 12 -63q0 -20 -6.5 -64
t-6.5 -52q0 -80 34 -80q24 0 37 58q13 52 13 132q0 98 7 180q10 106 27 106q16 0 16 -78zM178 613q0 -25 -26 -25t-26 25q0 26 26 26t26 -26zM88 613q0 -25 -25 -25q-26 0 -26 25q0 26 26 26q25 0 25 -26z" />
    <glyph glyph-name="Ydieresis" unicode="&#x178;" horiz-adv-x="529" 
d="M500 -25q0 -74 -54.5 -128.5t-135.5 -54.5q-59 0 -96 28q-42 32 -42 90q0 22 11 49q8 21 15 27q4 4 10 4q8 0 8 -6v-2q-23 -30 -23 -71q0 -43 36.5 -70t85.5 -27q144 0 144 175q0 76 -16 239q-33 -158 -117 -158q-80 0 -80 154q0 57 14 194t14 198q0 187 -86 187
q-56 0 -97 -83q-44 -91 -44 -238q0 -112 29 -187q27 -68 61 -68q26 0 45 42q21 48 21 134q0 51 -13.5 96t-33.5 61q-4 3 -4 8q0 9 7 9q3 0 7 -2q31 -21 48.5 -69.5t17.5 -104.5q0 -89 -31 -142q-26 -47 -64 -47q-48 0 -86 72q-42 79 -42 197q0 154 55 249q49 87 119 87
q126 0 126 -246q0 -67 -12 -199t-12 -178q0 -107 45 -107q41 0 73 76q29 70 30 144v28q0 66 -7.5 184t-7.5 174q0 29 22 29q18 0 18 -43v-76q-1 -50 -1 -75q0 -108 21.5 -270.5t21.5 -282.5zM433 826q0 -26 -26 -26q-25 0 -25 26t25 26q26 0 26 -26zM344 826q0 -26 -26 -26
q-25 0 -25 26t25 26q26 0 26 -26z" />
    <glyph glyph-name="guilsinglleft" unicode="&#x2039;" horiz-adv-x="272" 
d="M218 433q0 -10 -111 -130q21 -23 64.5 -80t43.5 -63q0 -10 -11 -10q-8 0 -75.5 71.5t-67.5 81.5t69 75t76 65q12 0 12 -10z" />
    <glyph glyph-name="guilsinglright" unicode="&#x203a;" horiz-adv-x="299" 
d="M255 289q0 -10 -69 -75t-77 -65q-11 0 -11 10q0 7 110 130q-21 24 -64 80.5t-43 62.5q0 10 11 10q8 0 75.5 -71.5t67.5 -81.5z" />
    <glyph glyph-name="daggerdbl" unicode="&#x2021;" horiz-adv-x="245" 
d="M230 622q0 -12 -10 -12q-14 0 -41 3t-41 3q-2 -43 -5 -95q50 -2 85 -6q11 -1 11 -12q0 -12 -10 -12q-13 0 -42 3q-34 3 -45 4q-2 -71 -7 -211q-1 -21 -13 -21t-12 14q0 38 5 101q5 76 6 100l1 16q-60 -8 -68 -8q-23 0 -23 13q0 20 39 20h53q1 50 1 93l-70 -7
q-23 0 -23 13q0 20 39 20q28 0 55 -1q0 17 -1.5 53t-1.5 53q0 38 15 38q23 0 23 -28q0 13 -8 -93l-2 -23q41 -2 78 -6q12 -1 12 -12z" />
    <glyph glyph-name="periodcentered" unicode="&#xb7;" horiz-adv-x="144" 
d="M104 212q0 -30 -27 -30t-27 30q0 31 27 31t27 -31z" />
    <glyph glyph-name="periodcentered" unicode="&#x2219;" horiz-adv-x="144" 
d="M104 212q0 -30 -27 -30t-27 30q0 31 27 31t27 -31z" />
    <glyph glyph-name="quotesinglbase" unicode="&#x201a;" horiz-adv-x="144" 
d="M105 13q0 -30 -10 -69t-23 -59q-3 -4 -7 -4q-5 0 -5 5q0 -1 7 19.5t7 44.5q0 16 -11.5 34.5t-11.5 27.5q0 31 27 31t27 -30z" />
    <glyph glyph-name="quotedblbase" unicode="&#x201e;" horiz-adv-x="203" 
d="M183 13q0 -30 -10.5 -69t-23.5 -59q-3 -4 -6 -4q-6 0 -6 5q0 -1 7.5 19.5t7.5 44.5q0 16 -11.5 34.5t-11.5 27.5q0 31 27 31t27 -30zM105 13q0 -30 -10 -69t-23 -59q-3 -4 -7 -4q-5 0 -5 5q0 -1 7 19.5t7 44.5q0 16 -11.5 34.5t-11.5 27.5q0 31 27 31t27 -30z" />
    <glyph glyph-name="perthousand" unicode="&#x2030;" horiz-adv-x="827" 
d="M792 209q0 -92 -32.5 -158t-79.5 -66t-79.5 66t-32.5 158t32.5 158t79.5 66t79.5 -66t32.5 -158zM536 209q0 -92 -32 -158t-79 -66q-48 0 -80 66t-32 158t32 158t80 66q47 0 79 -66t32 -158zM456 762q0 -25 -76 -198q-48 -110 -96 -219l-45 -113q-32 -79 -107 -253
q-7 -17 -16 -17q-13 0 -13 14q0 11 70 173q42 98 85 195q32 77 92 232q8 25 29 89q-54 -73 -116 -88v-1q0 -92 -32 -158t-79 -66q-48 0 -80 66t-32 158t32 158t80 66q44 0 75.5 -58.5t35.5 -143.5q46 13 88 62q24 29 65 96q17 29 24 29q16 0 16 -23zM762 209q0 85 -24.5 145
t-57.5 60t-57.5 -60t-24.5 -145q0 -86 25 -146.5t57 -60.5t57 60.5t25 146.5zM233 593q-3 108 -42 162q-23 0 -39.5 -24.5t-16.5 -55.5q0 -35 21 -56q24 -26 70 -26h7zM234 573h-2q-60 0 -92 31q-27 27 -27 69q0 34 19 61.5t50 31.5q-15 15 -30 15q-33 0 -57.5 -60
t-24.5 -145q0 -86 24.5 -146.5t57.5 -60.5q32 0 56.5 60t25.5 144zM507 209q0 85 -25 145t-57 60q-33 0 -57.5 -60t-24.5 -145q0 -86 24.5 -146.5t57.5 -60.5q32 0 57 60.5t25 146.5z" />
    <glyph glyph-name="Acircumflex" unicode="&#xc2;" horiz-adv-x="628" 
d="M703 -73q0 -15 -21 -15q-107 0 -177 265q-35 5 -77 5q-27 0 -50 -5q-97 -323 -231 -323q-66 0 -103 71q-33 65 -33 165q0 109 48 210q53 109 122 109q40 0 62 -39q19 -36 19 -93q0 -77 -32 -142q-33 -68 -79 -68q-7 0 -7 7q0 8 8 8q30 0 54 48q27 53 27 138
q0 127 -49 127t-91 -92t-42 -208q0 -218 83 -218q46 0 99 73q57 78 104 216q-48 -19 -45 -19q-21 0 -21 14q0 22 76 35q62 195 87 452q4 34 4 84v39q-1 34 -1 53q0 22 6.5 39.5t15.5 17.5q8 0 14.5 -17t6.5 -34q0 -29 -7.5 -89.5t-7.5 -99.5q0 -91 18.5 -221.5t44.5 -228.5
q21 -4 54 -16q46 -17 46 -26q0 -7 -9 -7q-11 0 -32 10q-28 13 -33 14l-20 6q66 -233 161 -233q8 0 8 -12zM500 197q-42 170 -51 325q-27 -188 -65 -322q23 2 48 2q34 0 68 -5zM552 888q0 -8 -7 -8q-6 0 -33.5 28t-45.5 52q-18 -24 -45.5 -52t-32.5 -28q-8 0 -8 8t29 51
q31 47 48 59q5 3 9 3q5 0 9 -3q17 -12 48 -59q29 -43 29 -51z" />
    <glyph glyph-name="Ecircumflex" unicode="&#xca;" horiz-adv-x="372" 
d="M365 26q0 -81 -45.5 -131.5t-127.5 -50.5q-68 0 -120 50q-59 57 -59 152q0 84 65 147q47 47 96 60q-145 81 -145 256q0 123 70 214q66 84 141 84q59 0 91 -52q28 -46 28 -119q0 -87 -35.5 -161t-84.5 -74q-31 0 -55 34.5t-24 89.5q0 45 18 79q13 26 20 26t7 -7
q0 6 -9 -23.5t-9 -69.5q0 -46 15 -79t36 -33q37 0 63 67q24 64 24 144q0 70 -21 114q-24 50 -70 50q-59 0 -112 -76q-56 -82 -56 -190q0 -110 60 -185q53 -66 109 -66q17 0 32 2t18 2q17 0 17 -15q0 -7 -9 -16t-18 -9h-13q-10 1 -19 1q-85 0 -139 -60q-50 -56 -50 -135
q0 -77 42 -130.5t104 -53.5t97 47t35 118q0 51 -19 89q-16 32 -28 32q-6 0 -6 7q0 8 9 8q21 0 48 -42q29 -46 29 -95zM315 840q0 -8 -7 -8q-6 0 -33.5 28.5t-45.5 52.5q-18 -24 -45.5 -52.5t-32.5 -28.5q-8 0 -8 8q0 9 30 53.5t47 56.5q5 4 9 4q5 0 9 -4q17 -12 47 -56.5
t30 -53.5z" />
    <glyph glyph-name="Aacute" unicode="&#xc1;" horiz-adv-x="628" 
d="M703 -73q0 -15 -21 -15q-107 0 -177 265q-35 5 -77 5q-27 0 -50 -5q-97 -323 -231 -323q-66 0 -103 71q-33 65 -33 165q0 109 48 210q53 109 122 109q40 0 62 -39q19 -36 19 -93q0 -77 -32 -142q-33 -68 -79 -68q-7 0 -7 7q0 8 8 8q30 0 54 48q27 53 27 138
q0 127 -49 127t-91 -92t-42 -208q0 -218 83 -218q46 0 99 73q57 78 104 216q-48 -19 -45 -19q-21 0 -21 14q0 22 76 35q62 195 87 452q4 34 4 84v39q-1 34 -1 53q0 22 6.5 39.5t15.5 17.5q8 0 14.5 -17t6.5 -34q0 -29 -7.5 -89.5t-7.5 -99.5q0 -91 18.5 -221.5t44.5 -228.5
q21 -4 54 -16q46 -17 46 -26q0 -7 -9 -7q-11 0 -32 10q-28 13 -33 14l-20 6q66 -233 161 -233q8 0 8 -12zM500 197q-42 170 -51 325q-27 -188 -65 -322q23 2 48 2q34 0 68 -5zM533 1036q0 -12 -42.5 -58.5t-50.5 -46.5q-7 0 -7 8q0 10 36 61.5t49 51.5q15 0 15 -16z" />
    <glyph glyph-name="Edieresis" unicode="&#xcb;" horiz-adv-x="372" 
d="M365 26q0 -81 -45.5 -131.5t-127.5 -50.5q-68 0 -120 50q-59 57 -59 152q0 84 65 147q47 47 96 60q-145 81 -145 256q0 123 70 214q66 84 141 84q59 0 91 -52q28 -46 28 -119q0 -87 -35.5 -161t-84.5 -74q-31 0 -55 34.5t-24 89.5q0 45 18 79q13 26 20 26t7 -7
q0 6 -9 -23.5t-9 -69.5q0 -46 15 -79t36 -33q37 0 63 67q24 64 24 144q0 70 -21 114q-24 50 -70 50q-59 0 -112 -76q-56 -82 -56 -190q0 -110 60 -185q53 -66 109 -66q17 0 32 2t18 2q17 0 17 -15q0 -7 -9 -16t-18 -9h-13q-10 1 -19 1q-85 0 -139 -60q-50 -56 -50 -135
q0 -77 42 -130.5t104 -53.5t97 47t35 118q0 51 -19 89q-16 32 -28 32q-6 0 -6 7q0 8 9 8q21 0 48 -42q29 -46 29 -95zM297 883q0 -26 -25 -26q-26 0 -26 26t26 26q25 0 25 -26zM208 883q0 -26 -26 -26q-25 0 -25 26t25 26q26 0 26 -26z" />
    <glyph glyph-name="Egrave" unicode="&#xc8;" horiz-adv-x="372" 
d="M365 26q0 -81 -45.5 -131.5t-127.5 -50.5q-68 0 -120 50q-59 57 -59 152q0 84 65 147q47 47 96 60q-145 81 -145 256q0 123 70 214q66 84 141 84q59 0 91 -52q28 -46 28 -119q0 -87 -35.5 -161t-84.5 -74q-31 0 -55 34.5t-24 89.5q0 45 18 79q13 26 20 26t7 -7
q0 6 -9 -23.5t-9 -69.5q0 -46 15 -79t36 -33q37 0 63 67q24 64 24 144q0 70 -21 114q-24 50 -70 50q-59 0 -112 -76q-56 -82 -56 -190q0 -110 60 -185q53 -66 109 -66q17 0 32 2t18 2q17 0 17 -15q0 -7 -9 -16t-18 -9h-13q-10 1 -19 1q-85 0 -139 -60q-50 -56 -50 -135
q0 -77 42 -130.5t104 -53.5t97 47t35 118q0 51 -19 89q-16 32 -28 32q-6 0 -6 7q0 8 9 8q21 0 48 -42q29 -46 29 -95zM246 865q0 -8 -8 -8t-50 47t-42 59q0 16 14 16t50 -52t36 -62z" />
    <glyph glyph-name="Iacute" unicode="&#xcd;" horiz-adv-x="355" 
d="M349 432q0 -205 -54 -348q-63 -166 -176 -166q-40 0 -65.5 24t-25.5 50q0 15 19 15q14 0 14 -13q0 -24 15 -41q18 -21 50 -21q90 0 139 164q43 141 43 342q0 152 -30 248q-33 107 -93 107q-56 0 -89 -80q-31 -74 -31 -186q0 -96 30 -160q27 -58 61 -58q26 0 44 36
q21 41 21 114q0 45 -13 83t-33 52q-4 3 -4 7q0 7 7 7q3 0 7 -2q30 -17 47.5 -58.5t17.5 -89.5q0 -76 -30 -121q-27 -40 -65 -40q-48 0 -88 61q-44 68 -44 168q0 121 45.5 201t113.5 80q80 0 126 -114q41 -103 41 -261zM270 960q0 -12 -42 -58.5t-51 -46.5q-7 0 -7 8
q0 10 36 61.5t49 51.5q15 0 15 -16z" />
    <glyph glyph-name="Icircumflex" unicode="&#xce;" horiz-adv-x="355" 
d="M349 432q0 -205 -54 -348q-63 -166 -176 -166q-40 0 -65.5 24t-25.5 50q0 15 19 15q14 0 14 -13q0 -24 15 -41q18 -21 50 -21q90 0 139 164q43 141 43 342q0 152 -30 248q-33 107 -93 107q-56 0 -89 -80q-31 -74 -31 -186q0 -96 30 -160q27 -58 61 -58q26 0 44 36
q21 41 21 114q0 45 -13 83t-33 52q-4 3 -4 7q0 7 7 7q3 0 7 -2q30 -17 47.5 -58.5t17.5 -89.5q0 -76 -30 -121q-27 -40 -65 -40q-48 0 -88 61q-44 68 -44 168q0 121 45.5 201t113.5 80q80 0 126 -114q41 -103 41 -261zM268 845q0 -8 -7 -8q-6 0 -33.5 28.5t-45.5 52.5
q-18 -24 -45.5 -52.5t-33.5 -28.5q-7 0 -7 8q0 9 30 53.5t47 56.5q5 4 9 4q5 0 9 -4q17 -12 47 -56.5t30 -53.5z" />
    <glyph glyph-name="Idieresis" unicode="&#xcf;" horiz-adv-x="355" 
d="M349 432q0 -205 -54 -348q-63 -166 -176 -166q-40 0 -65.5 24t-25.5 50q0 15 19 15q14 0 14 -13q0 -24 15 -41q18 -21 50 -21q90 0 139 164q43 141 43 342q0 152 -30 248q-33 107 -93 107q-56 0 -89 -80q-31 -74 -31 -186q0 -96 30 -160q27 -58 61 -58q26 0 44 36
q21 41 21 114q0 45 -13 83t-33 52q-4 3 -4 7q0 7 7 7q3 0 7 -2q30 -17 47.5 -58.5t17.5 -89.5q0 -76 -30 -121q-27 -40 -65 -40q-48 0 -88 61q-44 68 -44 168q0 121 45.5 201t113.5 80q80 0 126 -114q41 -103 41 -261zM253 892q0 -26 -26 -26t-26 26t26 26t26 -26zM163 892
q0 -26 -25 -26q-26 0 -26 26t26 26q25 0 25 -26z" />
    <glyph glyph-name="Igrave" unicode="&#xcc;" horiz-adv-x="355" 
d="M349 432q0 -205 -54 -348q-63 -166 -176 -166q-40 0 -65.5 24t-25.5 50q0 15 19 15q14 0 14 -13q0 -24 15 -41q18 -21 50 -21q90 0 139 164q43 141 43 342q0 152 -30 248q-33 107 -93 107q-56 0 -89 -80q-31 -74 -31 -186q0 -96 30 -160q27 -58 61 -58q26 0 44 36
q21 41 21 114q0 45 -13 83t-33 52q-4 3 -4 7q0 7 7 7q3 0 7 -2q30 -17 47.5 -58.5t17.5 -89.5q0 -76 -30 -121q-27 -40 -65 -40q-48 0 -88 61q-44 68 -44 168q0 121 45.5 201t113.5 80q80 0 126 -114q41 -103 41 -261zM203 854q0 -8 -8 -8t-50 46.5t-42 58.5q0 16 14 16
t50 -51.5t36 -61.5z" />
    <glyph glyph-name="Oacute" unicode="&#xd3;" horiz-adv-x="418" 
d="M409 355q0 -195 -48 -339q-53 -156 -136 -156q-102 0 -160 149q-50 128 -50 303q0 125 27 201q3 8 10 8q4 0 4 -6q0 -2 -1 -5.5t-2 -6.5q-8 -58 -8 -142q0 -177 35 -303q45 -157 131 -157q75 0 122 151q44 137 44 324q0 169 -38 279q-41 124 -116 124q-48 0 -80 -64
q-35 -70 -35 -191q0 -129 30 -229q34 -108 84 -108q25 0 42 39t17 93q0 49 -12 86t-12 30q0 8 9 8t23 -30q20 -40 20 -100q0 -68 -28 -106q-25 -33 -60 -33q-66 0 -108 107q-38 98 -38 231q0 121 35 198q39 88 111 88q92 0 143 -137q45 -121 45 -306zM309 955
q0 -12 -42 -58.5t-51 -46.5q-7 0 -7 8q0 10 36 61.5t49 51.5q15 0 15 -16z" />
    <glyph glyph-name="Ocircumflex" unicode="&#xd4;" horiz-adv-x="418" 
d="M409 355q0 -195 -48 -339q-53 -156 -136 -156q-102 0 -160 149q-50 128 -50 303q0 125 27 201q3 8 10 8q4 0 4 -6q0 -2 -1 -5.5t-2 -6.5q-8 -58 -8 -142q0 -177 35 -303q45 -157 131 -157q75 0 122 151q44 137 44 324q0 169 -38 279q-41 124 -116 124q-48 0 -80 -64
q-35 -70 -35 -191q0 -129 30 -229q34 -108 84 -108q25 0 42 39t17 93q0 49 -12 86t-12 30q0 8 9 8t23 -30q20 -40 20 -100q0 -68 -28 -106q-25 -33 -60 -33q-66 0 -108 107q-38 98 -38 231q0 121 35 198q39 88 111 88q92 0 143 -137q45 -121 45 -306zM312 829q0 -8 -7 -8
q-6 0 -33.5 28.5t-45.5 52.5q-18 -24 -45.5 -52.5t-33.5 -28.5q-7 0 -7 8t30 53t47 57q5 3 9 3q5 0 9 -3q17 -12 47 -57t30 -53z" />
    <glyph glyph-name="Ograve" unicode="&#xd2;" horiz-adv-x="418" 
d="M409 355q0 -195 -48 -339q-53 -156 -136 -156q-102 0 -160 149q-50 128 -50 303q0 125 27 201q3 8 10 8q4 0 4 -6q0 -2 -1 -5.5t-2 -6.5q-8 -58 -8 -142q0 -177 35 -303q45 -157 131 -157q75 0 122 151q44 137 44 324q0 169 -38 279q-41 124 -116 124q-48 0 -80 -64
q-35 -70 -35 -191q0 -129 30 -229q34 -108 84 -108q25 0 42 39t17 93q0 49 -12 86t-12 30q0 8 9 8t23 -30q20 -40 20 -100q0 -68 -28 -106q-25 -33 -60 -33q-66 0 -108 107q-38 98 -38 231q0 121 35 198q39 88 111 88q92 0 143 -137q45 -121 45 -306zM233 872q0 -8 -7 -8
q-8 0 -50.5 46.5t-42.5 58.5q0 16 15 16q13 0 49 -51.5t36 -61.5z" />
    <glyph glyph-name="Uacute" unicode="&#xda;" horiz-adv-x="508" 
d="M599 -53q0 -26 -17 -52q-22 -33 -58 -33q-72 0 -89 172q-29 -187 -107 -187q-51 0 -76 73q-20 57 -20 141q0 110 18.5 255.5t18.5 275.5q0 98 -28 154q-25 51 -64 51q-50 0 -87 -79q-42 -89 -42 -236q0 -112 30 -187q27 -68 61 -68q26 0 44 42q21 48 21 134q0 51 -13 96
t-33 61q-4 3 -4 8q0 9 7 9q3 0 7 -2q30 -21 47.5 -69.5t17.5 -104.5q0 -89 -30 -142q-27 -47 -65 -47q-47 0 -85 72q-42 79 -42 197q0 155 52 249q47 83 111 83q53 0 88 -60q39 -67 39 -182q0 -105 -17 -265t-17 -269q0 -57 15 -106q18 -61 50 -61q69 0 99 287q0 77 -6 312
q-5 208 -5 296q0 38 22 38q18 0 18 -57q0 -126 -2 -196v-349q0 -155 20 -239q17 -76 46 -76q24 0 40 18q11 12 19 33l7 18q9 0 9 -8zM430 950q0 -12 -42 -58.5t-50 -46.5t-8 8q0 10 36 61.5t49 51.5q15 0 15 -16z" />
    <glyph glyph-name="Ucircumflex" unicode="&#xdb;" horiz-adv-x="508" 
d="M599 -53q0 -26 -17 -52q-22 -33 -58 -33q-72 0 -89 172q-29 -187 -107 -187q-51 0 -76 73q-20 57 -20 141q0 110 18.5 255.5t18.5 275.5q0 98 -28 154q-25 51 -64 51q-50 0 -87 -79q-42 -89 -42 -236q0 -112 30 -187q27 -68 61 -68q26 0 44 42q21 48 21 134q0 51 -13 96
t-33 61q-4 3 -4 8q0 9 7 9q3 0 7 -2q30 -21 47.5 -69.5t17.5 -104.5q0 -89 -30 -142q-27 -47 -65 -47q-47 0 -85 72q-42 79 -42 197q0 155 52 249q47 83 111 83q53 0 88 -60q39 -67 39 -182q0 -105 -17 -265t-17 -269q0 -57 15 -106q18 -61 50 -61q69 0 99 287q0 77 -6 312
q-5 208 -5 296q0 38 22 38q18 0 18 -57q0 -126 -2 -196v-349q0 -155 20 -239q17 -76 46 -76q24 0 40 18q11 12 19 33l7 18q9 0 9 -8zM414 863q0 -8 -7 -8q-6 0 -33.5 28t-45.5 52q-18 -24 -45.5 -52t-33.5 -28q-7 0 -7 8t30 53t47 57q5 3 9 3q5 0 9 -3q17 -12 47 -57t30 -53
z" />
    <glyph glyph-name="Ugrave" unicode="&#xd9;" horiz-adv-x="508" 
d="M599 -53q0 -26 -17 -52q-22 -33 -58 -33q-72 0 -89 172q-29 -187 -107 -187q-51 0 -76 73q-20 57 -20 141q0 110 18.5 255.5t18.5 275.5q0 98 -28 154q-25 51 -64 51q-50 0 -87 -79q-42 -89 -42 -236q0 -112 30 -187q27 -68 61 -68q26 0 44 42q21 48 21 134q0 51 -13 96
t-33 61q-4 3 -4 8q0 9 7 9q3 0 7 -2q30 -21 47.5 -69.5t17.5 -104.5q0 -89 -30 -142q-27 -47 -65 -47q-47 0 -85 72q-42 79 -42 197q0 155 52 249q47 83 111 83q53 0 88 -60q39 -67 39 -182q0 -105 -17 -265t-17 -269q0 -57 15 -106q18 -61 50 -61q69 0 99 287q0 77 -6 312
q-5 208 -5 296q0 38 22 38q18 0 18 -57q0 -126 -2 -196v-349q0 -155 20 -239q17 -76 46 -76q24 0 40 18q11 12 19 33l7 18q9 0 9 -8zM357 834q0 -8 -8 -8t-50 46.5t-42 58.5q0 16 14 16t50 -51.5t36 -61.5z" />
    <glyph glyph-name="circumflex" unicode="&#x2c6;" 
d="M190 675q0 -8 -8 -8q-5 0 -32.5 28t-45.5 53q-18 -25 -45.5 -53t-33.5 -28q-7 0 -7 8t30 53t47 57q5 3 9 3q5 0 8 -3q18 -12 48 -57t30 -53z" />
    <glyph glyph-name="tilde" unicode="&#x2dc;" 
d="M185 758q0 -19 -13 -33t-32 -14q-14 0 -39 14.5t-39 14.5q-19 0 -29 -13l-10 -14q-3 2 -3 9q0 19 15 33.5t33 14.5q19 0 45.5 -13.5t34.5 -13.5q12 0 22.5 12l10.5 12q4 0 4 -9z" />
    <glyph glyph-name="macron" unicode="&#xaf;" horiz-adv-x="224" 
d="M199 762q0 -15 -15 -15h-145q-15 0 -15 16q0 15 15 15h145q15 0 15 -16z" />
    <glyph glyph-name="macron" unicode="&#x2c9;" horiz-adv-x="224" 
d="M199 762q0 -15 -15 -15h-145q-15 0 -15 16q0 15 15 15h145q15 0 15 -16z" />
    <glyph glyph-name="cedilla" unicode="&#xb8;" horiz-adv-x="191" 
d="M156 -85q0 -25 -18 -45t-47 -20q-24 0 -41 15t-17 42q0 11 8 11q4 0 4 -10q0 -29 42 -29q19 0 31 11.5t12 26.5q0 25 -26 25q-6 0 -14.5 -5t-12.5 -5q-8 0 -8 6q0 -7 13 57q1 4 9 4q9 0 9 -4q0 -1 -5 -20t-5 -21q15 6 19 6q47 0 47 -45z" />
    <glyph glyph-name="Scaron" unicode="&#x160;" horiz-adv-x="406" 
d="M393 49q0 -89 -61 -141q-55 -46 -134 -46q-83 0 -136 42q-56 45 -56 120q0 52 33 93q29 37 57 37q12 0 12 -8t-8 -8q-15 0 -35 -28q-24 -35 -24 -85q0 -63 43 -104t116 -41q65 0 111 43.5t46 101.5q0 88 -82 156q-77 60 -153 119q-83 84 -83 209q0 104 60 199
q64 101 147 101q132 0 132 -183q0 -97 -44 -181q-49 -93 -120 -93q-34 0 -60 26q-29 28 -29 71q0 38 20 63q15 19 24 19q8 0 8 -5q0 4 -12 -19t-12 -54q0 -34 17 -58.5t42 -24.5q51 0 90 74q41 78 41 189q0 159 -93 159q-68 0 -119 -83q-54 -86 -54 -208q0 -100 82 -179
l152 -120q82 -71 82 -153zM330 963q0 -8 -30 -53t-47 -57q-5 -3 -9 -3q-5 0 -8 3q-18 12 -48 57t-30 53t8 8q5 0 32.5 -28.5t45.5 -52.5q18 24 45.5 52.5t33.5 28.5q7 0 7 -8z" />
    <glyph glyph-name="scaron" unicode="&#x161;" horiz-adv-x="207" 
d="M193 39q0 -38 -18 -60t-44 -22q-36 0 -68.5 43t-32.5 94q0 65 16 65q6 0 6 -7q0 2 -2.5 -12.5t-2.5 -38.5q0 -46 26 -85.5t57 -39.5q32 0 32 43q0 32 -61 141.5t-61 151.5q0 35 17 54.5t43 19.5q34 0 58 -36q23 -32 23 -68q0 -26 -16 -26q-21 0 -21 30q0 83 -45 83
q-34 0 -34 -45q0 -34 64 -133.5t64 -151.5zM194 544q0 -9 -29 -52q-31 -46 -49 -58q-5 -4 -8 -4q-5 0 -9 4q-18 12 -48 58q-30 43 -30 52q0 8 8 8q6 0 33.5 -28.5t45.5 -52.5q17 24 45 52.5t33 28.5q8 0 8 -8z" />
    <glyph glyph-name="Eth" unicode="&#xd0;" horiz-adv-x="518" 
d="M506 362q0 -196 -60 -342q-64 -158 -164 -158q-16 0 -31 4v-14q0 -22 -1 -26q-2 -10 -13 -10t-13 12q-2 6 -1 34v14q-32 17 -50 52q-14 29 -14 60q0 11 7 11q5 0 5 -10q0 -51 52 -85q8 278 8 319v21q-57 -5 -75 -5q-28 0 -28 11q0 19 49 19h54q0 160 -7 307l-6 118v21
q0 40 17 40q29 0 29 -57q0 10 -4 -124q-5 -149 -5 -305q67 -2 125 -7q14 -1 14 -10q0 -11 -11 -11q-18 0 -53 3t-53 3q-10 0 -22 -1v-133q0 -16 -4 -222q16 -4 33 -4q78 0 131 157q49 147 49 338q0 207 -60 316q-52 95 -134 95q-86 0 -154 -95q-71 -101 -71 -244
q0 -60 18.5 -99t51.5 -39q25 0 42 39t17 93q0 49 -12 86t-12 30q0 9 8 9q9 0 24 -30q20 -41 20 -101q0 -67 -29 -106q-25 -33 -59 -33q-49 0 -77 49q-27 46 -27 118q0 145 80 244q76 94 174 94q101 0 166 -103q76 -120 76 -343z" />
    <glyph glyph-name="eth" unicode="&#xf0;" horiz-adv-x="254" 
d="M303 137q0 -42 -32 -82q-35 -44 -75 -44q-8 0 -16 2q-23 -22 -54 -22q-44 0 -72 48.5t-28 129.5q0 74 30.5 126t73.5 52q40 0 70 -48q-12 152 -57 206q-12 -13 -37 -38q-7 -6 -11 -6q-11 0 -11 14q0 8 45 45q-18 13 -38 13q-6 0 -12.5 -4.5t-13.5 -4.5q-10 0 -18 7.5
t-8 18.5q0 17 30 17q40 0 75 -35q44 34 52 34q10 0 11 -11l-3 -4l-48 -33q77 -97 77 -333q0 -93 -33 -147q57 1 86 98q4 10 10 10q7 0 7 -9zM205 181q0 50 -15 93q-29 -5 -52 -29q-31 -33 -31 -87q0 -38 18.5 -71.5t47.5 -44.5q32 56 32 139zM185 288q-19 42 -49 42
q-38 0 -61 -66q-19 -52 -19 -109q0 -51 15 -94q19 -55 53 -55q19 0 34 16q-29 17 -48.5 53t-19.5 78q0 59 33 97q27 33 62 38z" />
    <glyph glyph-name="Yacute" unicode="&#xdd;" horiz-adv-x="529" 
d="M500 -25q0 -74 -54.5 -128.5t-135.5 -54.5q-59 0 -96 28q-42 32 -42 90q0 22 11 49q8 21 15 27q4 4 10 4q8 0 8 -6v-2q-23 -30 -23 -71q0 -43 36.5 -70t85.5 -27q144 0 144 175q0 76 -16 239q-33 -158 -117 -158q-80 0 -80 154q0 57 14 194t14 198q0 187 -86 187
q-56 0 -97 -83q-44 -91 -44 -238q0 -112 29 -187q27 -68 61 -68q26 0 45 42q21 48 21 134q0 51 -13.5 96t-33.5 61q-4 3 -4 8q0 9 7 9q3 0 7 -2q31 -21 48.5 -69.5t17.5 -104.5q0 -89 -31 -142q-26 -47 -64 -47q-48 0 -86 72q-42 79 -42 197q0 154 55 249q49 87 119 87
q126 0 126 -246q0 -67 -12 -199t-12 -178q0 -107 45 -107q41 0 73 76q29 70 30 144v28q0 66 -7.5 184t-7.5 174q0 29 22 29q18 0 18 -43v-76q-1 -50 -1 -75q0 -108 21.5 -270.5t21.5 -282.5zM447 905q0 -12 -42 -58.5t-51 -46.5q-7 0 -7 8q0 10 36 61.5t49 51.5q15 0 15 -16
z" />
    <glyph glyph-name="yacute" unicode="&#xfd;" horiz-adv-x="183" 
d="M186 454q0 -27 -17 -145t-17 -168q0 -48 5 -103.5t5 -88.5q0 -195 -125 -195q-29 0 -29 17q0 10 8 18t18 8q6 0 13 -5t13 -5q58 0 74 86q6 32 6 136q0 70 -6 86q-3 -21 -15 -47q-17 -38 -36 -38q-20 0 -34 30q-18 39 -18 112v17q0 146 22 146q12 0 12 -63q0 -20 -6.5 -64
t-6.5 -52q0 -80 34 -80q24 0 37 58q13 52 13 132q0 98 7 180q10 106 27 106q16 0 16 -78zM188 624q0 -12 -42 -58.5t-50 -46.5t-8 8q0 10 36 61.5t50 51.5t14 -16z" />
    <glyph glyph-name="Thorn" unicode="&#xde;" horiz-adv-x="570" 
d="M557 331q0 -125 -61 -221q-65 -102 -161 -102q-28 0 -51 10q-16 -163 -70 -163q-12 0 -23 7t-11 13q0 13 15 13q5 0 8.5 -6.5t6.5 -6.5q38 0 43 163q-41 38 -41 95q0 12 7 12q5 0 5 -10q0 -35 30 -66v43q0 47 -2 180.5t-2 187.5q0 72 3 125q-87 -25 -143 -107
q-62 -92 -62 -225q0 -59 18.5 -97t51.5 -38q25 0 42 39t17 93q0 49 -12 86t-12 30q0 9 8 9q9 0 24 -30q20 -41 20 -101q0 -67 -29 -106q-25 -33 -60 -33q-48 0 -75 48q-26 45 -26 116q0 139 73 231q65 83 166 103q11 191 70 191q10 0 10 -10t-16 -10q-28 0 -30 -166h18
q104 0 174 -73q77 -81 77 -224zM518 347q0 128 -64 201q-57 65 -143 65q-12 0 -23 -1v-17q0 -55 2 -179q2 -136 2 -191q0 -109 -6 -180q24 -12 51 -12q75 0 129 100q52 94 52 214z" />
    <glyph glyph-name="thorn" unicode="&#xfe;" horiz-adv-x="228" 
d="M280 149q-10 -48 -21 -69q-24 -46 -74 -46q-28 0 -52 14q-16 -9 -33 -9q-28 0 -48 31v-27q0 -91 1 -150q2 -64 2 -76q0 -23 -14 -23t-14 22q0 6 4 73q3 62 2 157v291v133v133q0 28 16 28t16 -16q0 9 -2 -23q-3 -127 -7 -258q29 47 66 47q35 0 57.5 -43.5t22.5 -117.5
q0 -108 -53 -159q18 -9 36 -9q56 0 75 82q5 25 11 25q11 0 9 -10zM173 213q0 55 -17 94.5t-45 39.5q-21 0 -37 -25t-16 -64q0 -127 74 -186q41 44 41 141zM116 60q-42 35 -62 103q-1 -28 -1 -56q12 -49 51 -49q6 0 12 2z" />
    <glyph glyph-name="Euro" unicode="&#x20ac;" horiz-adv-x="563" 
d="M523 320q0 -60 -27 -137q-47 -133 -148 -133q-68 0 -116 61q-54 69 -67 199q-93 -9 -99 -9q-31 0 -31 15q0 25 55 25q37 0 73 -1q-1 23 -1 49v30q-21 -2 -37 -2q-31 0 -31 15q0 25 55 25h15q12 168 80 261q57 80 129 80q44 0 73 -32t29 -86q0 -48 -23 -82
q-25 -37 -67 -37q-15 0 -15 10t16 10q51 0 51 108q0 39 -15 66t-43 27q-53 0 -105 -84q-59 -96 -72 -242q96 -1 177 -9q15 -1 15 -13q0 -15 -12 -15q-20 0 -60 4t-60 4q-23 0 -62 -4q-1 -20 -1 -40q0 -23 1 -44q64 -2 120 -7q15 -2 15 -14q0 -15 -12 -15q-20 0 -59.5 4.5
t-60.5 4.5h-1q17 -238 144 -238q100 0 160 233q6 23 13 23q4 0 4 -10z" />
    <glyph glyph-name="Lslash" unicode="&#x141;" horiz-adv-x="340" 
d="M392 -68q0 -2 -1 -5q-7 -21 -29 -43q-32 -32 -75 -32q-41 0 -87 47q-36 43 -72 85q-13 -116 -63 -116q-22 0 -38 23t-16 60q0 39 18 63.5t43 24.5q12 0 26 -7q-2 53 -13 154q-38 -45 -45 -46q-5 2 -5 8q0 31 46 79q-7 67 -7 128q0 214 46 338q39 107 96 107q45 0 76 -71
q33 -78 33 -206q0 -100 -28 -157q-25 -49 -61 -49q-31 0 -53 37.5t-22 102.5q0 60 20 100q15 30 24 30q8 0 8 -8q0 7 -12 -30t-12 -86q0 -61 13.5 -97t31.5 -36q21 0 37 44q17 50 17 137q0 128 -23 204q-21 69 -51 69q-38 0 -66 -103q-32 -116 -32 -305q0 -48 4 -103
q50 58 59 58q4 0 4 -8q0 -18 -11 -29q-2 -3 -50 -63q10 -137 10 -159q0 -34 -2 -63q40 -38 79 -75q51 -43 95 -43q26 0 48 14t28 28q2 5 7 5t5 -6zM99 -12v24q-14 9 -25 9q-34 0 -34 -72q0 -26 9 -44.5t20 -18.5q30 0 30 102z" />
    <glyph glyph-name="lslash" unicode="&#x142;" horiz-adv-x="141" 
d="M203 685q0 -18 -11 -29q-6 -7 -50 -65q-29 -243 -91 -365q5 -86 23.5 -133.5t42.5 -47.5q20 0 41 45q19 41 19 64q0 11 9 11q7 0 7 -8q0 -31 -27 -90q-30 -67 -59 -67q-33 0 -58 62q-29 72 -29 195q0 87 10 188q-50 -64 -57 -64q-4 2 -4 8q0 23 68 111q17 131 43 222
q27 95 49 95q24 0 24 -85q0 -36 -6 -95q43 56 51 56q5 0 5 -8zM131 746q0 28 -7 29q-9 1 -26 -66q-18 -71 -31 -172q22 28 33 40q4 3 22 28q9 79 9 141zM116 556q-33 -44 -56 -73q-12 -108 -12 -182q0 -18 1 -36q41 99 67 291z" />
    <glyph glyph-name="Zcaron" unicode="&#x17d;" horiz-adv-x="355" 
d="M366 71q0 -5 -4 -5q-3 0 -5 2q-20 17 -45 22q4 -20 4 -43q0 -95 -61 -169q-64 -78 -155 -78q-37 0 -59 24t-22 59q0 80 84 149q78 65 164 74q-14 51 -51 84q-48 -31 -108 -31q-26 0 -45.5 12.5t-19.5 26.5q0 20 23 31.5t58 11.5q46 0 89 -21q44 48 68 136q23 81 23 173
q0 110 -31 184q-33 80 -89 80t-89 -80q-30 -74 -30 -186q0 -96 30 -160q27 -58 61 -58q26 0 44 36q21 41 21 114q0 45 -13 83t-34 52q-3 3 -3 7q0 7 7 7q3 0 6 -2q31 -17 48.5 -58.5t17.5 -89.5q0 -76 -30 -121q-27 -40 -65 -40q-48 0 -88 61q-44 68 -44 168q0 121 45 201
t113 80q75 0 121 -94q43 -86 43 -209q0 -91 -26 -168q-28 -84 -82 -130q55 -37 72 -101q14 -2 33 -12q24 -11 24 -22zM196 204q-35 23 -73 23q-48 0 -48 -31q0 -23 37 -23q47 0 84 31zM275 45q0 25 -4 47q-77 -8 -148.5 -78.5t-71.5 -138.5q0 -27 17 -44t39 -17q73 0 122 74
q46 68 46 157zM274 957q0 -8 -30 -53t-47 -57q-5 -3 -9 -3q-5 0 -8 3q-18 12 -48 57t-30 53t8 8q5 0 32.5 -28t45.5 -53q18 25 45.5 53t33.5 28q7 0 7 -8z" />
    <glyph glyph-name="zcaron" unicode="&#x17e;" horiz-adv-x="222" 
d="M273 151q0 -7 -1 -11q-17 -86 -81 -134q2 -15 2 -32q0 -73 -30 -129q-34 -63 -88 -63q-43 0 -43 50q0 77 125 173q-11 68 -56 68q-28 -51 -45 -51q-10 0 -10 12q0 33 42 55l105 190q-10 -3 -22 -3q-30 0 -50.5 4t-24.5 4q-23 0 -33 -64q-15 -93 -18.5 -102t-12.5 -9
q-6 0 -6 6q0 2 1 6q9 23 15 82q7 63 13 84q12 39 36 39q18 0 42.5 -6.5t45.5 -6.5q11 0 25.5 5.5t16.5 5.5q9 0 9 -9q0 -22 -120 -225q59 0 77 -63q57 46 69 119q3 20 11 20q6 0 6 -15zM160 -33q0 8 -1 16q-111 -85 -111 -153q0 -33 29 -33q35 0 60 56q23 52 23 114z
M230 493q0 -9 -29 -52q-31 -46 -49 -58q-4 -4 -8 -4q-5 0 -9 4q-17 12 -48 58q-29 43 -29 52q0 8 7 8q6 0 33.5 -28.5t45.5 -52.5q18 24 45.5 52.5t32.5 28.5q8 0 8 -8z" />
    <glyph glyph-name="fi" unicode="&#xfb01;" horiz-adv-x="259" 
d="M249 411q0 -16 -9 -34q-9 -21 -24 -21q-19 0 -19 32q0 17 8 34q10 22 24 22q20 0 20 -33zM311 157q0 -31 -26 -90q-31 -67 -60 -67q-45 0 -54 82q-18 -36 -49 -48v-1q0 -82 -14.5 -153t-33.5 -71q-33 0 -37 245q-36 39 -36 111q0 76 35 106v32q0 161 18 330
q15 155 29 155q10 0 10 -51q0 -79 -16 -228q-15 -155 -16 -229q58 0 61 -225q41 21 47 73l10 94q9 73 22 73q9 0 9 -10q0 -1 -7 -50q-8 -56 -8 -108q0 -82 40 -82q20 0 41 45q18 41 18 64q0 11 10 11q7 0 7 -8zM99 49q0 68 -5 112q-9 88 -34 92q-1 -39 -1 -47q0 -72 2 -148
q14 -10 32 -10q3 0 6 1zM36 89v149q-14 -25 -14 -71t14 -78zM99 29h-7q-17 0 -31 6q6 -168 16 -168q8 0 15 47.5t7 114.5z" />
    <glyph glyph-name="fl" unicode="&#xfb02;" horiz-adv-x="281" 
d="M333 157q0 -31 -27 -90q-30 -67 -59 -67q-43 0 -69 97q-19 -49 -56 -63v-1q0 -82 -14.5 -153t-33.5 -71q-33 0 -37 245q-36 39 -36 111q0 76 35 106v32q0 161 18 330q15 155 29 155q10 0 10 -51q0 -79 -16 -228q-15 -155 -16 -229q58 0 61 -225q34 17 48 77
q-10 55 -10 125q0 181 38 372q37 188 71 188q24 0 24 -85q0 -90 -24 -231q-30 -180 -79 -275q6 -86 24.5 -133.5t42.5 -47.5q20 0 41 45q19 41 19 64q0 11 9 11q7 0 7 -8zM268 746q0 28 -7 29q-13 1 -37 -113q-25 -126 -36 -278q-3 -43 -3 -83q0 -18 1 -36q31 75 56.5 221.5
t25.5 259.5zM99 49q0 68 -5 112q-9 88 -34 92q-1 -39 -1 -47q0 -72 2 -148q14 -10 32 -10q3 0 6 1zM36 89v149q-14 -25 -14 -71t14 -78zM99 29h-7q-17 0 -31 6q6 -168 16 -168q8 0 15 47.5t7 114.5z" />
    <glyph glyph-name="apple" horiz-adv-x="1690" 
d="M1661 532q0 -8 -10 -10q-46 -8 -84 -35q-27 -23 -53 -46q-37 -33 -54 -33q-26 0 -26 51l-1 2q-12 -6 -51 -51.5t-42 -46.5q-3 3 -3 8q0 16 97 112l1 13q0 13 -9 13q-8 0 -43.5 -39t-56.5 -39q-7 0 -15 3q-23 -27 -53 -27q-22 0 -33 17t-9 38q-31 -33 -51 -33q-7 0 -14 3
q-25 -25 -51 -25q-19 0 -29 17q-8 14 -7 34q-49 -50 -83 -50q-53 0 -45 61q-49 -59 -69 -59q-21 0 -34 21q-11 18 -12 41q16 6 41.5 29.5t25.5 37.5q0 3 -4 3q-25 0 -63 -58q-30 -47 -42 -83q-21 8 -21 22q0 12 10 40q-49 -55 -69 -55q-22 0 -22 31q0 14 3 31
q-38 -62 -68 -62q-24 0 -24 31q0 36 27 84q25 44 36 44q7 0 21 -4.5t14 -9.5q0 2 -27.5 -38t-27.5 -64q0 -6 4 -6q14 0 54 60t46 60q9 0 22.5 -7t14.5 -15q-14 -12 -32 -42q-21 -33 -21 -47q0 -9 6 -9q8 0 55 51q76 193 120 193q38 0 38 -20q0 -3 -4 -7q-63 -58 -102 -138
q42 48 61 48q38 0 38 -44q0 -18 -22 -37.5t-40 -22.5q0 -29 12 -29q7 0 32 27l30 34q26 73 80 73q16 0 28 -11.5t12 -26.5q0 -26 -27.5 -43.5t-53.5 -14.5q-4 -13 -4 -22q0 -26 15 -26q28 0 73 48q6 49 44 119q45 82 86 82q34 0 34 -18q0 -3 -6 -7q-60 -44 -89 -104l1 -1
q10 9 25 9q34 0 34 -37q0 -35 -31 -74q2 -1 5 -1q9 0 27 18q12 12 23 25q10 35 36 62q29 31 62 31q18 0 31.5 -10.5t13.5 -28.5q0 -44 -37 -90l6 -2q12 0 58 52t68 52q18 0 20 -12q-1 7 -1 -26v-1q69 69 85 69q5 0 11 -5.5t7 -10.5h-1q-35 -22 -103 -76q-3 -17 -3 -27
q0 -25 10 -25q6 0 65 54.5t96 54.5q18 0 18 -17zM590 907q0 -11 -12 -11h-5q-4 -11 -13.5 -35.5t-74.5 -24.5q-68 -1 -78 26l-12 33h-1q-12 0 -12 11t12 11q13 0 13 -11q0 -3 -2 -5l18 -12l8 40q-11 2 -11 12q0 11 13 11q12 0 12 -11q0 -7 -6 -10l22 -35l22 66q-9 2 -9 11
q0 11 13 11q12 0 12 -11q0 -9 -9 -11l18 -68l23 36q-6 3 -6 10q0 11 12 11q13 0 13 -11t-12 -12l2 -39l26 14q-1 2 -1 4q0 11 13 11q12 0 12 -11zM1498 353l-460 -271l-472 269l472 -118zM611 680q0 -159 -123 -354q-68 -109 -170 -204q-130 -122 -223 -122q-29 0 -52 16.5
t-23 44.5q0 89 183 216q123 85 267 151q4 2 11 7q8 10 27 46t19 44v6q-7 0 -13 -3q-124 -54 -213 -54q-59 0 -97 22q-48 26 -48 80q0 84 140 162q124 70 217 70q98 0 98 -128zM1341 534q0 7 -5 7q-11 0 -23 -26.5t-12 -40.5q0 -12 8 -16q8 9 20 36.5t12 39.5zM1297 445
q-16 13 -16 43q0 14 4 30q-1 1 -2 1q-25 -27 -25 -68q0 -20 14 -20q17 0 25 14zM1152 517q0 10 -7 10q-8 0 -13 -17.5t-5 -28.5q0 -19 8 -25q17 25 17 61zM1126 442q-15 10 -15 36q0 -9 3 25q0 -1 -4 -3q-13 -27 -13 -53q0 -21 12 -21q8 0 17 16zM1044 529q0 11 -9 11
q-32 0 -48 -47q16 1 36.5 13t20.5 23zM1437 324l-399 -168v-63zM1038 159v65l-403 104zM569 687q0 57 -52 57q-59 0 -183 -66q-131 -70 -131 -118q0 -20 51 -20q118 0 249 53q14 6 17 6q10 0 20 -12l5 -2q9 2 17 48q7 38 7 54zM425 345q0 2 -1 2q-16 0 -106 -60
q-74 -49 -107 -75q-149 -115 -149 -161q0 -8 11 -8q34 0 110 55q54 39 97 80q31 30 80 82q65 72 65 85z" />
    <glyph glyph-name="dotlessi" unicode="&#x131;" horiz-adv-x="123" 
d="M175 157q0 -31 -26 -90q-31 -67 -60 -67q-56 0 -56 129q0 31 8 90q10 76 24 76q9 0 9 -10q0 -1 -7 -50q-8 -56 -8 -108q0 -82 40 -82q20 0 41 45q19 41 19 64q0 11 9 11q7 0 7 -8z" />
    <glyph glyph-name="breve" unicode="&#x2d8;" horiz-adv-x="249" 
d="M220 765q0 -39 -30 -73t-69 -34t-68 36q-26 33 -26 71q0 11 10 11q2 0 9 -20q8 -24 21 -37q20 -20 54 -20q35 0 57 20q15 14 24 37q8 20 9 20q9 0 9 -11z" />
    <glyph glyph-name="dotaccent" unicode="&#x2d9;" horiz-adv-x="108" 
d="M80 751q0 -26 -26 -26t-26 26t26 26t26 -26z" />
    <glyph glyph-name="ring" unicode="&#x2da;" horiz-adv-x="258" 
d="M210 700q0 -33 -24 -57.5t-58 -24.5t-58 24.5t-24 57.5q0 34 24 58t58 24t58 -24t24 -58zM182 700q0 23 -16 39t-38 16q-23 0 -39 -16t-16 -39q0 -22 16 -38t39 -16q22 0 38 16t16 38z" />
    <glyph glyph-name="hungarumlaut" unicode="&#x2dd;" horiz-adv-x="216" 
d="M198 774q0 -13 -42 -59.5t-51 -46.5q-7 0 -7 8q0 10 36 62t49 52q15 0 15 -16zM129 774q0 -13 -42 -59.5t-50 -46.5t-8 8q0 10 36 62t50 52t14 -16z" />
    <glyph glyph-name="ogonek" unicode="&#x2db;" horiz-adv-x="235" 
d="M178 -110q0 -16 -20 -32t-46 -16q-23 0 -39 13.5t-16 36.5q0 56 81 108h17q-62 -49 -62 -92q0 -41 35 -41q17 0 32 12q6 8 13 16q1 1 3 -1t2 -4z" />
    <glyph glyph-name="caron" unicode="&#x2c7;" 
d="M189 760q0 -8 -30 -53t-48 -57q-5 -3 -9 -3t-8 3q-18 12 -48 57t-30 53t8 8q5 0 33 -28t45 -53q18 25 46 53t33 28q8 0 8 -8z" />
    <glyph glyph-name="afii10017" unicode="&#x410;" horiz-adv-x="628" 
d="M703 -73q0 -15 -21 -15q-107 0 -177 265q-35 5 -77 5q-27 0 -50 -5q-97 -323 -231 -323q-66 0 -103 71q-33 65 -33 165q0 109 48 210q53 109 122 109q40 0 62 -39q19 -36 19 -93q0 -77 -32 -142q-33 -68 -79 -68q-7 0 -7 7q0 8 8 8q30 0 54 48q27 53 27 138
q0 127 -49 127t-91 -92t-42 -208q0 -218 83 -218q46 0 99 73q57 78 104 216q-48 -19 -45 -19q-21 0 -21 14q0 22 76 35q62 195 87 452q4 34 4 84v39q-1 34 -1 53q0 22 6.5 39.5t15.5 17.5q8 0 14.5 -17t6.5 -34q0 -29 -7.5 -89.5t-7.5 -99.5q0 -91 18.5 -221.5t44.5 -228.5
q21 -4 54 -16q46 -17 46 -26q0 -7 -9 -7q-11 0 -32 10q-28 13 -33 14l-20 6q66 -233 161 -233q8 0 8 -12zM500 197q-42 170 -51 325q-27 -188 -65 -322q23 2 48 2q34 0 68 -5z" />
    <glyph glyph-name="afii10019" unicode="&#x412;" horiz-adv-x="528" 
d="M506 185q0 -121 -62 -220q-65 -103 -152 -103q-17 0 -32 4q0 -50 -14 -50t-14 59v1q-32 17 -49 52q-15 29 -15 60q0 11 7 11q6 0 6 -10q0 -51 52 -85q7 274 7 319q0 197 -6 342q-3 65 -6 129q0 2 -1 10v13q0 38 17 38q30 0 30 -57q0 -111 -13 -807q16 -4 32 -4
q74 0 127 98q50 94 50 208q0 161 -99 211q-21 -18 -45 -18q-28 0 -28 24q0 26 22 26q29 0 47 -8q57 49 57 160q0 97 -38 153q-35 51 -91 51q-107 0 -179 -155q-64 -137 -64 -291q0 -72 18.5 -117t53.5 -45q25 0 42.5 39t17.5 93q0 49 -12.5 86t-12.5 30q0 8 9 8t24 -30
q19 -40 19 -100q0 -68 -28 -106q-25 -33 -60 -33q-52 0 -80 56q-26 52 -26 138q0 158 73 292q83 151 208 151q71 0 117 -55q49 -59 49 -160q0 -108 -75 -178q117 -67 117 -230z" />
    <glyph glyph-name="afii10020" unicode="&#x413;" horiz-adv-x="475" 
d="M278 546q-6 -1 -33.5 -3.5t-60.5 -4.5t-63.5 -3.5t-42.5 -1.5q-9 2 -11.5 2.5t-2.5 2.5q1 11 24.5 21.5t68.5 15.5q72 -5 129 -2t102 11q-2 44 -7 85.5t-9 74.5t-5.5 54.5t3.5 26.5q20 20 31 7q6 -8 10 -33q5 -54 8 -105t3 -100v-3q75 19 109.5 53t36.5 77q2 29 -11 44.5
t-35 24.5q-17 2 -16 3.5t1 2.5q1 8 7 8.5t11 0.5q31 -2 56 -26.5t26 -58.5q1 -32 -14 -56t-40.5 -42t-59.5 -30t-71 -21q-1 -221 -30 -397q-54 -318 -185 -318q-77 0 -126 105q-44 96 -44 219q0 108 36 173q33 58 79 58q44 0 74 -52q33 -57 33 -155q0 -10 -1.5 -24.5
t-5.5 -34.5q-9 -49 -21 -49q-7 0 -7 13q0 6 7 34q7 29 7 50q0 91 -24 144q-21 48 -53 48q-34 0 -58 -55q-27 -60 -27 -163q0 -110 32 -195q36 -97 96 -97q113 0 160 287q13 81 18.5 173.5t6.5 200.5v28q-29 -5 -57 -9.5t-54 -8.5z" />
    <glyph glyph-name="afii10021" unicode="&#x414;" horiz-adv-x="518" 
d="M506 362q0 -196 -60 -342q-64 -158 -164 -158q-16 0 -31 4v-14q0 -22 -1 -26q-2 -10 -13 -10t-13 12q-2 6 -1 34v14q-32 17 -50 52q-14 29 -14 60q0 11 7 11q5 0 5 -10q0 -51 52 -85q8 274 8 319q0 197 -7 342q-3 65 -6 129v21q0 40 17 40q29 0 29 -57q0 16 -4 -135
q-5 -145 -5 -338v-112q0 -16 -4 -222q16 -4 33 -4q78 0 131 157q49 147 49 338q0 207 -60 316q-52 95 -134 95q-86 0 -154 -95q-71 -101 -71 -244q0 -60 18.5 -99t51.5 -39q25 0 42 39t17 93q0 49 -12 86t-12 30q0 9 8 9q9 0 24 -30q20 -41 20 -101q0 -67 -29 -106
q-25 -33 -59 -33q-49 0 -77 49q-27 46 -27 118q0 145 80 244q76 94 174 94q101 0 166 -103q76 -120 76 -343z" />
    <glyph glyph-name="afii10022" unicode="&#x415;" horiz-adv-x="372" 
d="M365 26q0 -81 -45.5 -131.5t-127.5 -50.5q-68 0 -120 50q-59 57 -59 152q0 84 65 147q47 47 96 60q-145 81 -145 256q0 123 70 214q66 84 141 84q59 0 91 -52q28 -46 28 -119q0 -87 -35.5 -161t-84.5 -74q-31 0 -55 34.5t-24 89.5q0 45 18 79q13 26 20 26t7 -7
q0 6 -9 -23.5t-9 -69.5q0 -46 15 -79t36 -33q37 0 63 67q24 64 24 144q0 70 -21 114q-24 50 -70 50q-59 0 -112 -76q-56 -82 -56 -190q0 -110 60 -185q53 -66 109 -66q17 0 32 2t18 2q17 0 17 -15q0 -7 -9 -16t-18 -9h-13q-10 1 -19 1q-85 0 -139 -60q-50 -56 -50 -135
q0 -77 42 -130.5t104 -53.5t97 47t35 118q0 51 -19 89q-16 32 -28 32q-6 0 -6 7q0 8 9 8q21 0 48 -42q29 -46 29 -95z" />
    <glyph glyph-name="afii10024" unicode="&#x416;" horiz-adv-x="804" 
d="M449 253q0 62 3 116q-13 -6 -26.5 -13t-27.5 -15q-1 -13 -1 -25.5v-24.5q0 -298 41 -365q2 -6 2 -7q0 -6 -7 -6q-5 0 -7 4q-61 109 -61 380v2v21q-13 -8 -25 -16.5t-24 -17.5q-1 -41 -3 -90t-8 -98.5t-16.5 -96t-28 -82.5t-42.5 -58t-59 -22q-19 0 -35.5 8.5t-28.5 22.5
t-18.5 32t-6.5 37q0 29 7 58.5t24 62.5t47 72.5t76 89.5q11 13 23.5 25t26.5 24q-1 31 -1 58v47q0 88 -8.5 162t-24.5 128t-37.5 84t-47.5 30q-20 0 -39.5 -18t-34.5 -53t-24.5 -86t-9.5 -118q0 -48 5 -87.5t15 -68t24.5 -44.5t32.5 -16q13 0 24.5 11.5t20.5 30.5t14.5 44.5
t5.5 54.5q0 20 -2.5 39.5t-5.5 34.5t-6.5 24.5t-4.5 9.5q0 7 9 7q6 0 12.5 -11t12.5 -29.5t9.5 -42t3.5 -47.5q-3 -63 -30 -101t-64 -38q-27 0 -49 19.5t-37 53t-23 79t-8 97.5q0 60 14.5 111t36 88t47.5 57.5t50 20.5q36 0 65.5 -34.5t51 -96t33.5 -147t12 -186.5v-32
q12 10 24.5 19t25.5 18q3 66 10.5 129t18 112t22 79t22.5 30q28 0 28 -22q0 -8 -8.5 -15t-10.5 -12q-7 -12 -14.5 -40t-14 -65.5t-12 -82.5t-8.5 -92q27 17 55 29q14 174 59.5 277t114.5 127h5q32 0 56 -17.5t40 -46t24 -63.5t8 -70q0 -29 -5.5 -55.5t-16 -46.5t-26.5 -32.5
t-37 -12.5q-15 0 -31.5 8t-30 22t-22 34.5t-8.5 45.5q0 16 4 30.5t10 25.5t12 18t10 7q7 0 7 -5q-2 0 -6 -18.5t-4 -42.5q0 -47 17 -78.5t40 -31.5q12 0 20.5 9.5t14.5 25t8.5 36.5t2.5 44q0 33 -5.5 68t-16 63.5t-25.5 47t-34 18.5q-7 0 -10 -1h-1q-28 -9 -51 -39
t-40 -77.5t-28.5 -111.5t-17.5 -141q23 9 47 15q5 2 9.5 2h8.5q8 0 8 -3q0 -5 -20.5 -13.5t-53.5 -23.5q-2 -31 -3 -63t-1 -66q0 -62 6 -126t20.5 -116t39.5 -85t64 -33q19 0 38 17t33 46t23 67.5t9 82.5q0 39 -7 74t-18.5 61.5t-26.5 42.5t-31 16q-28 0 -45 -40.5
t-17 -106.5q0 -45 12.5 -81.5t31.5 -50.5q4 -3 4 -7q0 -6 -7 -6q-1 0 -7 2q-28 17 -44.5 56.5t-16.5 87.5q0 70 25 114t65 44q24 0 46 -18t38.5 -49t26 -71.5t9.5 -85.5q-2 -45 -15 -83t-33.5 -66t-45.5 -43.5t-52 -15.5q-36 0 -66 27t-51 76t-33 116.5t-12 148.5zM222 194
q-39 -45 -61.5 -83t-34 -71.5t-14.5 -62.5t-3 -55q0 -32 14 -50.5t31 -18.5q40 0 64 38t36.5 96t16 125.5t3.5 126.5v11q-14 -13 -27 -27t-25 -29z" />
    <glyph glyph-name="afii10025" unicode="&#x417;" horiz-adv-x="355" 
d="M366 71q0 -5 -4 -5q-3 0 -5 2q-20 17 -45 22q4 -20 4 -43q0 -95 -61 -169q-64 -78 -155 -78q-37 0 -59 24t-22 59q0 80 84 149q78 65 164 74q-14 51 -51 84q-48 -31 -108 -31q-26 0 -45.5 12.5t-19.5 26.5q0 20 23 31.5t58 11.5q46 0 89 -21q44 48 68 136q23 81 23 173
q0 110 -31 184q-33 80 -89 80t-89 -80q-30 -74 -30 -186q0 -96 30 -160q27 -58 61 -58q26 0 44 36q21 41 21 114q0 45 -13 83t-34 52q-3 3 -3 7q0 7 7 7q3 0 6 -2q31 -17 48.5 -58.5t17.5 -89.5q0 -76 -30 -121q-27 -40 -65 -40q-48 0 -88 61q-44 68 -44 168q0 121 45 201
t113 80q75 0 121 -94q43 -86 43 -209q0 -91 -26 -168q-28 -84 -82 -130q55 -37 72 -101q14 -2 33 -12q24 -11 24 -22zM196 204q-35 23 -73 23q-48 0 -48 -31q0 -23 37 -23q47 0 84 31zM275 45q0 25 -4 47q-77 -8 -148.5 -78.5t-71.5 -138.5q0 -27 17 -44t39 -17q73 0 122 74
q46 68 46 157z" />
    <glyph glyph-name="afii10026" unicode="&#x418;" horiz-adv-x="508" 
d="M599 -53q0 -26 -17 -52q-22 -33 -58 -33q-72 0 -89 172q-29 -187 -107 -187q-51 0 -76 73q-20 57 -20 141q0 110 18.5 255.5t18.5 275.5q0 98 -28 154q-25 51 -64 51q-50 0 -87 -79q-42 -89 -42 -236q0 -112 30 -187q27 -68 61 -68q26 0 44 42q21 48 21 134q0 51 -13 96
t-33 61q-4 3 -4 8q0 9 7 9q3 0 7 -2q30 -21 47.5 -69.5t17.5 -104.5q0 -89 -30 -142q-27 -47 -65 -47q-47 0 -85 72q-42 79 -42 197q0 155 52 249q47 83 111 83q53 0 88 -60q39 -67 39 -182q0 -105 -17 -265t-17 -269q0 -57 15 -106q18 -61 50 -61q69 0 99 287q0 77 -6 312
q-5 208 -5 296q0 38 22 38q18 0 18 -57q0 -126 -2 -196v-349q0 -155 20 -239q17 -76 46 -76q24 0 40 18q11 12 19 33q7 18 11.5 18t4.5 -8z" />
    <glyph glyph-name="afii10027" unicode="&#x419;" horiz-adv-x="508" 
d="M599 -53q0 -26 -17 -52q-22 -33 -58 -33q-72 0 -89 172q-29 -187 -107 -187q-51 0 -76 73q-20 57 -20 141q0 110 18.5 255.5t18.5 275.5q0 98 -28 154q-25 51 -64 51q-50 0 -87 -79q-42 -89 -42 -236q0 -112 30 -187q27 -68 61 -68q26 0 44 42q21 48 21 134q0 51 -13 96
t-33 61q-4 3 -4 8q0 9 7 9q3 0 7 -2q30 -21 47.5 -69.5t17.5 -104.5q0 -89 -30 -142q-27 -47 -65 -47q-47 0 -85 72q-42 79 -42 197q0 155 52 249q47 83 111 83q53 0 88 -60q39 -67 39 -182q0 -105 -17 -265t-17 -269q0 -57 15 -106q18 -61 50 -61q69 0 99 287q0 77 -6 312
q-5 208 -5 296q0 38 22 38q18 0 18 -57q0 -126 -2 -196v-349q0 -155 20 -239q17 -76 46 -76q24 0 40 18q11 12 19 33q7 18 11.5 18t4.5 -8zM494 956q-4 -12 -116 -49q16 -32 31 -75h-1q-8 3 -42 57q-14 -38 -24 -65q-20 -52 -26 -55q-2 16 30 129q-26 -8 -45 -13
q-36 -8 -46 -6l-1 1q4 10 93 40q-64 110 -61 127h2q16 -4 71 -106q71 227 91 237q2 -11 -8 -50q-14 -55 -61 -197q94 30 113 27v-2z" />
    <glyph glyph-name="afii10028" unicode="&#x41a;" horiz-adv-x="515" 
d="M574 -160l-1 -6q-24 -7 -45 -7q-79 0 -100 100q-9 92 -19 184q-16 99 -82 99q-5 0 -18 -2q-11 -139 -45 -271q-5 -25 -20 -72q-3 -8 -9 -8q-9 0 -9 12q0 4 2 12q45 139 45 495q0 116 -19 226q-31 178 -99 178q-107 0 -107 -338q0 -79 14 -146q22 -109 73 -109q31 0 47 54
q12 38 12 78q0 42 -9 78q-8 18 -15 38q0 8 9 8q1 0 7 -5q36 -39 36 -125q0 -50 -19 -89q-24 -50 -69 -50q-69 0 -103 111q-24 77 -24 165q0 125 28 220q39 132 119 132q90 0 133 -189q29 -125 29 -258q0 -59 -4 -117l7 -1q109 16 143 246q15 100 15 308q0 17 11 17
q8 0 18 -8.5t10 -15.5q0 -151 -30 -302q-42 -212 -124 -258q67 -23 84 -123q9 -85 17 -170q15 -86 80 -86q13 0 27 4q4 -4 4 -9z" />
    <glyph glyph-name="afii10029" unicode="&#x41b;" horiz-adv-x="628" 
d="M534 172q66 -233 161 -233q8 0 8 -12q0 -15 -21 -15q-107 0 -177 265q-21 85 -36 176t-20 169q-7 -47 -15.5 -94t-17.5 -92t-19 -85.5t-19 -73.5q-98 -323 -231 -323q-65 0 -103 71q-33 64 -33 165q0 109 48 210q52 109 122 109q39 0 62 -39q19 -35 19 -93
q0 -76 -32 -142q-33 -68 -79 -68q-7 0 -7 7q0 8 8 8q30 0 54 48q27 52 27 138q0 127 -49 127t-91 -92t-42 -208q0 -218 83 -218q47 0 99 73q58 79 104 216q15 49 30 106t27.5 119.5t23 127.5t16.5 129q2 17 3 38t1 46v39q-1 17 -1 30v23q0 22 6.5 39.5t15.5 17.5
q8 0 14.5 -17t6.5 -34q0 -14 -2 -36.5t-6 -53.5q-4 -30 -5.5 -54.5t-1.5 -44.5q0 -92 18 -222q10 -66 24 -132t27 -115z" />
    <glyph glyph-name="afii10030" unicode="&#x41c;" horiz-adv-x="672" 
d="M833 -46q0 -33 -21 -66q-28 -42 -73 -42q-70 0 -108 103q-30 83 -30 195q0 26 1 71v60q0 36 -2 36q-1 0 -25.5 -159.5t-36.5 -159.5q-20 0 -38 265q-26 -156 -86 -265q-74 -134 -172 -134q-94 0 -158 98q-68 104 -68 276q0 130 57 216q55 81 132 81q57 0 94.5 -54
t37.5 -143q0 -46 -12 -83q-10 -33 -19 -33q-8 0 -8 13q0 -4 10 27t10 72q0 76 -30 126t-78 50q-61 0 -104 -74q-47 -82 -47 -220q0 -136 39 -223q43 -94 118 -94q116 0 199 166q77 154 77 340q0 82 -6 170.5t-6 145.5q0 209 32 209q27 0 27 -137q0 -194 -24 -427
q17 -281 23 -281q5 0 33.5 169.5t28.5 193.5q0 44 14 205q16 178 26 178q15 0 15 -77q0 -32 -3 -70q-9 -73 -18 -147q-13 -121 -13 -255q0 -178 31 -287q33 -112 87 -112q30 0 51 23q14 15 24 42q8 22 9 22q10 0 10 -10z" />
    <glyph glyph-name="afii10031" unicode="&#x41d;" horiz-adv-x="505" 
d="M525 773q0 -8 -9 -16.5t-12 -15.5q-14 -28 -30 -122q-23 -134 -25 -298q37 -17 48 -51q1 -2 1 -4q0 -7 -4 -7q-7 0 -10 8q-9 22 -35 34q0 -357 45 -436q2 -4 2 -8q0 -7 -8 -7q-5 0 -8 5q-66 131 -66 453v1h-4q-51 1 -98 -68q-9 -159 -36.5 -277t-53.5 -118t-26 78
q0 150 74 289q3 80 3 163q0 191 -37 303q-33 101 -81 101q-44 0 -74 -85q-33 -94 -33 -253q0 -107 21 -177q24 -78 66 -78q25 0 42 39t17 93q0 49 -12 86t-12 30q0 8 9 8q8 0 23 -30q20 -40 20 -100q0 -68 -29 -106q-25 -33 -59 -33q-58 0 -94 84q-33 79 -33 192
q0 161 47 261q42 91 100 91q63 0 109 -109q53 -125 53 -338q0 -38 -2 -77q45 53 91 53q5 0 9 -1q2 197 33 344q26 126 48 126q30 0 30 -27zM267 153q-52 -129 -52 -252q0 -20 9 -20q28 0 43 272z" />
    <glyph glyph-name="afii10032" unicode="&#x41e;" horiz-adv-x="418" 
d="M409 355q0 -195 -48 -339q-53 -156 -136 -156q-102 0 -160 149q-50 128 -50 303q0 125 27 201q3 8 10 8q4 0 4 -6q0 -2 -1 -5.5t-2 -6.5q-8 -58 -8 -142q0 -177 35 -303q45 -157 131 -157q75 0 122 151q44 137 44 324q0 169 -38 279q-41 124 -116 124q-48 0 -80 -64
q-35 -70 -35 -191q0 -129 30 -229q34 -108 84 -108q25 0 42 39t17 93q0 49 -12 86t-12 30q0 8 9 8t23 -30q20 -40 20 -100q0 -68 -28 -106q-25 -33 -60 -33q-66 0 -108 107q-38 98 -38 231q0 121 35 198q39 88 111 88q92 0 143 -137q45 -121 45 -306z" />
    <glyph glyph-name="afii10033" unicode="&#x41f;" horiz-adv-x="572" 
d="M581 -88q5 7 8 15t6 17q5 17 8.5 18t5.5 -7q2 -25 -11 -48q-16 -33 -50 -36q-24 -3 -43.5 17.5t-33 53t-20.5 72t-7 75.5q0 53 4.5 118.5t12.5 146.5t12.5 147.5t4.5 121.5q0 56 -15 106q-18 61 -50 61q-69 0 -99 -287q0 -77 6 -312q2 -105 3.5 -178t1.5 -118
q0 -38 -22 -38q-18 0 -18 57q0 63 0.5 112t1.5 84v349q0 153 -20 239q-5 17 -10 30t-11 24q-26 51 -64 51q-50 0 -87 -79q-42 -89 -42 -236q0 -112 30 -187q27 -68 61 -68q26 0 44 42q21 48 21 134q0 25 -3.5 50t-9.5 46t-14.5 37t-18.5 24q-4 3 -4 8q0 9 7 9q1 0 7 -2
q15 -11 27 -28.5t20.5 -40.5t13 -50t4.5 -55q0 -90 -30 -142q-27 -47 -65 -47q-48 0 -85 72q-42 79 -42 197q0 155 52 249q47 83 111 83q53 0 88 -60q6 -11 13 -27.5t13 -34.5t10.5 -36.5t6.5 -34.5q28 187 107 187q51 0 76 -73q20 -58 20 -141q0 -55 -4.5 -119t-14.5 -137
q-18 -146 -18 -275q0 -17 4 -47t13 -59t22 -50t31 -20q21 3 35 20z" />
    <glyph glyph-name="afii10034" unicode="&#x420;" horiz-adv-x="561" 
d="M557 509q0 -125 -61 -221q-65 -101 -161 -101q-23 0 -44 7q-2 -339 -77 -339q-12 0 -23 7t-11 13q0 13 15 13q5 0 8.5 -6.5t6.5 -6.5q44 0 44 237q0 41 -1 105q-41 38 -41 95q0 12 7 12q5 0 5 -11q0 -34 28 -64q-2 129 -2 182q0 334 74 334q10 0 10 -10t-16 -10
q-30 0 -30 -198q0 -46 2 -154.5t2 -167.5v-5q21 -9 45 -9q75 0 129 100q51 95 51 214q0 128 -63 201q-57 65 -143 65q-103 0 -179 -87q-84 -96 -84 -253q0 -59 18 -97t52 -38q25 0 42 39t17 93q0 49 -12 86t-12 30q0 9 8 9q9 0 24 -30q20 -41 20 -101q0 -67 -29 -106
q-25 -33 -60 -33q-48 0 -75 48q-26 45 -26 116q0 158 92 253q83 86 199 86q104 0 174 -73q77 -81 77 -224z" />
    <glyph glyph-name="afii10035" unicode="&#x421;" horiz-adv-x="383" 
d="M378 182q0 -78 -28 -178q-47 -172 -148 -172q-78 0 -128 103q-58 117 -58 335q0 251 65 396q60 132 152 132q52 0 85 -69q37 -76 37 -209q0 -153 -44 -280q-49 -141 -121 -141q-34 0 -59 34q-29 38 -29 105q0 61 20 101q15 30 24 30q8 0 8 -9q0 7 -12 -29.5t-12 -86.5
q0 -54 17 -92.5t42 -38.5q50 0 90 117q41 124 41 301q0 129 -19 186q-19 61 -65 61q-70 0 -124 -136q-58 -149 -58 -379q0 -401 146 -401q100 0 161 303q6 29 12 29q5 0 5 -12z" />
    <glyph glyph-name="afii10036" unicode="&#x422;" horiz-adv-x="644" 
d="M310 626q5 34 9 65t11 56t17.5 43.5t29.5 26.5q14 -2 22.5 -6t14 -9.5t8.5 -12.5t6 -15q9 -20 11 -46.5t1.5 -58.5t-0.5 -68t4 -74l3 -1q4 66 9 113.5t11 78.5q19 100 57 100q23 0 37.5 -26t23 -61.5t11.5 -72.5t3 -58q0 -55 -4.5 -119t-14.5 -137q-18 -146 -18 -275
q0 -13 3 -35t8.5 -47t14.5 -47.5t20.5 -36t26 -13t32.5 22.5q5 7 8 15t6 17q5 17 8.5 18t5.5 -7q2 -25 -11 -48q-16 -33 -50 -36q-24 -3 -43.5 17.5t-33 53t-20.5 72t-7 75.5q0 53 4.5 118.5t12.5 146.5t12.5 147.5t4.5 121.5q0 34 -4.5 65t-10.5 54.5t-12.5 37.5t-12.5 14
q-38 0 -57 -210q-7 -75 -10 -151.5t-3 -156.5q0 -56 3 -117q3 -62 3 -67v-16q0 -90 -20 -90q-17 0 -17 106v118t4 116q2 31 1 83.5t-3 111.5q-1 29 -1 59.5t-0.5 59.5t-2.5 54.5t-6 45.5q-6 29 -16.5 41.5t-21.5 11.5q-12 -7 -21 -31.5t-16.5 -62.5t-13.5 -88t-12 -109
q0 -77 6 -312q2 -105 3.5 -178t1.5 -118q0 -38 -22 -38q-18 0 -18 57q0 63 0.5 112t1.5 84v349q0 153 -20 239q-5 17 -10 30t-11 24q-26 51 -64 51q-50 0 -87 -79q-42 -89 -42 -236q0 -112 30 -187q27 -68 61 -68q26 0 44 42q21 48 21 134q0 25 -3.5 50t-9.5 46t-14.5 37
t-18.5 24q-4 3 -4 8q0 9 7 9q1 0 7 -2q15 -11 27 -28.5t20.5 -40.5t13 -50t4.5 -55q0 -90 -30 -142q-27 -47 -65 -47q-48 0 -85 72q-42 79 -42 197q0 155 52 249q47 83 111 83q53 0 88 -60q6 -11 13 -27.5t13 -34.5t10.5 -36.5t6.5 -34.5z" />
    <glyph glyph-name="afii10037" unicode="&#x423;" horiz-adv-x="529" 
d="M500 -25q0 -74 -54.5 -128.5t-135.5 -54.5q-59 0 -96 28q-42 32 -42 90q0 22 11 49q8 21 15 27q4 4 10 4q8 0 8 -6v-2q-23 -30 -23 -71q0 -43 36.5 -70t85.5 -27q144 0 144 175q0 76 -16 239q-33 -158 -117 -158q-80 0 -80 154q0 57 14 194t14 198q0 187 -86 187
q-56 0 -97 -83q-44 -91 -44 -238q0 -112 29 -187q27 -68 61 -68q26 0 45 42q21 48 21 134q0 51 -13.5 96t-33.5 61q-4 3 -4 8q0 9 7 9q3 0 7 -2q31 -21 48.5 -69.5t17.5 -104.5q0 -89 -31 -142q-26 -47 -64 -47q-48 0 -86 72q-42 79 -42 197q0 154 55 249q49 87 119 87
q126 0 126 -246q0 -67 -12 -199t-12 -178q0 -107 45 -107q41 0 73 76q29 70 30 144v28q0 66 -7.5 184t-7.5 174q0 29 22 29q18 0 18 -43v-76q-1 -50 -1 -75q0 -108 21.5 -270.5t21.5 -282.5z" />
    <glyph glyph-name="afii10038" unicode="&#x424;" horiz-adv-x="562" 
d="M120 688q-47 -19 -45 -19q-21 0 -21 14q0 22 76 35q8 1 20 2l24 2t23.5 1.5t17.5 0.5q17 0 32.5 -1.5t32.5 -3.5q10 47 24.5 72t34.5 25q10 0 10 -10t-16 -10q-19 0 -27 -83q15 -3 31.5 -7.5t27.5 -8.5q46 -16 46 -26q0 -7 -9 -7q-12 0 -32 10q-14 7 -22.5 10t-10.5 4
q-4 1 -13.5 3t-18.5 4q-1 -14 -1.5 -30.5t-0.5 -34.5l12 2q51 0 92 -21t70 -60t45 -94t16 -123q0 -62 -19 -118.5t-51.5 -101t-76 -73.5t-93.5 -36q-9 -77 -26 -112.5t-43 -35.5q-12 0 -23 7t-11 13q0 13 15 13q5 0 8.5 -6.5t6.5 -6.5q9 0 16.5 6t12.5 20.5t8.5 38.5t5.5 61
l-26 1q-48 3 -87 25t-67 61t-43 92.5t-15 119.5q0 61 19 117t51 100.5t75.5 73.5t93.5 37q2 20 3.5 37t4.5 33q-15 2 -32 3t-34 1q-7 0 -20 -2t-27 -5t-26 -5.5t-18 -3.5zM265 482q0 36 0.5 70t2.5 60q-40 -6 -75 -36.5t-61.5 -75.5t-41.5 -100.5t-15 -113.5
q0 -60 11.5 -109t34 -84t55 -54.5t75.5 -19.5h18v95q0 10 -0.5 38t-1 64.5t-1 77.5t-1 78.5t-0.5 67v42.5zM303 597q0 -15 0.5 -45t0.5 -67t1 -77t1 -76t0.5 -64t0.5 -41q0 -26 -0.5 -54t-1.5 -55.5t-2.5 -52t-2.5 -42.5q40 6 75.5 36t62 75t42 101.5t15.5 114.5
q0 60 -11.5 109t-34 84t-55 54.5t-75.5 19.5q-5 0 -8 -1t-8 -2v-17z" />
    <glyph glyph-name="afii10039" unicode="&#x425;" horiz-adv-x="498" 
d="M618 -110q0 -13 -10 -24t-23 -11q-81 0 -139 120q-43 90 -82 275q-138 -396 -211 -396q-14 0 -23.5 11t-9.5 24q0 10 13 10q10 0 11 -10.5t9 -10.5q32 0 87 139q29 74 108 312q-51 259 -70 322q-43 146 -102 146q-50 0 -87 -79q-42 -89 -42 -236q0 -112 30 -187
q27 -68 61 -68q26 0 44 42q21 48 21 134q0 51 -13 96t-33 61q-4 3 -4 8q0 9 7 9q3 0 7 -2q30 -21 47.5 -69.5t17.5 -104.5q0 -89 -30 -142q-27 -47 -65 -47q-47 0 -85 72q-42 79 -42 197q0 155 52 249q47 83 111 83q72 0 123 -124q37 -88 77 -284q67 199 110 292
q60 129 103 129q17 0 17 -11q0 -13 -12 -13q-1 0 -4.5 1t-5.5 1q-25 0 -80 -149q-8 -21 -112 -329q46 -227 76 -313q50 -140 120 -140q8 0 9 14t11 14q13 0 13 -11z" />
    <glyph glyph-name="afii10040" unicode="&#x426;" horiz-adv-x="606" 
d="M498 -102q8 2 17 8q-3 36 -4 71q-2 28 9 45t24 19.5t23.5 -13t6.5 -52.5q-2 -23 -14 -44q-11 -21 -27 -36q1 -4 1 -7q5 -35 8 -68.5t2 -64t-9.5 -54.5t-28 -40.5t-52.5 -20.5q-40 -6 -76 16q-36 24 -42 66q-4 28 12.5 53.5t49.5 39.5l6 3q8 1 10 -5q-1 -1 -1.5 -2
t-4.5 -1q-21 -11 -33.5 -34.5t-8.5 -49.5q3 -25 16.5 -41.5t32 -23t39 -2t38.5 21.5q21 20 27 52.5t4 72.5q-1 36 -6 77q-10 -6 -22 -10q-20 -6 -39 2q-16 14 -23.5 54.5t-9.5 94.5q-41 -185 -119 -179q-50 3 -71 77q-8 29 -10.5 64.5t-0.5 77.5q4 55 12.5 118.5t22.5 135.5
t23 140t14 134q3 49 -1 87.5t-17 67.5q-23 54 -60 55q-49 4 -92 -73q-47 -84 -58 -232q-8 -113 18 -189q23 -69 56 -72q26 -2 47 39q24 46 30 132q1 25 -0.5 50t-6 46.5t-12 38t-17.5 25.5q-5 3 -3 8q0 9 7 9q2 0 7 -3q29 -23 43 -72t11 -105q-3 -45 -13 -80t-27 -60
q-30 -45 -68 -43q-47 3 -80 78q-36 82 -29 199q11 155 68 245q52 79 117 76q52 -5 84 -66q34 -70 27 -184q-4 -53 -12.5 -118.5t-22.5 -145.5t-22.5 -146t-11.5 -121q-4 -55 8 -107q13 -61 46 -64q69 -5 117 280q4 76 15 312q5 105 8 178t6 118q3 37 24 36q18 -1 15 -58
q-5 -63 -8.5 -112t-6.5 -84l-23 -348q-3 -39 -5.5 -77.5t-2.5 -75t4.5 -70t16.5 -62.5q12 -12 28 -7zM557 4q-2 10 -7 10.5t-10.5 -6.5t-9 -20.5t-1.5 -32.5q0 -17 2 -34q12 15 20 36q9 23 6 47z" />
    <glyph glyph-name="afii10041" unicode="&#x427;" horiz-adv-x="528" 
d="M458 34q-2 15 -3 46t-1.5 72t-1 89.5t-1.5 97.5q-30 -167 -104 -167q-51 0 -76 73q-8 30 -9 75.5t0.5 95t4 96.5t2.5 80q0 99 -28 154q-26 51 -64 51q-50 0 -87 -79q-42 -89 -42 -236q0 -112 30 -187q27 -68 61 -68q26 0 44 42q21 48 21 134q0 25 -3.5 50t-9.5 46
t-14.5 37t-18.5 24q-4 3 -4 8q0 9 7 9q1 0 7 -2q15 -11 27 -28.5t20.5 -40.5t13 -50t4.5 -55q0 -90 -30 -142q-27 -47 -65 -47q-48 0 -85 72q-42 79 -42 197q0 155 52 249q47 83 111 83q53 0 88 -60q39 -68 39 -182q0 -26 -2 -68.5t-3.5 -88t-1 -88.5t6.5 -70q18 -61 50 -61
q67 0 97 256v18q-2 105 -3.5 178t-1.5 118q0 38 22 38q18 0 18 -57q0 -63 -0.5 -112t-1.5 -84v-349q0 -153 20 -239q16 -76 46 -76q23 0 40 18q12 14 19 33q7 18 11.5 18t4.5 -8q0 -26 -17 -52q-23 -33 -58 -33q-73 0 -89 172z" />
    <glyph glyph-name="afii10042" unicode="&#x428;" horiz-adv-x="756" 
d="M424 164q2 15 2.5 43.5t1 64t1 73.5t1 73.5t1 64.5t0.5 45q0 55 -2 117q-2 61 -2 67v16q1 90 21 90q17 0 16 -106q-1 -60 -1.5 -118t-5.5 -116q-1 -19 -1.5 -61t-0.5 -91v-96v-76q1 -29 0.5 -59.5t-0.5 -59.5t2 -54.5t6 -45.5q7 -37 20.5 -44.5t29 5t31.5 42.5t29 68.5
t20.5 82t5.5 84.5q1 76 -2 312q-1 105 -1.5 178t0.5 118q0 38 22 38q18 0 18 -57q-1 -63 -2 -112t-3 -84l-4 -349q-2 -153 17 -239q15 -76 45 -76q23 0 40 18q13 14 20 33q7 18 11.5 18t4.5 -8q0 -26 -18 -52q-23 -33 -58 -33q-73 0 -87 172q3 -26 -5 -56t-22 -57t-32 -47
t-36 -26q-26 -8 -41.5 13t-23 53.5t-8 68t1.5 55.5q-30 -187 -108 -187q-51 0 -75 73q-20 58 -19 141q2 109 21 255q11 73 16.5 141.5t6.5 134.5q1 99 -26 154q-26 51 -64 51q-50 0 -88 -79q-43 -89 -45 -236q-1 -112 28 -187q26 -68 60 -68q26 0 45 42q21 48 22 134
q1 25 -2.5 50t-9 46t-14 37t-18.5 24q-4 3 -4 8q1 9 8 9q1 0 7 -2q14 -11 26 -28.5t20 -40.5t12.5 -50t3.5 -55q-1 -90 -31 -142q-28 -47 -66 -47q-48 0 -84 72q-41 79 -40 197q2 155 55 249q48 83 112 83q53 0 88 -60q38 -68 36 -182q0 -53 -5.5 -118.5t-14.5 -146.5
t-14 -147.5t-6 -121.5q-1 -57 14 -106q17 -61 49 -61q34 0 55 65.5t37 208.5z" />
    <glyph glyph-name="afii10043" unicode="&#x429;" horiz-adv-x="802" 
d="M701 -21q-2 28 9 45t24 19.5t23.5 -13t6.5 -52.5q-2 -23 -14 -44q-11 -21 -27 -36q1 -4 1 -7q5 -35 8 -68.5t2 -64t-10 -54.5t-28 -40.5t-52 -20.5q-40 -6 -76 16q-36 24 -42 66q-4 28 12.5 53.5t49.5 39.5l6 3q8 1 10 -5q-1 -1 -1.5 -2t-4.5 -1q-21 -11 -33.5 -34.5
t-8.5 -49.5q3 -25 16.5 -41.5t32 -23t39 -2t38.5 21.5q21 20 27 52.5t4 72.5q-1 37 -6 77q-9 -5 -19 -8q-19 -6 -36 3q-45 33 -52 169q2 -26 -6.5 -56t-23 -57t-33 -47t-36.5 -26q-27 -8 -41.5 13t-21.5 53.5t-7 68.5q1 32 3 51q-36 -183 -112 -183q-50 0 -74 73
q-9 29 -12.5 64t-2.5 77q2 55 8.5 118.5t17.5 136.5q13 73 19.5 141.5t8.5 134.5q3 100 -23 154q-24 51 -61 52q-51 0 -91 -79q-44 -87 -49 -236q-2 -57 3.5 -103t19.5 -84q26 -68 59 -68q26 0 46 42q21 46 26 133q1 25 -2 50t-8.5 46.5t-13.5 37.5t-18 24q-3 2 -3 8
q0 9 7 9q1 0 7 -2q29 -22 45.5 -70t14.5 -105q-5 -90 -36 -141q-29 -47 -66 -47q-47 0 -83 72q-38 78 -35 197q4 154 59 249q51 83 115 83q54 -2 85 -61q37 -67 34 -182q-2 -53 -8.5 -118.5t-17.5 -146.5t-17 -147.5t-8 -121.5q-3 -55 11 -106q15 -61 48 -61q35 0 56.5 65
t41.5 209q1 15 2.5 43.5t3 64t2.5 73.5t2.5 73.5t2 64.5t1.5 45q1 55 0 117q0 31 -0.5 47.5t-0.5 19.5l1 16q3 90 24 90q15 0 12 -106q-2 -60 -3.5 -118t-7.5 -116q-2 -19 -3 -61t-2.5 -91t-2 -96t-0.5 -76t-1 -59.5t-1.5 -59.5t0.5 -54.5t4 -45.5q7 -36 20 -44t29 4.5
t33 42.5t30.5 68.5t21.5 82t8 84.5q2 38 2.5 115.5t2.5 195.5q1 207 3 296q3 38 25 38q16 0 15 -57q-2 -63 -4 -112t-4 -84l-10 -349q-2 -73 1 -136.5t10 -106.5q8 -48 21 -66q16 -11 33 -6q5 2 10 5q-3 37 -4 73zM719 -43q0 -19 2 -39l4 4q13 15 20 37.5t4 46.5
q-2 10 -7.5 10.5t-11.5 -6.5t-9.5 -20.5t-1.5 -32.5z" />
    <glyph glyph-name="afii10044" unicode="&#x42a;" horiz-adv-x="487" 
d="M421 193q0 52 -8.5 100.5t-23 86t-34 60t-40.5 22.5q-14 0 -26 -9.5t-22 -26t-15.5 -38t-5.5 -45.5q0 -27 6.5 -47.5t8.5 -20.5l1 1q-2 -6 -7 -6q-9 0 -22.5 22.5t-13.5 58.5q0 27 8.5 50.5t22 41t31.5 27.5t37 10q28 0 54 -25.5t46.5 -67.5t32.5 -96t12 -111
q0 -61 -13 -118t-35.5 -100.5t-51.5 -70t-62 -26.5q-38 0 -70.5 23.5t-55.5 66.5t-36 102.5t-13 130.5q0 49 4.5 115t22 139t51.5 148q20 44 49 86q-21 8 -42 17q-35 15 -67 20t-60 -8t-48 -59q-3 -5 -9 -2q-5 5 -1 10q38 88 97 107q23 8 47.5 2t49.5 -18.5t49 -27.5l10 -6
q9 12 20 24q22 25 49.5 33t47.5 1t27 -26.5t-10 -48.5q-29 -31 -62.5 -33.5t-68.5 7.5q-3 1 -7 1q-47 -77 -72 -176q-34 -132 -36 -284q-1 -69 9.5 -128.5t29.5 -103.5t45 -69.5t56 -26.5q24 0 45 26t36.5 69.5t24 99.5t8.5 117zM310 719q-7 -9 -13 -18q10 -5 20 -9
q23 -9 43.5 -8.5t37.5 19.5q13 21 8.5 34.5t-19.5 17t-36.5 -5t-40.5 -30.5z" />
    <glyph glyph-name="afii10045" unicode="&#x42b;" horiz-adv-x="635" 
d="M163 779q-42 -2 -72.5 -23t-49.5 -52.5t-26 -69t-1 -73t24.5 -64.5t50.5 -43q7 -2 7 5q2 7 -6 10q-24 13 -34 40t-9.5 59.5t10 67t24.5 63t34.5 47.5t39.5 19q27 -3 36 -33t6.5 -77t-13 -106t-22 -120t-20.5 -119.5t-9 -104.5q0 -71 14 -133t38.5 -108t57.5 -72.5
t71 -26.5q33 0 62 29t51.5 76t35.5 106.5t13 120.5q0 57 -12 111t-32.5 96t-46.5 67.5t-54 25.5q-19 0 -37 -10t-31.5 -27.5t-22 -41t-8.5 -50.5q0 -36 13.5 -58.5t22.5 -22.5q5 0 7 6l-1 -1q-2 0 -8.5 20.5t-6.5 47.5q0 24 5.5 45.5t15.5 38t22 26t26 9.5q21 0 40 -22.5
t33.5 -60t22.5 -86t8 -100.5q0 -61 -8.5 -120t-23.5 -105.5t-35.5 -75t-44.5 -28.5q-30 1 -56.5 29.5t-46 75.5t-30.5 109t-8 131q2 48 10.5 106.5t17.5 119t15 118t4 103t-16.5 74.5t-46.5 32zM522 302q1 99 9 195.5t24 170.5q25 126 48 126q30 0 30 -27q0 -8 -9 -16.5
t-12 -15.5q-14 -29 -30 -122q-11 -67 -17.5 -151.5t-7.5 -166.5q0 -179 11 -279t34 -140q2 -6 2 -8q0 -7 -8 -7q-5 0 -8 5q-33 65 -49.5 170t-16.5 266z" />
    <glyph glyph-name="afii10046" unicode="&#x42c;" horiz-adv-x="487" 
d="M153 779q32 -3 46.5 -32t16.5 -74.5t-4 -103t-15 -118t-17.5 -119t-10.5 -106.5q-3 -69 8 -131t30.5 -109t46 -75.5t56.5 -29.5q24 0 44.5 28.5t35.5 75t23.5 105.5t8.5 120q0 52 -8 100.5t-22.5 86t-33.5 60t-40 22.5q-14 0 -26 -9.5t-22 -26t-15.5 -38t-5.5 -45.5
q0 -27 6.5 -47.5t8.5 -20.5l1 1q-2 -6 -7 -6q-9 0 -22.5 22.5t-13.5 58.5q0 27 8.5 50.5t22 41t31.5 27.5t37 10q28 0 54 -25.5t46.5 -67.5t32.5 -96t12 -111q0 -61 -13 -120.5t-35.5 -106.5t-51.5 -76t-62 -29q-38 0 -71 26.5t-57.5 72.5t-38.5 108t-14 133q0 46 9 104.5
t20.5 119.5t22 120t13 106t-6.5 77t-36 33q-20 0 -39.5 -19t-34.5 -47.5t-24.5 -63t-10 -67t9.5 -59.5t34 -40q8 -3 6 -10q0 -7 -7 -5q-32 14 -50.5 43t-24.5 64.5t1 73t26 69t49.5 52.5t72.5 23z" />
    <glyph glyph-name="afii10047" unicode="&#x42d;" horiz-adv-x="434" 
d="M282 360q-29 -1 -61 -23q-32 -20 -30 -20q-14 0 -14 23q0 14 33 28q32 14 75 16q11 1 25.5 -2t28.5 -8q-2 44 -5 80t-7 62q-6 52 -18 98t-29.5 81.5t-39.5 58.5t-48 30h-2q-28 6 -50 -14.5t-36.5 -55.5t-21.5 -77t-4.5 -78.5t14.5 -62t36 -25.5q23 -2 42 23.5t25 64.5
q3 15 2.5 30t-2 27t-4 19.5t-3.5 7.5q0 5 9 5q5 0 13 -8t14.5 -21.5t10 -30t0.5 -34.5q-3 -23 -15 -41.5t-27.5 -31t-34 -19t-35.5 -6.5q-36 1 -57.5 27.5t-28.5 65t0 83.5t26.5 83.5t52 63t76.5 23.5q65 -20 110.5 -95t65.5 -202q4 -28 7 -67.5t5 -81.5q24 -14 38 -30
q2 -4 2 -6q0 -9 -10 -9q-4 0 -29 19v-75q-3 -81 -19 -149t-42.5 -117t-62.5 -76.5t-78 -27.5q-31 0 -60.5 11t-52.5 33.5t-37 56.5t-15 79q1 45 13.5 82.5t32.5 63.5t45.5 40.5t54.5 14.5q27 0 47.5 -17.5t33.5 -44.5t17 -60t-2 -64t-23 -56.5t-47 -36.5l-4.5 -1.5
t-3.5 -0.5q-8 0 -8 6q0 4 4 7q18 11 30 34.5t17.5 52t5 58t-8 54t-21.5 40t-36 15.5q-21 0 -40.5 -15t-34 -41.5t-22.5 -63t-5 -79.5q9 -82 41.5 -121.5t82.5 -32.5t81.5 52.5t48.5 111t22.5 142t4.5 146.5q-16 5 -31.5 8t-26.5 1z" />
    <glyph glyph-name="afii10048" unicode="&#x42e;" horiz-adv-x="807" 
d="M788 385q0 -195 -48 -339q-53 -156 -136 -156q-101 0 -160 149q-46 115 -50 267q-39 -10 -75 -65q-9 -161 -37 -277q-27 -118 -53 -118t-26 78q0 149 74 289q3 79 3 163q0 192 -37 303q-33 101 -81 101q-44 0 -74 -85q-33 -95 -33 -253q0 -107 21 -177q24 -78 66 -78
q12 0 23 10.5t19 28.5t12.5 42t4.5 51q0 48 -12 86q-10 33 -12 31q0 7 9 7q8 0 23 -30q20 -42 20 -100q0 -68 -29 -106q-26 -33 -59 -33q-58 0 -94 84q-33 79 -33 192q0 159 47 261q42 91 100 91q63 0 109 -109q53 -126 53 -338q0 -19 -0.5 -38t-1.5 -39q36 42 73 51v13
q0 124 27 201q3 8 10 8q4 0 4 -6q0 -2 -1 -5.5t-2 -6.5q-4 -29 -6 -64.5t-2 -77.5v-32.5t1 -30.5q33 -17 44 -49q1 -1 1 -4q0 -7 -4 -7q-7 0 -10 8q-10 21 -30 31q6 -125 33 -219q45 -157 131 -157q76 0 122 151q44 138 44 324q0 168 -38 279q-40 124 -116 124
q-49 0 -80 -64q-35 -72 -35 -191q0 -129 30 -229q34 -108 84 -108q12 0 23 10.5t19 28.5t12.5 42t4.5 51q0 48 -12 86q-10 33 -12 31q0 7 9 7t23 -30q20 -42 20 -100q0 -69 -28 -106q-26 -33 -60 -33q-66 0 -108 107q-38 99 -38 231q0 120 35 198q39 88 111 88
q92 0 143 -137q45 -122 45 -306zM274 153q-52 -128 -52 -252q0 -20 9 -20q28 0 43 272z" />
    <glyph glyph-name="afii10049" unicode="&#x42f;" horiz-adv-x="681" 
d="M167 -192q-40 1 -66.5 18t-42.5 43.5t-24 60t-10 68.5q-4 94 37 187q46 97 114 99q38 0 62 -34q20 -31 23 -81q3 -67 -25 -127q-30 -61 -74 -62q-7 0 -7 6q0 7 8 7q30 2 50 44q24 47 20 123q-6 112 -54 112q-46 -1 -84 -84q-9 -21 -16 -55.5t-10 -75t-1 -82t12 -74.5
t28 -53.5t47 -19.5q55 0 101 43.5t81.5 111.5t60.5 150.5t39 161.5l2 12l2 12q-92 15 -148 58t-82 98t-23.5 115t28 109t73 79t111.5 26q35 -6 56.5 -31t33 -63t14.5 -86t0.5 -98.5t-9 -101t-14.5 -93.5q6 -1 12.5 -1t12.5 -1q1 2 1 2.5t1 2.5h11q-1 -5 -1 -10t-1 -11l1 -1
h-1q-1 -25 -1.5 -56t1.5 -63.5t7.5 -63.5t15 -55t24.5 -38t37 -13q14 1 25.5 16.5t22.5 42.5q2 5 6 1t4 -8q-2 -13 -6.5 -26t-12 -23.5t-18.5 -17.5t-24 -7q-49 -1 -74.5 31.5t-34 80.5t-4 102t16.5 97q-6 1 -12 1.5t-12 0.5q-1 -6 -2 -11.5t-2 -10.5q-8 -41 -20.5 -92.5
t-30.5 -105t-42.5 -104.5t-56 -90.5t-71 -64t-87.5 -24.5zM395 788q-46 8 -81.5 -18t-55.5 -71t-22 -101t19 -109t67 -94.5t121 -57.5q8 44 15.5 93t11.5 97.5t3.5 92.5t-8 79.5t-24.5 59t-46 29.5z" />
    <glyph glyph-name="afii10065" unicode="&#x430;" 
d="M260 157q0 -27 -24 -83q-28 -66 -55 -66q-40 0 -45 70h-2q-45 -96 -82 -96q-39 0 -39 79q0 73 47 139q44 63 91 68q3 32 3 38q0 51 -32 51q-18 0 -34 -23t-16 -53q0 -22 -13 -22q-15 0 -15 22q0 27 24.5 58.5t53.5 31.5q57 0 57 -81q0 -32 -7 -97.5t-7 -93.5
q0 -54 18 -54q19 0 39 45q18 38 20 64q1 11 9 11q9 0 9 -8zM150 249q-40 -6 -75 -60t-35 -111q0 -43 25 -43q22 0 52 52.5t30 87.5q0 30 3 74z" />
    <glyph glyph-name="afii10066" unicode="&#x431;" horiz-adv-x="254" 
d="M195 277q-14 -2 -30 -11t-27 -21q-31 -32 -31 -87q0 -38 18.5 -71.5t46.5 -44.5q16 28 23 62.5t7 76.5q0 30 -7.5 71.5t-17 84t-19 82t-12.5 65.5q-3 43 7.5 65.5t27 35t36 19.5t36 18.5t26.5 33t8 61.5q30 -35 39 -63t-17 -52q-17 -16 -42 -21t-48 -12t-39 -21t-15 -47
q1 -35 11.5 -78.5t23 -89t22.5 -88.5t10 -76q-1 -39 -8.5 -72t-24.5 -59q59 2 87 98q3 10 10 10q6 0 6 -9q0 -41 -32 -82q-35 -44 -74 -44q-6 0 -16 2q-23 -22 -55 -22q-43 0 -71 48.5t-28 129.5q0 73 30 126q30 52 73 52q4 0 13 -1.5t19 -6.5t20.5 -13.5t17.5 -22.5h-15
q-11 17 -25.5 22t-22.5 5q-40 0 -62 -66q-18 -53 -18 -109q0 -51 15 -94q19 -55 53 -55q18 0 34 16q-29 17 -48.5 53t-19.5 78q0 59 33 97q28 34 61 38z" />
    <glyph glyph-name="afii10067" unicode="&#x432;" horiz-adv-x="259" 
d="M15 327q-22 -14 -25 -11q-5 5 -2 12l21 18q5 3 10 7q-1 35 -1 63v46q0 299 116 299q43 0 65.5 -32t15.5 -108q-3 -30 -21 -68.5t-45.5 -78.5t-62.5 -79q-22 -24 -45 -46q0 -19 1 -42q1 -48 5 -100t13.5 -94.5t25.5 -70t41 -28.5q28 -1 44 30q-21 10 -38.5 30t-30 46
t-19 56t-6.5 62q0 30 6 57t16.5 47t25 32t32.5 12q15 0 28.5 -14.5t24 -39t16.5 -58.5t6 -73q0 -87 -30 -148q5 -1 13 -1q56 0 75 82q6 25 11 25q9 0 9 -8q0 -14 -3 -27q-8 -37 -32.5 -63.5t-59.5 -26.5q-5 0 -11 0.5t-11 1.5q-23 -44 -69 -44q-44 0 -67 56
q-10 25 -16.5 61.5t-10.5 77t-7 82.5q-2 32 -3 62zM73 407q32 36 56.5 76.5t39.5 83t15 79.5q0 44 -12 69.5t-39 25.5q-45 0 -64 -72t-25 -218q-1 -18 -2 -57q0 -10 -1 -21q16 16 32 34zM204 192q0 31 -4 59.5t-11.5 49.5t-17.5 33.5t-22 12.5q-22 0 -37.5 -30.5
t-15.5 -75.5q0 -30 6 -58.5t17 -52.5t26.5 -42t34.5 -27q24 55 24 131z" />
    <glyph glyph-name="afii10068" unicode="&#x433;" horiz-adv-x="235" 
d="M32 117q18 130 39.5 191.5t62.5 59.5q25 -2 37 -14t14 -31t-3 -41t-15 -43q-15 -33 -26 -66t-14 -61t3.5 -48.5t26.5 -27.5q11 -1 23.5 3t24 16.5t20.5 37t13 65.5q1 10 7 9t6 -3v-6q0 -11 -4 -35.5t-12.5 -50t-22.5 -46t-35 -23.5q-31 -5 -49 8.5t-28 51.5q-4 22 2.5 49
t16.5 55t21 55t16 49.5t0.5 38t-23.5 19.5q-14 3 -26 -9.5t-22.5 -39t-19 -64.5t-15.5 -85q0 -12 -2.5 -19.5t-6 -9.5t-6.5 1t-3 14z" />
    <glyph glyph-name="afii10069" unicode="&#x434;" horiz-adv-x="198" 
d="M194 339q0 -1 -9.5 -79.5t-9.5 -118.5q0 -48 3 -103.5t3 -88.5q0 -123 -37 -186q-30 -54 -79 -54q-44 0 -76 35q-34 39 -34 102q0 65 16 65q6 0 6 -7q0 2 -2.5 -12.5t-2.5 -38.5q0 -55 26 -90t60 -35q42 0 69 61q32 74 32 220q0 70 -6 86q-5 -25 -22 -51q-22 -34 -47 -34
q-55 0 -55 111q0 92 35.5 183t73.5 91q13 0 24 -16q2 7 4.5 14.5t11.5 7.5q10 0 13 -12t3 -50zM155 330q-2 39 -22 39q-24 0 -46 -66q-24 -71 -24 -160q0 -87 33 -87q27 0 43 58q16 53 16 132q0 88 0 84z" />
    <glyph glyph-name="afii10070" unicode="&#x435;" horiz-adv-x="190" 
d="M237 132q0 -43 -37.5 -88t-80.5 -45q-48 0 -75 32q-25 28 -25 71q0 35 21.5 65t56.5 41q-15 14 -29 39q-24 43 -24 88q0 27 14.5 42.5t36.5 15.5q27 0 47 -25q17 -21 17 -38q0 -11 -10 -11q-1 0 -10 22t-32 22q-31 0 -31 -45q0 -36 18.5 -72.5t41.5 -36.5q15 0 15 -12
q0 -11 -22 -11q-39 0 -62.5 -29.5t-23.5 -65.5q0 -66 61 -66q42 0 77 36q31 32 39 69q4 15 11 15q6 0 6 -13z" />
    <glyph glyph-name="afii10072" unicode="&#x436;" horiz-adv-x="494" 
d="M429 1q-52 -2 -81.5 34t-29.5 102q0 17 2 35q-7 1 -15 2h-8l-1 -96v-104q-1 -22 -1 -38v-27q0 -13 3 -30.5t3 -21.5q0 -11 -4 -11q-21 0 -21 19l1 308q-14 -1 -30 -4q-3 -19 -8 -39q-10 -35 -26 -64t-36.5 -47.5t-41.5 -18.5q-24 0 -40 19t-16 48q0 26 16.5 45t42.5 19
q8 0 8 -5q0 -6 -9 -6q-14 0 -22 -17.5t-8 -40.5q0 -48 30 -48q16 0 30.5 16.5t25.5 43t17 58.5q3 14 5 28l-2 -1q-8 -4 -14 -6.5t-10 -4.5t-8 -3q-8 0 -10.5 2.5t-2.5 10.5q0 9 34 18q7 2 14 3q1 8 1 16q0 95 -47 117q-23 4 -43 -12.5t-35 -43.5t-25.5 -58t-14.5 -55
q-2 -8 -3 -8h-4q-2 0 -4 -0.5t-2 6.5q0 24 9 56.5t25 63t38 52.5t49 24q18 -2 34 -13.5t28.5 -30t19.5 -42.5t7 -51v-14q13 2 28 4v68q0 285 29 285q12 0 12 -52q0 -13 -3 -55t-8 -114q-3 -36 -4.5 -57.5t-3 -35t-2 -22t-0.5 -17.5q10 0 22 -2q2 -1 4 -1q2 11 5 21
q10 36 26.5 65t37 47t42.5 18q23 0 39 -19.5t16 -47.5q0 -26 -16 -45.5t-42 -19.5q-8 0 -8 6q0 5 9 5q13 0 21 17.5t8 40.5q0 48 -29 48q-16 0 -30.5 -16t-26 -42t-18.5 -59q-2 -12 -4 -25l7 -2q21 -5 38.5 -12t28.5 -15q1 -2 1.5 -2.5t0.5 -2.5q0 -6 -11 -6q-1 0 -9.5 3.5
t-23.5 11.5q-8 4 -22 7q-5 2 -11 3q-1 -12 -1 -24q0 -62 17.5 -92.5t55.5 -30.5q12 3 25 13.5t24.5 26t20.5 35t13 39.5q3 15 10 15q5 0 5 -13q0 -19 -8 -41.5t-21.5 -42t-30 -33.5t-33.5 -17z" />
    <glyph glyph-name="afii10073" unicode="&#x437;" horiz-adv-x="222" 
d="M138 137q-7 -11 -13.5 -22.5t-14.5 -24.5q59 0 77 -63q57 47 69 119q3 20 11 20q6 0 6 -15q0 -8 -1 -11q-17 -86 -81 -134q1 -8 1.5 -16t0.5 -16q0 -74 -30 -129q-35 -63 -88 -63q-43 0 -43 50q0 77 125 173q-11 68 -56 68q-29 -51 -45 -51q-10 0 -10 12q0 32 42 55
l33 59q22 43 27 71.5t-1 43.5q-4 10 -11.5 15.5t-15 8t-13.5 2.5t-8 -1q-11 -5 -21 -20.5t-15 -47.5q-15 -94 -19 -102q-3 -9 -12 -9q-6 0 -6 6q0 3 1 6q9 22 15 82q4 32 7 52.5t6 31.5q6 20 15.5 27t20.5 12q8 3 21.5 4t27.5 -3.5t25.5 -16.5t14 -34t-6.5 -56t-35 -83z
M160 -33v8t-1 8q-111 -86 -111 -153q0 -33 29 -33q34 0 60 56q23 54 23 114z" />
    <glyph glyph-name="afii10074" unicode="&#x438;" horiz-adv-x="205" 
d="M258 157q0 -28 -25 -87q-28 -70 -57 -70q-35 0 -44 94q-12 -84 -48 -84q-55 0 -55 152q0 69 12 133t26 64q11 0 11 -19q0 -5 -12.5 -66t-12.5 -138q0 -80 34 -80q32 0 44 93q5 40 10 81q9 65 22 65q9 0 9 -10q0 -2 -7 -50q-9 -56 -9 -111q0 -92 24 -92q17 0 39 51
q20 45 22 71q1 11 7 11q10 0 10 -8z" />
    <glyph glyph-name="afii10075" unicode="&#x439;" horiz-adv-x="205" 
d="M258 157q0 -28 -25 -87q-28 -70 -57 -70q-35 0 -44 94q-12 -84 -48 -84q-55 0 -55 152q0 69 12 133t26 64q11 0 11 -19q0 -5 -12.5 -66t-12.5 -138q0 -80 34 -80q32 0 44 93q5 40 10 81q9 65 22 65q9 0 9 -10q0 -2 -7 -50q-9 -56 -9 -111q0 -92 24 -92q17 0 39 51
q20 45 22 71q1 11 7 11q10 0 10 -8zM301 544q-4 -12 -116 -49q16 -32 31 -75h-1q-8 3 -42 57q-14 -38 -24 -65q-20 -52 -26 -55q-2 16 30 129q-26 -8 -45 -13q-36 -8 -46 -6l-1 1q4 10 93 40q-64 110 -61 127h2q16 -4 71 -106q71 227 91 237q2 -11 -8 -50q-14 -55 -61 -197
q94 30 113 27v-2z" />
    <glyph glyph-name="afii10076" unicode="&#x43a;" horiz-adv-x="213" 
d="M46 129q-1 -22 -0.5 -45t0.5 -34q0 -13 4 -30t4 -21q-1 -11 -6 -11q-22 0 -21 19q0 18 0.5 45.5t0 58t-0.5 60t1 51.5q0 52 3 83t6.5 47t7.5 20.5t8 4.5q5 0 5 -12.5t-1 -38.5q0 -3 -1 -26t-3 -58q7 23 17.5 44t23.5 37.5t26 26t24 9.5q23 0 37.5 -17t14.5 -45
q-2 -10 -8.5 -16.5t-14 -8.5t-13 2t-3.5 16q1 30 -24 30q-13 0 -24.5 -11.5t-22 -30t-19 -41.5t-13.5 -46q17 13 35.5 12t26.5 -9t9 -24t1 -37v-30.5t2 -27.5t8 -19.5t18 -7.5q10 0 21.5 11t21.5 27.5t17.5 35t9.5 32.5q2 11 8 11q10 0 10 -8q-1 -13 -10 -39.5t-21.5 -52.5
t-27.5 -45.5t-27 -19.5q-19 0 -30 13.5t-16 34t-5.5 46t0.5 51.5q0 20 -7 28t-16 8t-18.5 -6t-15.5 -15q0 -8 -1 -15.5t-1 -15.5z" />
    <glyph glyph-name="afii10077" unicode="&#x43b;" horiz-adv-x="317" 
d="M72 -1q-27 4 -41 18t-18 32.5t-1 38t10 35.5q5 10 13 15t15 3.5t11 -9t1 -21.5q-10 -49 -7.5 -65.5t24.5 -17.5q24 5 40 38.5t28 79t22.5 93.5t22.5 83q36 103 56 103q5 0 12.5 -7t7.5 -14q0 13 -18 -86q-8 -50 -12.5 -103.5t-4.5 -112.5q0 -74 27 -74q16 0 39 39
q16 31 22 56q3 9 8 9q9 0 9 -12q0 -1 -1 -6q-4 -21 -27 -62q-28 -52 -54 -52q-49 0 -49 186q0 73 15 162l-2 -1q-7 -14 -15 -44t-16 -64.5t-15 -68t-13 -54.5q-6 -23 -16.5 -44t-23 -37.5t-25.5 -26t-24 -9.5z" />
    <glyph glyph-name="afii10078" unicode="&#x43c;" horiz-adv-x="409" 
d="M209 15q1 27 0.5 65t0 79t2.5 82t8 74l-2 -1q-7 -14 -14.5 -39t-14.5 -53.5t-14 -56.5t-13 -49q-16 -48 -39 -82.5t-46 -34.5q-28 4 -41.5 19t-18 33.5t-1 37.5t10.5 32q5 9 13.5 12.5t16 2.5t11.5 -7.5t1 -17.5q-10 -41 -8.5 -61.5t23.5 -21.5q14 0 26 15.5t22.5 40
t19 54.5t16 59t13 53.5t9.5 38.5q33 103 56 103q5 0 10 -7t5 -14q0 13 -18 -86q-4 -25 -6 -45.5t-3 -41.5t-1 -44v-52q6 10 14 33t17 51.5t18.5 58.5t18 55t15.5 41t11 16q14 0 14 -13q0 1 -3 -15.5t-8 -49.5q-3 -17 -4 -28.5t-0.5 -22.5t1 -22.5t0.5 -27.5q0 -131 31 -131
q34 0 58 90q3 13 10 13q6 0 6 -12q0 -27 -28 -79q-29 -56 -53 -56q-18 0 -28 22t-15.5 54.5t-6.5 68.5t-1 64q-18 -37 -33 -75t-29 -92q-6 -22 -9.5 -32.5t-8.5 -10.5q-11 0 -11 13z" />
    <glyph glyph-name="afii10079" unicode="&#x43d;" horiz-adv-x="211" 
d="M55 31v-35.5t-9 -7.5q-13 0 -13 19v89q-1 35 -1 60v41q0 209 25 209q10 0 10 -51q0 -7 -1.5 -26t-5.5 -50q-5 -44 -6 -70l58 7q1 15 2.5 31.5t4.5 37.5t7.5 48.5t10.5 63.5q3 12 9 16t11.5 3t10 -4.5t5.5 -6.5q-2 4 -18 -87q-8 -50 -12.5 -103.5t-4.5 -112.5
q0 -74 27 -74q16 0 39 39q16 31 22 56q3 9 8 9q9 0 9 -12q0 -1 -1 -6q-4 -21 -27 -62q-28 -52 -54 -52q-49 0 -49 186v8l-59 -4v-7z" />
    <glyph glyph-name="afii10080" unicode="&#x43e;" horiz-adv-x="254" 
d="M302 137q0 -42 -32 -82q-34 -44 -74 -44q-8 0 -16 2q-24 -22 -55 -22q-43 0 -71 48.5t-28 129.5q0 74 30 126t73 52t73 -52t30 -126q0 -78 -33 -131q58 1 87 98q3 10 10 10q6 0 6 -9zM204 181q0 50 -15 93q-28 -5 -51 -29q-31 -33 -31 -87q0 -38 18.5 -71.5t46.5 -44.5
q32 56 32 139zM184 288q-18 42 -48 42q-39 0 -62 -66q-18 -52 -18 -109q0 -51 15 -94q19 -55 53 -55q18 0 34 16q-29 17 -48.5 53t-19.5 78q0 59 33 97q27 33 61 38z" />
    <glyph glyph-name="afii10081" unicode="&#x43f;" horiz-adv-x="192" 
d="M237 120q0 2 -1 -6q-4 -22 -27 -62q-29 -52 -54 -52q-49 0 -49 186q0 73 15 162l-2 -1q-18 -43 -40 -135q-23 -96 -23 -138q0 -15 -1 -43v-35.5t-9 -7.5q-13 0 -13 19v89q-1 70 -1 101q0 209 25 209q10 0 10 -51q0 -14 -7 -76q-6 -66 -7 -96l2 1q10 57 36 138
q33 103 56 103q5 0 12.5 -7t7.5 -14q0 13 -17.5 -86t-17.5 -216q0 -74 27 -74q17 0 39 39q16 31 22 56q3 9 8 9q9 0 9 -12z" />
    <glyph glyph-name="afii10082" unicode="&#x440;" horiz-adv-x="218" 
d="M270 149q-10 -47 -21 -69q-24 -46 -72 -46q-23 0 -44 14q-16 -9 -33 -9q-29 0 -48 26v-22q-1 -91 1 -150q2 -65 2 -76q0 -23 -14 -23t-14 22q0 6 4 73q3 62 2 157v291v8v7q0 29 16 29t16 -16q0 -4 -1 -12t-1 -11v-8q25 47 63 47q30 0 52 -43q24 -47 24 -118
q0 -108 -53 -159q12 -9 29 -9q53 0 72 82q5 25 11 25q11 0 9 -10zM173 213q0 55 -17 94.5t-45 39.5q-21 0 -37 -25t-16 -64q0 -127 74 -186q41 44 41 141zM116 60q-42 35 -62 103q0 -7 -1 -49q14 -56 51 -56q6 0 12 2z" />
    <glyph glyph-name="afii10083" unicode="&#x441;" horiz-adv-x="228" 
d="M275 132q0 -47 -40.5 -90t-87.5 -43q-64 0 -97 40q-28 35 -28 93q0 71 37.5 133.5t85.5 62.5q27 0 44 -26q14 -24 14 -59q0 -34 -15.5 -59t-43.5 -25q-9 0 -9 7t10 7q14 0 23 23t9 53q0 65 -34 65q-35 0 -61.5 -56.5t-26.5 -120.5q0 -120 87 -120q48 0 81 41q26 30 36 72
q3 15 10 15q6 0 6 -13z" />
    <glyph glyph-name="afii10084" unicode="&#x442;" horiz-adv-x="256" 
d="M305 139q0 -27 -28 -79q-29 -56 -53 -56q-48 0 -48 138q0 35 4 85l-2 1q-10 -20 -36 -105q-2 -7 -17 -76q-9 -43 -18 -43q-11 0 -11 13q0 4 6 63.5t6 76.5q0 8 1 35.5t1 40.5q0 24 -3 24q-10 0 -32 -58q-22 -61 -22 -97q0 -23 1 -50t1 -49q0 -15 -9 -15q-13 0 -13 19v89
q-1 70 -1 101q0 209 25 209q10 0 10 -51q0 -29 -6 -82q-7 -56 -8 -82l3 1q36 136 57 136q17 0 17 -48q0 -71 -8 -158h2q14 63 38 146q33 119 45 119q14 0 14 -13q0 1 -10.5 -65t-10.5 -130q0 -131 31 -131q34 0 58 90q3 13 10 13q6 0 6 -12z" />
    <glyph glyph-name="afii10085" unicode="&#x443;" horiz-adv-x="179" 
d="M186 454q0 -27 -17 -145t-17 -168q0 -48 5 -103.5t5 -88.5q0 -195 -125 -195q-29 0 -29 17q0 10 8 18t18 8q6 0 13 -5t13 -5q58 0 74 86q6 32 6 136q0 70 -6 86q-3 -21 -15 -47q-17 -38 -36 -38q-20 0 -34 30q-18 39 -18 112v17q0 146 22 146q12 0 12 -63q0 -20 -6.5 -64
t-6.5 -52q0 -80 34 -80q24 0 37 58q13 52 13 132q0 98 7 180q10 106 27 106q16 0 16 -78z" />
    <glyph glyph-name="afii10086" unicode="&#x444;" horiz-adv-x="378" 
d="M181 603q0 28 16 28t16 -16v2q-1 0 -1.5 -18.5t-1.5 -47.5t-1.5 -65t-1.5 -71t-1.5 -66t-1.5 -49q29 47 66 47q35 0 57.5 -43t22.5 -118q0 -108 -53 -159q18 -9 36 -9q27 0 46.5 20t28.5 62q6 25 11 25q9 0 9 -8v-2q-14 -65 -35 -90t-60 -25q-27 0 -52 14q-17 -9 -33 -9
q-29 0 -48 31v-27q0 -95 1.5 -138.5t1.5 -53.5q0 -23 -14 -23t-14 22q0 3 3 36.5t3 110.5q1 12 0.5 24t-0.5 25v33q-14 -22 -32.5 -33t-36.5 -11q-35 0 -57.5 43t-22.5 118q0 108 53 159q9 8 21.5 14t26 6t26.5 -6t22 -22v290zM129 321q-20 0 -33.5 -15.5t-21 -38
t-10.5 -49.5t-3 -49q0 -27 4.5 -51.5t12.5 -43t19.5 -29t25.5 -10.5q20 0 38 22.5t20 58.5v159q-6 25 -19 35.5t-33 10.5zM321 179q0 27 -4.5 51.5t-12.5 43t-19.5 29t-25.5 10.5q-21 0 -37 -25t-16 -64q0 -127 74 -186q41 44 41 141zM264 26q-42 35 -62 103q-1 -14 -1 -28
v-28q12 -49 51 -49q4 0 12 2z" />
    <glyph glyph-name="afii10087" unicode="&#x445;" horiz-adv-x="241" 
d="M295 157q0 -28 -25 -84q-30 -66 -60 -66q-45 0 -82 102q-43 -120 -48 -141q-7 -24 -16 -24q-8 0 -8 8q0 10 63 185q-48 152 -51 152q-7 0 -9 -61q-1 -35 -2 -51q-3 -30 -9 -50q-4 -12 -12 -12q-6 0 -6 8q0 12 5 51t5 56q2 64 6 87q6 39 24 39q26 0 68 -165q53 147 67 181
q4 11 12 11q7 0 7 -8q0 -3 -78 -218q32 -129 64 -129q20 0 44 53q21 46 23 73q1 11 8 11q10 0 10 -8z" />
    <glyph glyph-name="afii10088" unicode="&#x446;" horiz-adv-x="230" 
d="M240 73q-2 -5 -6 -13q12 -22 14.5 -53.5t-4 -59.5t-23 -46t-41.5 -13q-24 5 -34.5 23t-6.5 34q1 4 2.5 6.5t3.5 6.5q4 2 6 2q3 -1 3.5 -7.5t2 -14t5.5 -15t14 -9.5q16 -3 28.5 10.5t19 34t7.5 44t-6 40.5q-11 -19 -22 -31t-21 -12q-35 0 -44 94q-12 -84 -48 -84
q-55 0 -55 152q0 32 3.5 67t8.5 64t12 47.5t14 18.5q11 0 11 -19l-4 -18.5t-8.5 -47.5t-8.5 -65.5t-4 -72.5q0 -80 34 -80q24 0 34 44.5t20 129.5q8 65 22 65q9 0 9 -10q0 1 -2.5 -15.5t-5.5 -41t-5.5 -53t-2.5 -51.5q0 -92 24 -92q7 0 16.5 12.5t18.5 30.5q7 16 14 25
t11 10t3.5 -8t-9.5 -29z" />
    <glyph glyph-name="afii10089" unicode="&#x447;" horiz-adv-x="157" 
d="M211 157q0 -24 -26 -87q-30 -70 -56 -70q-43 0 -43 92q0 26 3.5 58t10.5 70q-3 -1 -8 -1q-12 0 -19 2.5t-8 2.5q-3 0 -3 -3q0 -46 -16 -100q-15 -54 -25 -54q-5 0 -8 3.5t-1 7.5q32 55 32 163q0 25 -2.5 49.5t-2.5 36.5q0 94 25 94q13 0 13 -66q0 -16 -6 -49t-6 -34
q0 -19 17 -19q13 0 25 14q13 15 14 15q9 0 9 -10q0 5 -13 -43q-12 -50 -12 -102q0 -82 28 -82q19 0 40 45q19 39 20 64q2 11 9 11q9 0 9 -8z" />
    <glyph glyph-name="afii10090" unicode="&#x448;" horiz-adv-x="332" 
d="M156 133q0 -80 34 -80q32 0 44 93q2 20 5 40.5t5 40.5q9 65 22 65q9 0 9 -10q0 -1 -1.5 -13.5t-5.5 -36.5q-9 -56 -9 -111q0 -92 24 -92q16 0 39 51q10 23 15.5 40.5t6.5 30.5q2 11 7 11q10 0 10 -8q0 -30 -25 -87q-28 -70 -57 -70q-35 0 -44 94q-12 -84 -48 -84
q-43 0 -52 94q-6 -42 -19.5 -66.5t-31.5 -24.5q-55 0 -55 152q0 68 12 133q12 64 26 64q11 0 11 -19q0 -7 -13 -66q-12 -62 -12 -138q0 -80 34 -80q32 0 44 93q2 20 5 40.5t5 40.5q9 65 22 65q9 0 9 -10q0 -1 -1.5 -13.5t-5.5 -36.5q-4 -22 -6 -51t-3 -51z" />
    <glyph glyph-name="afii10091" unicode="&#x449;" horiz-adv-x="332" 
d="M279 -3q-35 0 -44 94q-12 -84 -48 -84q-43 0 -52 94q-6 -42 -19.5 -66.5t-31.5 -24.5q-55 0 -55 152q0 68 12 133q12 64 26 64q11 0 11 -19q0 -7 -13 -66q-12 -62 -12 -138q0 -80 34 -80q32 0 44 93q2 20 5 40.5t5 40.5q9 65 22 65q9 0 9 -10q0 -1 -1.5 -13.5t-5.5 -36.5
q-4 -22 -6 -51t-3 -51q0 -80 34 -80q32 0 44 93q2 20 5 40.5t5 40.5q9 65 22 65q9 0 9 -10q0 -1 -1.5 -13.5t-5.5 -36.5q-9 -56 -9 -111q0 -92 24 -92q7 0 16.5 12.5t18.5 30.5q7 16 14 25t11 10t3.5 -8t-9.5 -29q-2 -5 -6 -13q12 -22 14.5 -53.5t-4 -59.5t-23 -46
t-41.5 -13q-24 5 -34.5 23t-6.5 34q1 4 2.5 6.5t3.5 6.5q4 2 6 2q3 -1 3.5 -7.5t2 -14t5.5 -15t14 -9.5q16 -3 28.5 10.5t19 34t7.5 44t-6 40.5q-11 -19 -22 -31t-21 -12z" />
    <glyph glyph-name="afii10092" unicode="&#x44a;" horiz-adv-x="339" 
d="M192 355q-23 -46 -32.5 -113.5t-4.5 -139.5q1 -18 7 -34t14 -27.5t16 -18t14 -6.5q24 -4 38 17q-17 10 -30 27t-21.5 37.5t-12 42t-1.5 39.5q4 35 27 58t52 21q24 -3 36 -27.5t14 -58t-5.5 -69.5t-22.5 -60q3 -2 6 -2t5 -1q24 -2 37.5 11.5t25.5 43.5q2 10 4.5 12t4.5 2
q7 0 6 -7q-1 -5 -2 -9.5t-2 -9.5q-9 -28 -28.5 -46t-48.5 -15q-8 0 -18 4q-11 -16 -29.5 -22.5t-37.5 -4.5q-21 7 -38 22t-27 38t-13 56t-1 70t8.5 75.5t15.5 71.5q-15 -11 -24.5 -6.5t-15 13.5t-7 18.5t-0.5 9.5q-11 0 -17.5 -15t-11.5 -47q-4 -23 -7 -49.5t-5 -49.5
t-4 -39t-3 -18q-3 -9 -12 -9q-3 0 -6 1.5t-3 4.5t1 6q2 6 4.5 22.5t5 36.5t4.5 41t4 36q4 32 7 52.5t6 31.5q12 39 36 39q9 0 12 -9.5t5.5 -21.5t6 -21.5t13.5 -9.5q5 0 13.5 6.5t16.5 14.5t14.5 15t7.5 7q11 2 14.5 -8t-11.5 -29zM255 46q6 9 12 26t10 37.5t5.5 42t-1.5 39
t-10.5 29t-21.5 12.5q-17 2 -31 -14.5t-18 -42.5q-2 -17 1 -36t10 -36.5t18 -32.5t26 -24z" />
    <glyph glyph-name="afii10093" unicode="&#x44b;" horiz-adv-x="312" 
d="M361 155q0 -17 -7.5 -43t-19 -51.5t-25 -43.5t-25.5 -18q-25 0 -39.5 32t-14.5 96v12.5t1 14.5q-14 -23 -22.5 -34t-22.5 -19q-5 -23 -11.5 -43t-16.5 -32q-8 -14 -22 -21t-29 -7q-6 0 -9 1q-24 7 -38 24.5t-21.5 42.5t-10 56.5t-2.5 65.5q0 29 3.5 68.5t10 75.5t16.5 61
t24 25q6 0 6 -11v-6.5t-1.5 -10t-4.5 -25t-10 -51.5q-8 -37 -12 -72t-4 -79q0 -65 12 -106t40 -41q18 0 30.5 22t19.5 51q-32 -5 -55.5 16.5t-23.5 57.5q0 19 5.5 35.5t14.5 29t21 20t25 7.5t22 -8t15 -21.5t8.5 -31t2.5 -36.5q0 -8 -0.5 -16t-0.5 -16q17 13 26.5 36
t20.5 57q5 29 12 51t12 22q8 0 8 -10q0 1 -2 -15t-5 -40.5t-5 -52t-2 -49.5q0 -81 36 -81q8 0 17.5 12.5t17.5 30t13 36t5 29.5t8 11q7 0 7 -8h2zM166 164q0 27 -5.5 46t-23.5 19q-17 0 -29.5 -20t-12.5 -50q0 -29 20 -41.5t46 -6.5q2 14 3.5 28t1.5 25z" />
    <glyph glyph-name="afii10094" unicode="&#x44c;" horiz-adv-x="211" 
d="M93 -1q-35 12 -52.5 52.5t-22 95.5t2.5 116.5t21 116.5q3 12 10.5 22.5t14 15t11 1t1.5 -17.5q-13 -66 -24.5 -139.5t-5.5 -160.5q1 -18 7 -33.5t13 -27t14.5 -18t13.5 -6.5q21 -4 35 17q-16 10 -28 27t-20 37t-11.5 41.5t-1.5 39.5q4 34 25.5 57t47.5 21
q23 -3 34.5 -27.5t13 -57.5t-5.5 -68.5t-20 -59.5q2 -2 5 -2t5 -1q22 -2 34.5 11.5t23.5 42.5q2 10 4 12t4 2q7 0 6 -7q-1 -5 -1.5 -9.5t-2.5 -9.5q-8 -27 -26.5 -45t-44.5 -15q-7 0 -17 4q-10 -16 -27.5 -22.5t-35.5 -4.5zM142 46q9 13 16.5 43t9 61t-5 54.5t-25.5 25.5
q-17 2 -30 -14t-16 -42q-2 -17 1 -36t9.5 -36.5t16.5 -32t24 -23.5z" />
    <glyph glyph-name="afii10095" unicode="&#x44d;" horiz-adv-x="312" 
d="M200 180q-23 -3 -44 -20q-6 -4 -10.5 -6.5t-7.5 -4.5q-4 -3 -5 -4q-5 0 -7.5 6.5t-2.5 16.5q0 11 25 21q22 12 54 14q12 0 32 -5q-3 87 -52 109q-25 4 -46.5 -12.5t-38.5 -43t-28.5 -57t-15.5 -54.5q-2 -8 -2.5 -8h-4.5q-3 0 -5 -0.5t-2 6.5q0 23 10 55.5t27.5 62.5
t41.5 51.5t53 23.5q20 -2 37.5 -13.5t31 -29.5t21.5 -42t8 -50q0 -4 -0.5 -7.5t-0.5 -6.5q21 -13 31 -26q2 -4 2 -5q0 -7 -7 -7q-1 0 -23 17q-1 1 -2 1.5t-2 1.5q-3 -30 -13 -59t-27 -52t-41.5 -38t-55.5 -17q-26 -2 -43.5 18t-17.5 48q0 26 14.5 42t42.5 16q9 0 9 -5
q0 -6 -10 -6q-14 0 -19.5 -14t-5.5 -37q0 -49 32 -48q21 1 39 16.5t31.5 39t21.5 53t10 58.5q-21 6 -34 5v-4z" />
    <glyph glyph-name="afii10096" unicode="&#x44e;" horiz-adv-x="337" 
d="M366 137q0 -42 -32 -82q-34 -44 -74 -44q-8 0 -16 2q-24 -22 -55 -22q-43 0 -71 48.5t-28 129.5v24l-37 -3v-7l2 -152v-35.5t-9 -7.5q-13 0 -13 19v89q-1 35 -1 60v41q0 209 25 209q10 0 10 -51q0 -7 -1.5 -26t-5.5 -50q-5 -44 -6 -70l39 6q7 45 27 80q30 52 73 52
t73 -52t30 -126q0 -78 -33 -131q58 1 87 98q3 10 10 10q6 0 6 -9zM268 181q0 50 -15 93q-28 -5 -51 -29q-31 -33 -31 -87q0 -38 18.5 -71.5t46.5 -44.5q32 56 32 139zM248 288q-18 42 -48 42q-39 0 -62 -66q-18 -52 -18 -109q0 -51 15 -94q19 -55 53 -55q18 0 34 16
q-29 17 -48.5 53t-19.5 78q0 59 33 97q27 33 61 38z" />
    <glyph glyph-name="afii10097" unicode="&#x44f;" horiz-adv-x="264" 
d="M198 206q2 11 10 14t15.5 0t12 -9.5t0.5 -13.5q-3 -5 -8.5 -19t-10.5 -33t-8.5 -39.5t-3 -38t6.5 -28.5t20 -11q16 0 39 39q16 31 22 56q3 9 8 9q9 0 9 -12q0 -1 -1 -6q-4 -21 -27 -62q-28 -52 -54 -52q-22 0 -33 18t-14.5 44t-1 55.5t7.5 53.5q-2 -1 -8 -3
q-7 -31 -17 -60.5t-23 -52.5t-29.5 -38.5t-35.5 -17.5q-27 4 -41 19.5t-18.5 34.5t-1.5 37.5t9 28.5q5 7 12.5 10t14.5 2t10.5 -6t0.5 -14q-9 -32 -6 -57t25 -26q29 8 49 47.5t32 89.5q-5 -1 -9 -0.5t-8 1.5q-33 7 -55 25.5t-33 43t-11.5 51t9 48.5t29.5 36.5t50 14.5
q10 0 21.5 -2t21.5 -9t16.5 -19t7.5 -33q1 -20 -3 -56.5t-12 -78.5q6 4 10 9q1 3 2 5.5t2 4.5zM179 323q-2 23 -13.5 31.5t-20.5 10.5q-19 3 -33.5 -7t-23 -27.5t-10.5 -39.5t4 -43t21 -39t40 -26q9 -3 20 -2q9 41 13 79.5t3 62.5z" />
    <glyph glyph-name="afii10023" unicode="&#x401;" horiz-adv-x="372" 
d="M365 26q0 -81 -45.5 -131.5t-127.5 -50.5q-68 0 -120 50q-59 57 -59 152q0 84 65 147q47 47 96 60q-145 81 -145 256q0 123 70 214q66 84 141 84q59 0 91 -52q28 -46 28 -119q0 -87 -35.5 -161t-84.5 -74q-31 0 -55 34.5t-24 89.5q0 45 18 79q13 26 20 26t7 -7
q0 6 -9 -23.5t-9 -69.5q0 -46 15 -79t36 -33q37 0 63 67q24 64 24 144q0 70 -21 114q-24 50 -70 50q-59 0 -112 -76q-56 -82 -56 -190q0 -110 60 -185q53 -66 109 -66q17 0 32 2t18 2q17 0 17 -15q0 -7 -9 -16t-18 -9h-13q-10 1 -19 1q-85 0 -139 -60q-50 -56 -50 -135
q0 -77 42 -130.5t104 -53.5t97 47t35 118q0 51 -19 89q-16 32 -28 32q-6 0 -6 7q0 8 9 8q21 0 48 -42q29 -46 29 -95zM297 883q0 -26 -25 -26q-26 0 -26 26t26 26q25 0 25 -26zM208 883q0 -26 -26 -26q-25 0 -25 26t25 26q26 0 26 -26z" />
    <glyph glyph-name="afii10071" unicode="&#x451;" horiz-adv-x="190" 
d="M237 132q0 -43 -37.5 -88t-80.5 -45q-48 0 -75 32q-25 28 -25 71q0 35 21.5 65t56.5 41q-15 14 -29 39q-24 43 -24 88q0 27 14.5 42.5t36.5 15.5q27 0 47 -25q17 -21 17 -38q0 -11 -10 -11q-1 0 -10 22t-32 22q-31 0 -31 -45q0 -36 18.5 -72.5t41.5 -36.5q15 0 15 -12
q0 -11 -22 -11q-39 0 -62.5 -29.5t-23.5 -65.5q0 -66 61 -66q42 0 77 36q31 32 39 69q4 15 11 15q6 0 6 -13zM165 456q0 -26 -25 -26q-26 0 -26 26t26 26q25 0 25 -26zM76 456q0 -26 -26 -26q-25 0 -25 26t25 26q26 0 26 -26z" />
    <glyph glyph-name="afii61352" unicode="&#x2116;" horiz-adv-x="1134" 
d="M867 748q0 -10 -11 -10q-9 0 -9 8q0 40 -21 66.5t-50 26.5q-50 0 -82 -62q-37 -73 -37 -214q0 -74 12 -222t12 -203q0 -146 -51 -146q-36 0 -78 129q-39 120 -46 227q-28 -210 -94 -342q-74 -148 -175 -148q-94 0 -158 98q-68 104 -68 276q0 130 57 216q55 81 132 81
q57 0 94.5 -54t37.5 -143q0 -46 -12 -83q-10 -33 -19 -33q-8 0 -8 13q0 -4 10 27t10 72q0 76 -30 126t-78 50q-61 0 -104 -74q-47 -82 -47 -220q0 -136 39 -223q43 -94 118 -94q120 0 199 181q77 178 77 447q0 56 -3 117.5t-3 68.5q0 137 26 137q27 0 27 -137
q0 -107 -13 -234q7 -119 38 -266q39 -179 78 -179q22 0 22 65q0 41 -19.5 206.5t-19.5 258.5q0 151 49 232q41 67 101 67q40 0 68.5 -31t28.5 -78zM1095 580q0 -92 -32 -158t-79 -66q-48 0 -80 66t-32 158t32 158t80 66q47 0 79 -66t32 -158zM1066 580q0 85 -25 145t-57 60
q-33 0 -57.5 -60t-24.5 -145q0 -86 24.5 -146.5t57.5 -60.5q32 0 57 60.5t25 146.5zM1091 297q0 -14 -9 -14q-14 0 -42.5 4t-42.5 4q-17 0 -49 -5t-49 -5q-22 0 -22 14q0 25 39 25q90 0 164 -9q11 -1 11 -14z" />
    <glyph glyph-name="hyphen" unicode="-" horiz-adv-x="294" 
d="M257 286q0 -14 -9 -14q-14 0 -42.5 4t-42.5 4q-17 0 -49 -5t-49 -5q-22 0 -22 14q0 25 39 25q90 0 164 -9q11 -1 11 -14z" />
    <glyph glyph-name="afii10062" unicode="&#x40e;" horiz-adv-x="529" 
d="M500 -25q0 -74 -54.5 -128.5t-135.5 -54.5q-59 0 -96 28q-42 32 -42 90q0 22 11 49q8 21 15 27q4 4 10 4q8 0 8 -6v-2q-23 -30 -23 -71q0 -43 36.5 -70t85.5 -27q144 0 144 175q0 76 -16 239q-33 -158 -117 -158q-80 0 -80 154q0 57 14 194t14 198q0 187 -86 187
q-56 0 -97 -83q-44 -91 -44 -238q0 -112 29 -187q27 -68 61 -68q26 0 45 42q21 48 21 134q0 51 -13.5 96t-33.5 61q-4 3 -4 8q0 9 7 9q3 0 7 -2q31 -21 48.5 -69.5t17.5 -104.5q0 -89 -31 -142q-26 -47 -64 -47q-48 0 -86 72q-42 79 -42 197q0 154 55 249q49 87 119 87
q126 0 126 -246q0 -67 -12 -199t-12 -178q0 -107 45 -107q41 0 73 76q29 70 30 144v28q0 66 -7.5 184t-7.5 174q0 29 22 29q18 0 18 -43v-76q-1 -50 -1 -75q0 -108 21.5 -270.5t21.5 -282.5zM515 956q-4 -12 -116 -49q16 -32 31 -75h-1q-8 3 -42 57q-14 -38 -24 -65
q-20 -52 -26 -55q-2 16 30 129q-26 -8 -45 -13q-36 -8 -46 -6l-1 1q4 10 93 40q-64 110 -61 127h2q16 -4 71 -106q71 227 91 237q2 -11 -8 -50q-14 -55 -61 -197q94 30 113 27v-2z" />
    <glyph glyph-name="afii10110" unicode="&#x45e;" horiz-adv-x="179" 
d="M186 454q0 -27 -17 -145t-17 -168q0 -48 5 -103.5t5 -88.5q0 -195 -125 -195q-29 0 -29 17q0 10 8 18t18 8q6 0 13 -5t13 -5q58 0 74 86q6 32 6 136q0 70 -6 86q-3 -21 -15 -47q-17 -38 -36 -38q-20 0 -34 30q-18 39 -18 112v17q0 146 22 146q12 0 12 -63q0 -20 -6.5 -64
t-6.5 -52q0 -80 34 -80q24 0 37 58q13 52 13 132q0 98 7 180q10 106 27 106q16 0 16 -78zM214 595q-4 -12 -116 -49q16 -32 31 -75h-1q-8 3 -42 57q-14 -38 -24 -65q-20 -52 -26 -55q-2 16 30 129q-26 -8 -45 -13q-36 -8 -46 -6l-1 1q4 10 93 40q-64 110 -61 127h2
q16 -4 71 -106q71 227 91 237q2 -11 -8 -50q-14 -55 -61 -197q94 30 113 27v-2z" />
    <glyph glyph-name="afii10018" unicode="&#x411;" horiz-adv-x="688" 
d="M379 -109q22 -11 53 -11q36 0 69 26.5t58 70t39.5 100.5t14.5 117q0 59 -15 108t-42.5 84t-65.5 54.5t-84 19.5h-17q-2 -103 -4.5 -244t-5.5 -325zM146 707q-22 -12 -39 -52.5t-28.5 -95.5t-15 -116t3 -114t23.5 -91t48 -45q24 -6 42 24t30 93q15 85 -2 139
q-15 54 -44 58q-7 1 -7 10q1 6 8 5q45 -9 66 -81q18 -70 6 -146q-6 -29 -14.5 -50t-22.5 -38q-29 -33 -67 -26q-67 10 -97 129q-13 43 -16 93.5t3.5 100.5t23 96.5t43.5 80.5q24 31 51 44t59 7q35 -7 72 -22.5t75 -33.5l-1 20v3.5t-1 6.5v11q0 38 17 38q30 0 30 -55v-47
q17 -8 33.5 -17t32.5 -15q70 -26 123 -4.5t85 93.5q1 2 3 1.5t4 -0.5q1 0 3 -3l1 -2q-18 -54 -57 -88.5t-100 -34.5q-31 0 -63.5 5t-65.5 18q0 -28 -0.5 -58.5t-1.5 -72.5h12q55 0 101 -21t79.5 -60t52 -94t18.5 -122q0 -63 -17 -121.5t-47 -103.5t-70.5 -71.5t-87.5 -26.5
q-27 0 -52 11q0 -50 -14 -50t-14 59q-41 35 -41 93q0 12 7 12l2.5 -8.5t6.5 -20.5t10.5 -25t15.5 -22q4 139 5.5 217.5t1.5 101.5q-1 100 -2 181t-4 154l-3 66q-30 14 -58.5 31t-55 30.5t-49 20.5t-40.5 1z" />
    </font>
</defs>
</svg>
